<?xml version="1.0" encoding="UTF-8" standalone="no"?>
<!DOCTYPE svg PUBLIC "-//W3C//DTD SVG 1.1//EN" "http://www.w3.org/Graphics/SVG/1.1/DTD/svg11.dtd">
<svg xmlns="http://www.w3.org/2000/svg" version="1.1" viewBox="0.00 0.00 475.00 525.00">
<g stroke-width="2.30" fill="none" stroke-linecap="butt">
<path stroke="#337ab8" vector-effect="non-scaling-stroke" d="
  M 468.36 127.49
  Q 428.78 150.18 389.23 172.59
  Q 389.00 172.72 388.73 172.73
  Q 388.47 172.74 388.19 172.75"
/>
<path stroke="#336faa" vector-effect="non-scaling-stroke" d="
  M 84.01 346.72
  Q 71.80 353.87 59.57 360.81
  Q 32.23 376.32 4.96 391.94
  Q 4.31 392.31 2.63 392.03"
/>
<path stroke="#004f8f" vector-effect="non-scaling-stroke" d="
  M 471.56 393.49
  Q 468.28 392.26 459.24 387.33
  Q 426.17 369.31 393.13 351.25
  Q 391.13 350.16 389.60 349.05"
/>
<path stroke="#004f8f" vector-effect="non-scaling-stroke" d="
  M 312.60 307.63
  Q 311.97 307.13 311.65 306.36
  Q 311.47 305.91 311.01 305.71
  Q 308.20 304.48 305.53 302.98
  Q 276.03 286.37 246.22 270.31
  Q 239.30 266.58 232.53 262.11"
/>
<path stroke="#337ab8" vector-effect="non-scaling-stroke" d="
  M 232.53 262.11
  L 311.98 216.67"
/>
<path stroke="#336faa" vector-effect="non-scaling-stroke" d="
  M 232.53 262.11
  L 160.27 303.40"
/>
</g>
<path fill="#669ad3" d="
  M 234.13 0.00
  L 240.49 0.00
  Q 247.47 1.09 253.42 4.60
  Q 256.46 6.40 259.26 7.95
  Q 264.30 10.73 269.96 13.90
  Q 306.67 34.46 343.03 54.93
  Q 345.50 56.33 347.54 57.39
  Q 355.14 61.36 361.50 65.10
  Q 366.89 68.27 371.63 70.73
  Q 376.91 73.47 381.86 76.25
  Q 420.68 98.06 460.91 120.61
  Q 465.44 123.15 468.36 127.49
  Q 428.78 150.18 389.23 172.59
  Q 389.00 172.72 388.73 172.73
  Q 388.47 172.74 388.19 172.75
  Q 387.95 172.87 387.74 172.53
  Q 361.26 129.27 316.61 106.32
  Q 309.74 102.79 302.69 100.07
  Q 293.06 96.34 288.30 94.94
  Q 239.64 80.66 190.21 93.87
  C 185.91 95.02 181.84 96.69 177.57 98.12
  Q 172.77 99.72 168.26 101.70
  Q 147.41 110.88 131.49 123.25
  Q 80.18 163.12 66.24 226.25
  Q 64.03 236.25 63.16 246.19
  Q 58.48 299.33 84.01 346.72
  Q 71.80 353.87 59.57 360.81
  Q 32.23 376.32 4.96 391.94
  Q 4.31 392.31 2.63 392.03
  L 0.00 383.12
  L 0.00 141.26
  Q 1.97 127.37 14.03 120.61
  Q 106.04 69.07 198.05 17.53
  Q 209.74 10.98 215.14 8.04
  Q 215.21 8.00 220.74 4.69
  Q 226.88 1.01 234.13 0.00
  Z"
/>
<path fill="#00599d" d="
  M 468.36 127.49
  C 472.87 131.33 473.90 136.35 475.00 142.13
  L 475.00 382.99
  Q 474.13 388.72 471.56 393.49
  Q 468.28 392.26 459.24 387.33
  Q 426.17 369.31 393.13 351.25
  Q 391.13 350.16 389.60 349.05
  L 313.33 306.88
  Q 312.97 306.68 312.75 307.03
  Q 312.61 307.23 312.60 307.63
  Q 311.97 307.13 311.65 306.36
  Q 311.47 305.91 311.01 305.71
  Q 308.20 304.48 305.53 302.98
  Q 276.03 286.37 246.22 270.31
  Q 239.30 266.58 232.53 262.11
  L 311.98 216.67
  Q 316.37 214.47 331.25 206.01
  Q 346.16 197.53 361.06 189.04
  Q 365.65 186.42 367.09 185.63
  Q 377.43 179.95 387.51 173.80
  Q 387.99 173.50 388.19 172.75
  Q 388.47 172.74 388.73 172.73
  Q 389.00 172.72 389.23 172.59
  Q 428.78 150.18 468.36 127.49
  Z"
/>
<path fill="#669ad3" d="
  M 311.98 216.67
  L 232.53 262.11
  L 160.27 303.40
  Q 156.08 295.58 154.34 289.95
  Q 145.11 260.28 155.49 232.11
  Q 164.60 207.40 186.79 191.29
  Q 195.48 184.98 204.25 181.58
  Q 242.64 166.71 278.57 185.18
  Q 298.68 195.51 311.98 216.67
  Z"
/>
<path fill="#004481" d="
  M 232.53 262.11
  Q 239.30 266.58 246.22 270.31
  Q 276.03 286.37 305.53 302.98
  Q 308.20 304.48 311.01 305.71
  Q 311.47 305.91 311.65 306.36
  Q 311.97 307.13 312.60 307.63
  Q 307.20 315.91 302.17 321.44
  Q 295.77 328.47 287.07 334.56
  Q 278.85 340.33 269.41 343.95
  Q 234.97 357.17 200.62 341.86
  Q 196.95 340.23 192.62 337.53
  Q 186.67 333.83 184.99 332.54
  Q 173.75 323.86 165.22 311.79
  Q 162.38 307.78 160.27 303.40
  L 232.53 262.11
  Z"
/>
<path fill="#004481" d="
  M 84.01 346.72
  C 103.37 381.47 133.44 408.68 170.10 424.06
  Q 174.09 425.73 178.17 427.06
  C 181.96 428.30 185.71 429.91 189.49 430.92
  Q 240.16 444.48 288.48 429.94
  Q 295.86 427.72 309.30 422.02
  Q 325.37 415.19 342.04 402.79
  Q 371.15 381.14 389.60 349.05
  Q 391.13 350.16 393.13 351.25
  Q 426.17 369.31 459.24 387.33
  Q 468.28 392.26 471.56 393.49
  Q 467.16 400.50 461.16 403.67
  C 456.67 406.04 451.62 409.06 448.33 410.83
  C 440.51 415.02 432.72 419.72 425.25 423.72
  Q 418.72 427.23 411.63 431.25
  Q 386.96 445.23 361.73 459.46
  Q 353.61 464.04 346.18 467.96
  C 344.67 468.76 343.36 469.87 341.90 470.64
  Q 334.87 474.36 325.75 479.50
  Q 297.99 495.12 274.29 508.58
  Q 266.68 512.90 259.02 517.14
  Q 254.76 519.50 253.00 520.54
  Q 247.10 524.03 240.12 525.00
  L 234.75 525.00
  Q 227.79 523.96 221.86 520.47
  Q 218.47 518.47 215.43 516.80
  Q 207.80 512.62 200.23 508.33
  Q 175.81 494.52 149.03 479.48
  Q 113.50 459.53 77.97 439.59
  Q 46.10 421.69 14.22 403.79
  Q 6.69 399.56 2.63 392.03
  Q 4.31 392.31 4.96 391.94
  Q 32.23 376.32 59.57 360.81
  Q 71.80 353.87 84.01 346.72
  Z"
/>
</svg>
