<?xml version="1.0" encoding="UTF-8" standalone="no"?>
<!DOCTYPE svg PUBLIC "-//W3C//DTD SVG 1.1//EN" "http://www.w3.org/Graphics/SVG/1.1/DTD/svg11.dtd">
<svg xmlns="http://www.w3.org/2000/svg" version="1.1" viewBox="0.00 0.00 992.00 762.00">
<path fill="#000000" d="
  M 88.01 0.00
  L 903.08 0.00
  Q 930.22 0.51 952.36 15.45
  C 978.88 33.34 993.02 63.34 990.70 95.11
  C 987.74 135.65 956.40 168.93 916.69 175.01
  Q 910.15 176.01 902.46 176.01
  Q 492.66 176.01 85.86 175.97
  C 78.28 175.97 69.60 174.56 62.49 172.33
  Q 28.55 161.67 10.82 130.23
  Q 0.69 112.27 0.00 89.43
  L 0.00 86.68
  Q 1.64 46.13 31.67 20.67
  C 45.70 8.78 64.03 1.35 82.84 0.41
  Q 85.44 0.28 88.01 0.00
  Z"
/>
<path fill="#000000" d="
  M 0.00 382.43
  L 0.00 379.67
  Q 1.72 338.32 32.49 312.96
  Q 52.22 296.71 78.03 293.69
  Q 83.97 292.99 97.91 292.99
  Q 524.38 292.94 900.26 293.12
  Q 904.30 293.12 910.71 293.61
  Q 928.64 294.97 944.24 303.47
  Q 971.58 318.37 983.48 345.57
  C 993.11 367.59 993.46 391.95 984.55 414.17
  C 971.38 447.00 939.09 469.01 903.57 469.01
  Q 492.76 468.99 87.28 469.00
  C 55.57 469.00 26.63 451.22 11.24 423.99
  Q 0.69 405.31 0.00 382.43
  Z"
/>
<path fill="#000000" d="
  M 0.00 674.42
  L 0.00 671.67
  Q 1.71 630.43 32.34 605.09
  Q 52.12 588.73 78.05 585.69
  Q 83.78 585.01 98.01 585.01
  Q 497.63 584.99 897.24 585.00
  Q 900.77 585.00 904.27 585.18
  C 907.22 585.33 910.15 585.36 913.04 585.72
  Q 942.22 589.34 963.66 609.42
  C 982.94 627.47 992.48 653.38 990.75 679.50
  C 988.01 720.85 955.88 754.69 914.98 760.27
  Q 909.52 761.02 902.95 761.02
  Q 492.92 760.98 86.65 761.00
  Q 78.67 761.00 69.92 759.19
  C 44.87 754.03 23.61 737.85 11.24 715.99
  Q 0.67 697.28 0.00 674.42
  Z"
/>
</svg>
