<?xml version="1.0" encoding="UTF-8" standalone="no"?>
<!DOCTYPE svg PUBLIC "-//W3C//DTD SVG 1.1//EN" "http://www.w3.org/Graphics/SVG/1.1/DTD/svg11.dtd">
<svg xmlns="http://www.w3.org/2000/svg" version="1.1" viewBox="0.00 0.00 800.00 800.00">
<g stroke-width="2.30" fill="none" stroke-linecap="butt">
<path stroke="#918740" vector-effect="non-scaling-stroke" d="
  M 662.96 455.62
  Q 663.01 455.62 663.06 455.62
  Q 663.25 455.64 663.42 455.54
  Q 671.41 450.72 679.25 445.35
  Q 679.54 445.16 679.88 445.10
  Q 680.30 445.03 680.63 444.75
  Q 682.68 443.05 685.02 441.75
  Q 686.26 441.07 687.46 440.28
  Q 700.73 431.60 713.84 423.33
  Q 714.29 423.04 714.03 422.57
  Q 707.64 411.05 698.22 400.02
  Q 680.98 379.82 656.00 370.64
  Q 642.48 365.66 626.07 363.94
  Q 603.52 361.56 582.03 365.35
  Q 571.87 367.15 562.73 370.48
  Q 551.97 374.41 542.76 380.01
  Q 518.44 394.80 506.45 420.89
  Q 502.16 430.25 500.11 440.17
  Q 497.00 455.15 498.09 471.87
  Q 501.21 519.62 538.59 547.81
  Q 552.68 558.44 564.75 564.39
  Q 584.59 574.18 592.50 577.37
  Q 598.89 579.95 602.88 581.82
  Q 605.78 583.19 608.48 584.14
  Q 611.40 585.17 614.09 586.49
  Q 617.30 588.05 620.54 589.47
  Q 624.30 591.11 627.62 592.61
  Q 627.84 592.71 627.95 592.91
  Q 628.13 593.26 628.48 593.43
  Q 639.91 598.73 647.52 604.80
  Q 663.66 617.67 660.81 638.58
  Q 659.87 645.41 655.47 651.59
  Q 649.46 660.03 638.94 664.59
  Q 636.82 665.50 634.62 666.36
  Q 632.54 667.16 630.33 667.68
  Q 610.79 672.33 590.72 668.07
  Q 574.11 664.54 560.61 653.32
  Q 554.57 648.30 552.84 646.42
  Q 543.90 636.72 536.80 625.19
  A 0.87 0.87 0.0 0 0 535.54 624.96
  Q 533.33 626.62 530.70 627.58
  Q 530.59 627.62 530.68 627.70
  Q 530.72 627.74 530.72 627.79
  Q 530.72 627.98 530.53 628.03
  Q 528.89 628.43 527.72 629.61
  A 2.36 2.34 14.1 0 1 526.67 630.23
  C 524.63 630.81 523.41 632.37 521.54 633.29
  Q 516.90 635.59 512.48 638.51
  C 511.55 639.13 510.39 639.21 509.60 639.93
  Q 508.80 640.65 507.83 641.13
  Q 503.67 643.16 499.77 645.76
  Q 499.07 646.23 498.34 646.66
  Q 494.39 649.05 490.69 650.96
  Q 490.37 651.12 490.15 651.40
  Q 489.93 651.69 489.61 651.86
  Q 482.16 655.89 475.83 659.71
  Q 475.39 659.97 475.60 660.44
  Q 476.63 662.76 478.04 665.22
  Q 480.89 670.18 483.73 674.41
  Q 500.30 698.96 524.89 714.01
  Q 525.56 714.42 526.19 714.73
  Q 526.85 715.06 527.43 715.51
  Q 528.14 716.06 529.07 716.54
  Q 530.86 717.45 532.69 718.39
  Q 541.43 722.87 550.76 726.43
  Q 553.32 727.40 555.90 728.18
  Q 558.46 728.95 561.08 729.77
  Q 564.93 730.98 568.97 731.88
  Q 602.04 739.27 636.01 735.05
  Q 636.48 734.99 636.88 734.73
  Q 637.23 734.50 637.65 734.59
  Q 638.25 734.72 638.85 734.65
  Q 645.75 733.89 652.67 731.90
  C 653.81 731.57 654.85 731.63 655.99 731.31
  Q 665.02 728.76 673.71 725.27
  Q 678.25 723.45 683.18 720.90
  Q 689.71 717.53 692.36 715.84
  Q 701.03 710.33 709.33 701.95
  Q 728.84 682.27 734.30 653.61
  Q 737.65 636.06 735.40 615.85
  Q 730.94 575.66 700.25 550.24
  Q 687.95 540.06 673.98 532.28
  Q 660.71 524.90 650.10 520.19
  Q 629.61 511.11 609.07 502.19
  Q 598.79 497.73 589.36 491.66
  Q 580.56 485.99 575.95 478.21
  Q 573.23 473.62 572.47 468.50
  Q 571.51 462.04 572.13 455.56
  Q 572.58 450.87 574.81 446.71
  Q 577.26 442.17 580.55 438.58
  C 581.90 437.12 583.51 436.17 584.98 434.88
  Q 586.42 433.63 588.25 432.79
  Q 591.54 431.27 594.58 430.08
  Q 595.73 429.63 597.03 429.53
  C 599.22 429.36 601.29 428.73 603.49 428.58
  Q 617.30 427.62 629.66 432.72
  Q 631.91 433.65 633.98 435.20
  C 638.11 438.29 642.78 441.48 645.86 445.64
  Q 649.02 449.90 652.44 454.50
  Q 653.67 456.15 655.63 460.04
  Q 655.92 460.62 656.44 460.24
  Q 658.96 458.36 661.77 456.73
  Q 662.42 456.35 662.83 455.70
  Q 662.87 455.63 662.96 455.62"
/>
<path stroke="#918740" vector-effect="non-scaling-stroke" d="
  M 395.67 715.60
  Q 395.85 715.56 395.99 715.46
  Q 413.87 702.00 423.37 681.02
  C 424.58 678.36 425.99 675.47 426.88 672.75
  Q 434.45 649.65 434.46 627.14
  Q 434.57 499.95 434.50 367.82
  Q 434.50 367.28 433.95 367.28
  L 359.96 367.28
  A 0.46 0.45 0.0 0 0 359.50 367.73
  Q 359.51 496.06 359.51 624.10
  C 359.51 627.63 359.20 631.15 358.80 634.61
  Q 358.36 638.41 357.53 642.81
  Q 357.19 644.59 356.59 646.11
  Q 355.98 647.66 355.34 649.33
  Q 351.36 659.65 342.81 664.60
  Q 336.34 668.35 327.06 669.19
  C 314.32 670.33 303.02 668.87 293.36 661.04
  Q 286.49 655.47 281.01 647.30
  Q 276.04 639.89 271.43 631.60
  A 0.65 0.61 -30.5 0 0 270.54 631.40
  L 210.53 667.67
  A 0.76 0.75 61.9 0 0 210.24 668.64
  Q 225.56 700.49 252.98 718.08
  Q 260.99 723.22 270.61 727.06
  Q 285.46 732.98 299.99 735.04
  Q 321.29 738.05 344.25 735.18
  Q 344.50 735.15 344.70 735.01
  Q 344.90 734.88 345.12 734.77
  Q 345.48 734.59 345.88 734.61
  Q 349.01 734.73 352.09 734.00
  Q 357.56 732.70 362.77 731.42
  Q 366.80 730.43 370.38 728.78
  Q 371.39 728.32 372.45 728.14
  Q 373.51 727.97 374.48 727.49
  Q 377.96 725.74 381.60 724.34
  Q 382.78 723.89 383.82 723.02
  Q 384.72 722.26 386.05 721.61
  Q 390.84 719.28 395.34 715.76
  Q 395.49 715.65 395.67 715.60"
/>
</g>
<path fill="#f0db4f" d="
  M 0.00 0.00
  L 800.00 0.00
  L 800.00 800.00
  L 0.00 800.00
  L 0.00 0.00
  Z
  M 662.96 455.62
  Q 663.01 455.62 663.06 455.62
  Q 663.25 455.64 663.42 455.54
  Q 671.41 450.72 679.25 445.35
  Q 679.54 445.16 679.88 445.10
  Q 680.30 445.03 680.63 444.75
  Q 682.68 443.05 685.02 441.75
  Q 686.26 441.07 687.46 440.28
  Q 700.73 431.60 713.84 423.33
  Q 714.29 423.04 714.03 422.57
  Q 707.64 411.05 698.22 400.02
  Q 680.98 379.82 656.00 370.64
  Q 642.48 365.66 626.07 363.94
  Q 603.52 361.56 582.03 365.35
  Q 571.87 367.15 562.73 370.48
  Q 551.97 374.41 542.76 380.01
  Q 518.44 394.80 506.45 420.89
  Q 502.16 430.25 500.11 440.17
  Q 497.00 455.15 498.09 471.87
  Q 501.21 519.62 538.59 547.81
  Q 552.68 558.44 564.75 564.39
  Q 584.59 574.18 592.50 577.37
  Q 598.89 579.95 602.88 581.82
  Q 605.78 583.19 608.48 584.14
  Q 611.40 585.17 614.09 586.49
  Q 617.30 588.05 620.54 589.47
  Q 624.30 591.11 627.62 592.61
  Q 627.84 592.71 627.95 592.91
  Q 628.13 593.26 628.48 593.43
  Q 639.91 598.73 647.52 604.80
  Q 663.66 617.67 660.81 638.58
  Q 659.87 645.41 655.47 651.59
  Q 649.46 660.03 638.94 664.59
  Q 636.82 665.50 634.62 666.36
  Q 632.54 667.16 630.33 667.68
  Q 610.79 672.33 590.72 668.07
  Q 574.11 664.54 560.61 653.32
  Q 554.57 648.30 552.84 646.42
  Q 543.90 636.72 536.80 625.19
  A 0.87 0.87 0.0 0 0 535.54 624.96
  Q 533.33 626.62 530.70 627.58
  Q 530.59 627.62 530.68 627.70
  Q 530.72 627.74 530.72 627.79
  Q 530.72 627.98 530.53 628.03
  Q 528.89 628.43 527.72 629.61
  A 2.36 2.34 14.1 0 1 526.67 630.23
  C 524.63 630.81 523.41 632.37 521.54 633.29
  Q 516.90 635.59 512.48 638.51
  C 511.55 639.13 510.39 639.21 509.60 639.93
  Q 508.80 640.65 507.83 641.13
  Q 503.67 643.16 499.77 645.76
  Q 499.07 646.23 498.34 646.66
  Q 494.39 649.05 490.69 650.96
  Q 490.37 651.12 490.15 651.40
  Q 489.93 651.69 489.61 651.86
  Q 482.16 655.89 475.83 659.71
  Q 475.39 659.97 475.60 660.44
  Q 476.63 662.76 478.04 665.22
  Q 480.89 670.18 483.73 674.41
  Q 500.30 698.96 524.89 714.01
  Q 525.56 714.42 526.19 714.73
  Q 526.85 715.06 527.43 715.51
  Q 528.14 716.06 529.07 716.54
  Q 530.86 717.45 532.69 718.39
  Q 541.43 722.87 550.76 726.43
  Q 553.32 727.40 555.90 728.18
  Q 558.46 728.95 561.08 729.77
  Q 564.93 730.98 568.97 731.88
  Q 602.04 739.27 636.01 735.05
  Q 636.48 734.99 636.88 734.73
  Q 637.23 734.50 637.65 734.59
  Q 638.25 734.72 638.85 734.65
  Q 645.75 733.89 652.67 731.90
  C 653.81 731.57 654.85 731.63 655.99 731.31
  Q 665.02 728.76 673.71 725.27
  Q 678.25 723.45 683.18 720.90
  Q 689.71 717.53 692.36 715.84
  Q 701.03 710.33 709.33 701.95
  Q 728.84 682.27 734.30 653.61
  Q 737.65 636.06 735.40 615.85
  Q 730.94 575.66 700.25 550.24
  Q 687.95 540.06 673.98 532.28
  Q 660.71 524.90 650.10 520.19
  Q 629.61 511.11 609.07 502.19
  Q 598.79 497.73 589.36 491.66
  Q 580.56 485.99 575.95 478.21
  Q 573.23 473.62 572.47 468.50
  Q 571.51 462.04 572.13 455.56
  Q 572.58 450.87 574.81 446.71
  Q 577.26 442.17 580.55 438.58
  C 581.90 437.12 583.51 436.17 584.98 434.88
  Q 586.42 433.63 588.25 432.79
  Q 591.54 431.27 594.58 430.08
  Q 595.73 429.63 597.03 429.53
  C 599.22 429.36 601.29 428.73 603.49 428.58
  Q 617.30 427.62 629.66 432.72
  Q 631.91 433.65 633.98 435.20
  C 638.11 438.29 642.78 441.48 645.86 445.64
  Q 649.02 449.90 652.44 454.50
  Q 653.67 456.15 655.63 460.04
  Q 655.92 460.62 656.44 460.24
  Q 658.96 458.36 661.77 456.73
  Q 662.42 456.35 662.83 455.70
  Q 662.87 455.63 662.96 455.62
  Z
  M 395.67 715.60
  Q 395.85 715.56 395.99 715.46
  Q 413.87 702.00 423.37 681.02
  C 424.58 678.36 425.99 675.47 426.88 672.75
  Q 434.45 649.65 434.46 627.14
  Q 434.57 499.95 434.50 367.82
  Q 434.50 367.28 433.95 367.28
  L 359.96 367.28
  A 0.46 0.45 0.0 0 0 359.50 367.73
  Q 359.51 496.06 359.51 624.10
  C 359.51 627.63 359.20 631.15 358.80 634.61
  Q 358.36 638.41 357.53 642.81
  Q 357.19 644.59 356.59 646.11
  Q 355.98 647.66 355.34 649.33
  Q 351.36 659.65 342.81 664.60
  Q 336.34 668.35 327.06 669.19
  C 314.32 670.33 303.02 668.87 293.36 661.04
  Q 286.49 655.47 281.01 647.30
  Q 276.04 639.89 271.43 631.60
  A 0.65 0.61 -30.5 0 0 270.54 631.40
  L 210.53 667.67
  A 0.76 0.75 61.9 0 0 210.24 668.64
  Q 225.56 700.49 252.98 718.08
  Q 260.99 723.22 270.61 727.06
  Q 285.46 732.98 299.99 735.04
  Q 321.29 738.05 344.25 735.18
  Q 344.50 735.15 344.70 735.01
  Q 344.90 734.88 345.12 734.77
  Q 345.48 734.59 345.88 734.61
  Q 349.01 734.73 352.09 734.00
  Q 357.56 732.70 362.77 731.42
  Q 366.80 730.43 370.38 728.78
  Q 371.39 728.32 372.45 728.14
  Q 373.51 727.97 374.48 727.49
  Q 377.96 725.74 381.60 724.34
  Q 382.78 723.89 383.82 723.02
  Q 384.72 722.26 386.05 721.61
  Q 390.84 719.28 395.34 715.76
  Q 395.49 715.65 395.67 715.60
  Z"
/>
<path fill="#323330" d="
  M 662.83 455.70
  Q 662.42 456.35 661.77 456.73
  Q 658.96 458.36 656.44 460.24
  Q 655.92 460.62 655.63 460.04
  Q 653.67 456.15 652.44 454.50
  Q 649.02 449.90 645.86 445.64
  C 642.78 441.48 638.11 438.29 633.98 435.20
  Q 631.91 433.65 629.66 432.72
  Q 617.30 427.62 603.49 428.58
  C 601.29 428.73 599.22 429.36 597.03 429.53
  Q 595.73 429.63 594.58 430.08
  Q 591.54 431.27 588.25 432.79
  Q 586.42 433.63 584.98 434.88
  C 583.51 436.17 581.90 437.12 580.55 438.58
  Q 577.26 442.17 574.81 446.71
  Q 572.58 450.87 572.13 455.56
  Q 571.51 462.04 572.47 468.50
  Q 573.23 473.62 575.95 478.21
  Q 580.56 485.99 589.36 491.66
  Q 598.79 497.73 609.07 502.19
  Q 629.61 511.11 650.10 520.19
  Q 660.71 524.90 673.98 532.28
  Q 687.95 540.06 700.25 550.24
  Q 730.94 575.66 735.40 615.85
  Q 737.65 636.06 734.30 653.61
  Q 728.84 682.27 709.33 701.95
  Q 701.03 710.33 692.36 715.84
  Q 689.71 717.53 683.18 720.90
  Q 678.25 723.45 673.71 725.27
  Q 665.02 728.76 655.99 731.31
  C 654.85 731.63 653.81 731.57 652.67 731.90
  Q 645.75 733.89 638.85 734.65
  Q 638.25 734.72 637.65 734.59
  Q 637.23 734.50 636.88 734.73
  Q 636.48 734.99 636.01 735.05
  Q 602.04 739.27 568.97 731.88
  Q 564.93 730.98 561.08 729.77
  Q 558.46 728.95 555.90 728.18
  Q 553.32 727.40 550.76 726.43
  Q 541.43 722.87 532.69 718.39
  Q 530.86 717.45 529.07 716.54
  Q 528.14 716.06 527.43 715.51
  Q 526.85 715.06 526.19 714.73
  Q 525.56 714.42 524.89 714.01
  Q 500.30 698.96 483.73 674.41
  Q 480.89 670.18 478.04 665.22
  Q 476.63 662.76 475.60 660.44
  Q 475.39 659.97 475.83 659.71
  Q 482.16 655.89 489.61 651.86
  Q 489.93 651.69 490.15 651.40
  Q 490.37 651.12 490.69 650.96
  Q 494.39 649.05 498.34 646.66
  Q 499.07 646.23 499.77 645.76
  Q 503.67 643.16 507.83 641.13
  Q 508.80 640.65 509.60 639.93
  C 510.39 639.21 511.55 639.13 512.48 638.51
  Q 516.90 635.59 521.54 633.29
  C 523.41 632.37 524.63 630.81 526.67 630.23
  A 2.36 2.34 14.1 0 0 527.72 629.61
  Q 528.89 628.43 530.53 628.03
  Q 530.72 627.98 530.72 627.79
  Q 530.72 627.74 530.68 627.70
  Q 530.59 627.62 530.70 627.58
  Q 533.33 626.62 535.54 624.96
  A 0.87 0.87 0.0 0 1 536.80 625.19
  Q 543.90 636.72 552.84 646.42
  Q 554.57 648.30 560.61 653.32
  Q 574.11 664.54 590.72 668.07
  Q 610.79 672.33 630.33 667.68
  Q 632.54 667.16 634.62 666.36
  Q 636.82 665.50 638.94 664.59
  Q 649.46 660.03 655.47 651.59
  Q 659.87 645.41 660.81 638.58
  Q 663.66 617.67 647.52 604.80
  Q 639.91 598.73 628.48 593.43
  Q 628.13 593.26 627.95 592.91
  Q 627.84 592.71 627.62 592.61
  Q 624.30 591.11 620.54 589.47
  Q 617.30 588.05 614.09 586.49
  Q 611.40 585.17 608.48 584.14
  Q 605.78 583.19 602.88 581.82
  Q 598.89 579.95 592.50 577.37
  Q 584.59 574.18 564.75 564.39
  Q 552.68 558.44 538.59 547.81
  Q 501.21 519.62 498.09 471.87
  Q 497.00 455.15 500.11 440.17
  Q 502.16 430.25 506.45 420.89
  Q 518.44 394.80 542.76 380.01
  Q 551.97 374.41 562.73 370.48
  Q 571.87 367.15 582.03 365.35
  Q 603.52 361.56 626.07 363.94
  Q 642.48 365.66 656.00 370.64
  Q 680.98 379.82 698.22 400.02
  Q 707.64 411.05 714.03 422.57
  Q 714.29 423.04 713.84 423.33
  Q 700.73 431.60 687.46 440.28
  Q 686.26 441.07 685.02 441.75
  Q 682.68 443.05 680.63 444.75
  Q 680.30 445.03 679.88 445.10
  Q 679.54 445.16 679.25 445.35
  Q 671.41 450.72 663.42 455.54
  Q 663.25 455.64 663.06 455.62
  Q 663.01 455.62 662.96 455.62
  Q 662.87 455.63 662.83 455.70
  Z"
/>
<path fill="#323330" d="
  M 395.34 715.76
  Q 390.84 719.28 386.05 721.61
  Q 384.72 722.26 383.82 723.02
  Q 382.78 723.89 381.60 724.34
  Q 377.96 725.74 374.48 727.49
  Q 373.51 727.97 372.45 728.14
  Q 371.39 728.32 370.38 728.78
  Q 366.80 730.43 362.77 731.42
  Q 357.56 732.70 352.09 734.00
  Q 349.01 734.73 345.88 734.61
  Q 345.48 734.59 345.12 734.77
  Q 344.90 734.88 344.70 735.01
  Q 344.50 735.15 344.25 735.18
  Q 321.29 738.05 299.99 735.04
  Q 285.46 732.98 270.61 727.06
  Q 260.99 723.22 252.98 718.08
  Q 225.56 700.49 210.24 668.64
  A 0.76 0.75 61.9 0 1 210.53 667.67
  L 270.54 631.40
  A 0.65 0.61 -30.5 0 1 271.43 631.60
  Q 276.04 639.89 281.01 647.30
  Q 286.49 655.47 293.36 661.04
  C 303.02 668.87 314.32 670.33 327.06 669.19
  Q 336.34 668.35 342.81 664.60
  Q 351.36 659.65 355.34 649.33
  Q 355.98 647.66 356.59 646.11
  Q 357.19 644.59 357.53 642.81
  Q 358.36 638.41 358.80 634.61
  C 359.20 631.15 359.51 627.63 359.51 624.10
  Q 359.51 496.06 359.50 367.73
  A 0.46 0.45 0.0 0 1 359.96 367.28
  L 433.95 367.28
  Q 434.50 367.28 434.50 367.82
  Q 434.57 499.95 434.46 627.14
  Q 434.45 649.65 426.88 672.75
  C 425.99 675.47 424.58 678.36 423.37 681.02
  Q 413.87 702.00 395.99 715.46
  Q 395.85 715.56 395.67 715.60
  Q 395.49 715.65 395.34 715.76
  Z"
/>
</svg>
