<?xml version="1.0" encoding="UTF-8" standalone="no"?>
<!DOCTYPE svg PUBLIC "-//W3C//DTD SVG 1.1//EN" "http://www.w3.org/Graphics/SVG/1.1/DTD/svg11.dtd">
<svg xmlns="http://www.w3.org/2000/svg" version="1.1" viewBox="0.00 0.00 295.00 171.00">
<path fill="#000000" d="
  M 73.13 0.00
  L 77.00 0.00
  Q 80.07 0.41 83.16 0.72
  C 93.94 1.81 104.16 5.67 113.17 11.91
  Q 136.00 27.74 142.20 54.95
  Q 145.63 70.05 144.98 87.58
  A 0.31 0.30 -89.0 0 1 144.68 87.88
  L 14.05 87.87
  Q 13.48 87.87 13.48 88.44
  C 13.33 104.58 16.13 121.25 25.42 134.87
  C 39.42 155.37 62.29 163.38 86.82 158.40
  Q 95.43 156.66 102.20 153.55
  C 116.35 147.07 124.93 134.27 129.25 119.46
  C 130.88 113.88 134.97 110.63 141.14 112.62
  Q 141.89 112.86 142.66 112.97
  Q 143.28 113.05 143.17 113.67
  Q 141.49 122.62 138.16 130.81
  C 129.60 151.84 112.01 165.20 89.91 169.45
  C 85.88 170.22 80.76 170.32 76.18 171.00
  L 70.08 171.00
  Q 48.80 169.60 32.66 159.09
  Q 14.83 147.47 7.23 126.24
  Q 3.57 116.02 3.01 111.25
  Q 2.02 102.88 0.00 94.66
  L 0.00 88.17
  C 0.28 84.82 -0.04 81.53 0.62 78.31
  Q 2.05 71.36 3.57 63.32
  Q 5.45 53.45 7.72 47.59
  C 16.72 24.37 36.21 6.73 61.00 1.55
  C 64.64 0.79 69.08 0.63 73.13 0.00
  Z
  M 14.68 76.91
  L 132.48 76.71
  A 0.22 0.22 0.0 0 0 132.70 76.49
  L 132.69 75.02
  A 63.15 57.39 89.9 0 0 75.19 11.97
  L 71.73 11.97
  A 63.15 57.39 89.9 0 0 14.45 75.22
  L 14.46 76.69
  A 0.22 0.22 0.0 0 0 14.68 76.91
  Z"
/>
<path fill="#000000" d="
  M 223.29 91.30
  A 0.22 0.22 0.0 0 0 222.94 91.31
  Q 197.70 125.47 172.45 159.68
  Q 164.81 170.03 152.02 166.77
  A 0.25 0.24 25.1 0 1 151.88 166.39
  L 214.68 82.15
  Q 215.01 81.71 214.68 81.28
  L 156.28 5.25
  A 0.20 0.20 0.0 0 1 156.41 4.93
  Q 158.71 4.56 160.97 4.32
  Q 171.83 3.14 178.17 11.66
  Q 200.45 41.62 223.02 72.11
  A 0.30 0.30 0.0 0 0 223.50 72.11
  Q 246.21 41.84 269.04 11.55
  Q 276.60 1.51 288.96 5.19
  A 0.28 0.27 -63.4 0 1 289.10 5.62
  Q 262.03 41.62 235.04 76.42
  Q 230.96 81.69 235.01 87.07
  Q 264.40 126.05 294.31 165.87
  Q 295.00 166.78 293.87 166.93
  C 285.33 168.04 278.83 167.48 273.36 159.96
  Q 251.60 130.01 231.06 101.50
  Q 227.39 96.41 223.29 91.30
  Z"
/>
</svg>
