<?xml version="1.0" encoding="UTF-8" standalone="no"?>
<!DOCTYPE svg PUBLIC "-//W3C//DTD SVG 1.1//EN" "http://www.w3.org/Graphics/SVG/1.1/DTD/svg11.dtd">
<svg xmlns="http://www.w3.org/2000/svg" version="1.1" viewBox="0.00 0.00 219.00 300.00">
<g stroke-width="2.30" fill="none" stroke-linecap="butt">
<path stroke="#fa940f" vector-effect="non-scaling-stroke" d="
  M 87.55 74.02
  Q 87.52 74.75 87.11 75.25
  C 85.92 76.70 85.57 78.25 84.74 79.87
  Q 71.82 104.89 58.18 130.89
  Q 34.38 176.28 9.43 223.95
  Q 7.66 227.34 4.42 232.27
  Q 2.21 235.62 3.36 238.51"
/>
<path stroke="#fdb829" vector-effect="non-scaling-stroke" d="
  M 3.36 238.51
  Q 2.57 239.80 0.54 240.50"
/>
<path stroke="#fdb829" vector-effect="non-scaling-stroke" d="
  M 143.12 98.64
  L 116.82 124.49"
/>
<path stroke="#fa940f" vector-effect="non-scaling-stroke" d="
  M 116.82 124.49
  Q 116.40 123.30 115.47 122.95
  Q 115.01 122.78 114.65 122.43
  Q 113.56 121.33 112.81 119.97
  Q 102.28 100.62 90.52 77.69
  Q 89.66 76.01 88.57 73.88"
/>
<path stroke="#f9a625" vector-effect="non-scaling-stroke" d="
  M 3.36 238.51
  L 116.82 124.49"
/>
</g>
<path fill="#fea612" d="
  M 42.70 0.00
  L 45.49 0.00
  Q 48.76 1.15 50.88 5.12
  Q 69.24 39.55 87.55 74.02
  Q 87.52 74.75 87.11 75.25
  C 85.92 76.70 85.57 78.25 84.74 79.87
  Q 71.82 104.89 58.18 130.89
  Q 34.38 176.28 9.43 223.95
  Q 7.66 227.34 4.42 232.27
  Q 2.21 235.62 3.36 238.51
  Q 2.57 239.80 0.54 240.50
  Q 18.85 123.00 37.26 5.50
  Q 37.88 1.51 42.70 0.00
  Z"
/>
<path fill="#fea612" d="
  M 143.12 98.64
  L 116.82 124.49
  Q 116.40 123.30 115.47 122.95
  Q 115.01 122.78 114.65 122.43
  Q 113.56 121.33 112.81 119.97
  Q 102.28 100.62 90.52 77.69
  Q 89.66 76.01 88.57 73.88
  Q 99.34 52.67 103.39 45.43
  Q 104.95 42.64 108.77 42.27
  Q 113.53 41.79 115.99 46.57
  Q 129.47 72.64 143.12 98.64
  Z"
/>
<path fill="#fbca3f" d="
  M 110.87 300.00
  L 107.27 300.00
  Q 102.34 299.07 95.80 295.43
  Q 47.87 268.73 0.00 241.98
  L 0.00 241.50
  Q 0.40 241.31 0.54 240.50
  Q 2.57 239.80 3.36 238.51
  L 116.82 124.49
  L 143.12 98.64
  Q 143.94 98.27 144.36 97.86
  Q 161.82 80.35 178.35 63.60
  C 183.52 58.37 190.55 62.29 190.63 69.08
  Q 190.63 69.37 218.57 241.40
  Q 218.65 241.89 218.21 242.14
  Q 168.86 269.65 119.46 297.14
  C 116.66 298.69 113.90 299.35 110.87 300.00
  Z"
/>
<path fill="#f6820b" d="
  M 87.55 74.02
  Q 88.59 74.81 88.57 73.88
  Q 89.66 76.01 90.52 77.69
  Q 102.28 100.62 112.81 119.97
  Q 113.56 121.33 114.65 122.43
  Q 115.01 122.78 115.47 122.95
  Q 116.40 123.30 116.82 124.49
  L 3.36 238.51
  Q 2.21 235.62 4.42 232.27
  Q 7.66 227.34 9.43 223.95
  Q 34.38 176.28 58.18 130.89
  Q 71.82 104.89 84.74 79.87
  C 85.57 78.25 85.92 76.70 87.11 75.25
  Q 87.52 74.75 87.55 74.02
  Z"
/>
</svg>
