<?xml version="1.0" encoding="UTF-8" standalone="no"?>
<!DOCTYPE svg PUBLIC "-//W3C//DTD SVG 1.1//EN" "http://www.w3.org/Graphics/SVG/1.1/DTD/svg11.dtd">
<svg xmlns="http://www.w3.org/2000/svg" version="1.1" viewBox="0.00 0.00 436.00 573.00">
<path fill="#000000" d="
  M 60.45 87.90
  Q 56.81 87.33 52.73 87.45
  Q 49.96 87.54 46.91 88.44
  Q 43.51 89.44 40.13 88.61
  C 33.92 87.08 35.45 79.84 39.11 76.58
  C 43.99 72.26 49.09 72.33 55.14 73.29
  C 58.39 73.81 62.85 72.85 65.79 71.19
  Q 74.08 66.51 73.49 55.57
  C 73.36 53.20 70.18 51.99 72.64 49.10
  C 73.75 47.80 75.72 46.66 77.29 46.05
  Q 83.77 43.56 90.46 40.99
  C 96.78 38.56 100.64 33.15 95.04 27.11
  C 91.40 23.20 88.69 15.72 90.50 10.42
  C 93.09 2.82 102.37 2.64 108.78 4.91
  C 117.59 8.03 122.19 15.34 117.08 24.39
  C 115.78 26.69 113.70 28.52 112.87 31.01
  C 110.47 38.21 115.57 41.42 121.45 42.99
  Q 127.83 44.69 133.87 46.09
  Q 136.64 46.72 139.30 48.18
  C 144.55 51.04 142.49 56.85 139.37 60.38
  A 2.21 2.21 0.0 0 0 139.20 63.08
  C 145.11 71.74 154.90 74.93 163.93 79.54
  C 169.50 82.38 174.54 87.14 172.22 94.08
  A 0.93 0.93 0.0 0 0 172.74 95.23
  C 181.38 98.75 186.37 105.94 192.27 112.82
  Q 196.05 117.21 200.67 119.60
  Q 204.00 121.33 206.56 123.30
  C 215.42 130.13 223.69 135.77 232.22 143.76
  C 238.00 149.18 242.39 155.62 243.31 163.78
  A 1.24 1.24 0.0 0 1 242.36 165.12
  C 236.14 166.57 229.79 163.36 224.61 159.78
  C 218.78 155.74 213.26 151.23 206.92 148.09
  C 198.10 143.72 193.04 147.62 189.66 155.31
  Q 188.71 157.46 188.21 159.80
  C 186.68 166.89 185.37 174.14 183.78 181.04
  Q 177.85 206.83 172.91 231.78
  Q 167.61 258.48 166.47 281.73
  Q 165.67 298.13 167.12 318.82
  Q 167.33 321.81 167.73 324.70
  C 168.09 327.30 168.30 329.82 168.84 332.34
  Q 172.60 349.82 179.22 366.22
  Q 184.87 380.23 193.22 398.75
  Q 200.35 414.56 209.32 427.24
  Q 220.92 443.63 237.82 460.85
  Q 245.12 468.30 252.37 474.20
  Q 277.44 494.62 307.33 509.50
  Q 307.79 509.73 308.28 509.57
  Q 310.73 508.80 312.84 507.53
  Q 321.55 502.28 329.71 498.02
  C 337.82 493.80 348.15 490.36 355.07 497.64
  C 357.67 500.37 351.59 505.63 349.55 507.05
  Q 343.52 511.25 337.48 515.45
  C 335.37 516.92 335.56 519.71 337.87 520.86
  Q 344.39 524.13 351.21 524.58
  Q 353.06 524.70 354.82 525.37
  C 359.43 527.13 363.60 529.89 367.70 532.62
  C 375.10 537.56 381.38 538.18 389.21 533.73
  Q 389.81 533.39 390.18 533.97
  C 393.89 539.94 401.01 542.47 407.63 544.04
  Q 414.22 545.61 420.41 547.13
  Q 425.14 548.29 428.51 550.78
  C 433.65 554.58 429.96 562.16 427.18 566.33
  A 1.26 1.25 11.4 0 1 426.38 566.86
  Q 420.23 568.08 413.93 567.36
  Q 407.39 566.61 400.11 565.70
  Q 390.27 564.46 381.69 567.79
  Q 381.21 567.98 380.81 567.65
  Q 371.90 560.25 360.61 560.23
  Q 353.96 560.22 340.50 560.72
  Q 332.30 561.02 324.97 558.79
  Q 321.00 557.58 317.02 557.11
  Q 299.58 555.02 280.55 550.81
  Q 265.79 547.54 253.10 544.10
  Q 244.89 541.87 235.18 538.23
  Q 206.91 527.66 187.34 519.44
  Q 166.61 510.73 149.46 500.71
  Q 136.81 493.33 120.89 481.63
  Q 106.77 471.26 92.64 456.44
  Q 80.48 443.68 75.17 436.67
  Q 68.06 427.28 60.77 416.82
  Q 49.99 401.37 43.48 388.35
  Q 39.87 381.12 36.27 371.83
  Q 32.83 362.91 29.81 354.78
  Q 8.26 296.64 4.02 234.39
  Q 3.36 224.62 3.44 215.35
  C 3.58 200.11 4.72 184.66 5.40 169.60
  Q 5.93 157.97 5.20 142.62
  Q 4.91 136.52 4.12 132.25
  Q 2.67 124.33 2.88 121.82
  Q 3.55 113.86 6.85 108.47
  Q 12.73 98.86 24.27 94.03
  Q 33.61 90.13 42.10 90.43
  Q 49.26 90.69 56.37 89.69
  Q 58.55 89.38 60.52 88.57
  Q 61.69 88.10 60.45 87.90
  Z
  M 101.21 7.02
  C 95.79 9.43 91.89 15.76 95.85 21.32
  Q 96.37 22.05 96.46 21.16
  Q 96.56 20.26 96.17 19.30
  Q 95.59 17.85 95.89 16.60
  A 2.36 2.36 0.0 0 1 98.96 14.91
  Q 103.97 16.63 108.61 18.36
  Q 110.69 19.14 112.90 18.69
  Q 113.59 18.55 113.74 17.86
  C 115.33 10.47 108.32 3.86 101.21 7.02
  Z
  M 105.8622 42.5890
  A 2.02 0.83 -18.8 0 0 103.6825 42.4543
  A 2.02 0.83 -18.8 0 0 102.0378 43.8910
  A 2.02 0.83 -18.8 0 0 104.2175 44.0257
  A 2.02 0.83 -18.8 0 0 105.8622 42.5890
  Z
  M 125.7648 51.0073
  A 5.80 2.20 8.6 0 0 120.3590 47.9647
  A 5.80 2.20 8.6 0 0 114.2952 49.2727
  A 5.80 2.20 8.6 0 0 119.7010 52.3153
  A 5.80 2.20 8.6 0 0 125.7648 51.0073
  Z
  M 131.39 76.42
  Q 133.14 77.13 134.54 78.91
  Q 135.00 79.48 135.41 78.89
  Q 135.88 78.22 135.56 77.51
  Q 133.06 72.09 127.32 68.42
  Q 121.77 64.87 116.84 61.38
  A 0.75 0.73 36.6 0 0 115.83 61.52
  C 113.27 64.77 114.03 69.88 115.39 73.59
  C 117.09 78.22 120.01 84.06 125.07 85.37
  C 130.92 86.90 130.02 80.72 130.08 77.28
  A 0.95 0.95 0.0 0 1 131.39 76.42
  Z
  M 90.20 72.98
  C 97.28 70.83 105.84 76.33 112.40 78.17
  A 0.84 0.83 86.0 0 0 113.39 77.03
  Q 111.91 73.64 109.38 70.98
  A 1.28 1.28 0.0 0 0 108.54 70.57
  Q 97.58 69.63 86.20 70.93
  Q 85.54 71.01 85.00 71.50
  A 0.47 0.47 0.0 0 0 85.17 72.30
  C 86.82 72.81 88.42 73.51 90.20 72.98
  Z
  M 142.19 98.52
  Q 144.13 102.70 147.28 106.50
  A 0.86 0.85 -38.9 0 0 148.47 106.62
  Q 149.01 106.19 148.82 105.47
  Q 147.57 100.87 145.77 97.02
  A 0.85 0.84 -32.9 0 1 145.99 96.02
  C 147.30 94.90 149.52 93.35 149.52 91.46
  A 1.05 1.03 -75.0 0 0 149.01 90.56
  Q 146.77 89.21 144.03 89.00
  C 132.89 88.17 121.79 88.81 110.36 88.02
  Q 102.77 87.49 83.31 87.17
  Q 77.67 87.08 72.03 87.59
  A 0.58 0.57 85.9 0 0 71.51 88.20
  Q 71.54 88.76 72.02 89.05
  Q 73.00 89.62 74.07 89.56
  Q 87.45 88.87 99.03 90.46
  C 106.27 91.45 115.06 94.64 118.84 101.31
  Q 120.08 103.50 119.91 100.99
  C 119.81 99.44 119.06 93.66 121.93 93.59
  C 124.77 93.51 126.52 99.97 127.06 102.26
  C 128.17 106.94 132.67 113.53 137.87 108.36
  Q 141.62 104.65 141.72 98.62
  Q 141.73 97.54 142.19 98.52
  Z
  M 39.58 118.47
  C 34.23 118.32 29.49 120.35 31.48 126.75
  Q 33.25 132.48 39.04 137.16
  C 43.55 140.82 49.75 142.02 50.23 133.84
  Q 50.27 133.17 50.93 133.33
  Q 57.10 134.86 64.84 135.48
  Q 68.08 135.75 66.59 138.63
  Q 65.97 139.82 64.77 140.86
  A 0.51 0.51 0.0 0 0 65.05 141.76
  C 72.74 142.63 80.08 142.13 87.91 140.57
  Q 101.73 137.83 108.00 137.18
  Q 114.21 136.55 121.95 138.83
  Q 127.15 140.36 130.12 140.84
  Q 144.64 143.17 156.22 144.32
  Q 165.26 145.22 175.06 144.93
  Q 178.94 144.82 182.85 145.11
  C 192.55 145.83 207.78 139.99 207.25 127.83
  Q 207.16 125.59 205.28 124.91
  Q 186.25 118.02 165.48 115.08
  Q 143.93 112.02 127.99 111.88
  C 119.78 111.81 111.59 111.89 102.99 112.00
  Q 85.18 112.24 64.23 109.93
  Q 62.65 109.76 61.24 110.27
  A 1.69 1.68 57.2 0 0 60.64 113.06
  L 66.46 118.73
  A 0.54 0.53 -27.6 0 1 66.17 119.64
  L 62.81 120.19
  A 1.47 1.47 0.0 0 0 61.88 122.52
  Q 63.80 125.09 66.33 127.49
  A 1.61 1.61 0.0 0 1 65.64 130.21
  C 63.54 130.78 61.41 130.99 59.34 129.90
  C 52.38 126.23 42.55 119.98 49.16 111.13
  Q 49.69 110.42 48.81 110.30
  C 37.69 108.77 18.05 106.85 13.21 119.85
  C 11.27 125.06 12.73 131.49 14.69 136.49
  Q 16.32 140.65 16.95 136.23
  C 18.60 124.71 24.57 108.09 39.75 117.93
  Q 40.64 118.50 39.58 118.47
  Z
  M 30.13 136.41
  L 25.19 135.79
  A 0.28 0.28 0.0 0 0 24.88 136.04
  L 24.85 136.21
  A 2.77 2.76 -82.9 0 0 27.25 139.30
  L 27.27 139.30
  A 2.77 2.76 -82.9 0 0 30.35 136.89
  L 30.37 136.72
  A 0.28 0.28 0.0 0 0 30.13 136.41
  Z
  M 234.18 156.14
  C 235.77 157.46 235.73 159.40 236.44 161.18
  A 1.06 1.06 0.0 0 0 238.22 161.49
  C 239.75 159.76 240.18 157.32 239.02 155.26
  Q 235.96 149.86 230.32 148.51
  A 0.98 0.96 -84.4 0 0 229.13 149.50
  C 229.22 151.59 232.53 154.76 234.18 156.14
  Z
  M 91.0677 150.5175
  A 1.58 1.27 -17.4 0 0 89.1802 149.7781
  A 1.58 1.27 -17.4 0 0 88.0523 151.4625
  A 1.58 1.27 -17.4 0 0 89.9398 152.2019
  A 1.58 1.27 -17.4 0 0 91.0677 150.5175
  Z
  M 151.20 269.76
  Q 152.57 264.60 157.13 258.49
  A 1.31 1.31 0.0 0 1 159.45 258.96
  L 159.82 260.53
  A 0.42 0.42 0.0 0 0 160.51 260.74
  C 162.63 258.82 165.34 255.72 165.12 252.78
  C 164.99 250.84 162.43 250.24 160.87 250.37
  A 0.27 0.27 0.0 0 1 160.64 249.94
  Q 166.08 243.03 167.57 234.25
  Q 167.81 232.83 167.43 231.12
  Q 167.33 230.68 166.97 230.42
  Q 166.52 230.10 165.97 230.22
  A 0.55 0.55 0.0 0 1 165.36 229.45
  C 169.66 220.49 173.70 210.00 174.79 200.14
  Q 175.05 197.70 174.31 195.37
  Q 174.09 194.70 173.42 194.48
  Q 172.74 194.25 172.04 194.27
  Q 171.30 194.28 171.77 193.70
  Q 173.28 191.82 174.48 189.54
  Q 180.09 178.94 182.84 168.89
  Q 183.53 166.35 183.73 163.74
  C 184.10 158.73 184.02 152.55 177.25 152.52
  C 175.48 152.51 173.80 153.12 172.07 153.48
  Q 170.43 153.82 168.32 153.42
  C 158.90 151.61 149.48 150.64 140.06 151.61
  A 0.38 0.38 0.0 0 0 139.84 152.27
  Q 143.04 155.23 145.47 158.50
  Q 147.48 161.20 144.36 159.92
  C 139.05 157.74 133.77 154.20 128.68 151.19
  A 0.56 0.55 26.4 0 0 127.89 151.45
  Q 125.18 158.05 118.56 155.79
  Q 113.87 154.19 109.34 152.26
  Q 109.21 152.20 109.15 152.33
  L 109.02 152.59
  Q 108.83 153.00 109.21 153.24
  C 113.64 156.12 108.12 159.18 105.47 159.97
  C 99.63 161.71 89.99 162.16 85.35 157.74
  A 1.08 1.06 -27.0 0 0 84.47 157.46
  C 79.08 158.18 78.53 162.64 79.48 167.01
  Q 80.61 172.25 81.51 177.49
  C 81.88 179.63 81.11 181.92 78.95 182.77
  Q 77.46 183.36 76.65 184.63
  Q 76.31 185.15 75.70 185.22
  Q 74.25 185.37 72.85 185.03
  C 66.75 183.52 57.57 181.36 56.12 190.48
  Q 55.88 192.01 54.70 191.00
  C 52.77 189.37 49.83 189.64 49.30 192.44
  C 48.56 196.43 49.59 207.39 56.44 204.39
  Q 57.04 204.13 57.59 204.49
  C 65.18 209.51 69.49 214.76 67.93 224.09
  Q 67.85 224.54 65.56 231.34
  Q 64.28 235.13 63.09 238.50
  Q 62.55 240.02 61.20 239.78
  C 59.53 239.48 58.33 237.17 57.88 235.76
  C 56.27 230.68 55.26 220.32 64.07 222.56
  A 0.42 0.42 0.0 0 0 64.57 222.02
  C 63.56 218.95 61.62 211.29 58.02 210.43
  C 56.30 210.02 53.84 211.34 52.51 212.27
  Q 48.25 215.26 43.42 218.03
  A 0.81 0.80 54.9 0 0 43.21 219.25
  C 45.76 222.21 58.78 236.37 47.01 237.22
  Q 44.28 237.42 46.72 238.65
  Q 51.85 241.21 53.71 245.63
  C 56.04 251.17 56.10 257.33 55.73 263.29
  C 55.62 265.11 56.96 266.77 58.30 267.84
  C 62.26 271.02 66.46 260.47 70.97 268.59
  Q 71.08 268.79 71.25 268.64
  L 71.60 268.35
  Q 71.80 268.17 71.67 267.94
  Q 66.71 259.15 60.50 249.17
  Q 59.17 247.03 58.56 244.63
  A 1.22 1.22 0.0 0 1 60.10 243.16
  Q 63.40 244.17 66.32 246.00
  Q 67.01 246.43 67.14 245.63
  Q 68.13 239.50 69.44 233.30
  Q 70.21 229.66 73.75 229.97
  Q 74.32 230.02 74.80 229.71
  Q 75.24 229.42 75.71 229.18
  Q 77.38 228.30 76.63 230.03
  Q 74.42 235.13 72.17 240.83
  Q 70.99 243.83 70.79 246.35
  Q 70.53 249.72 73.89 248.74
  Q 78.94 247.28 83.48 244.11
  C 85.15 242.95 87.21 242.88 88.19 245.05
  C 89.57 248.11 90.28 251.21 91.74 254.20
  C 93.46 257.72 95.18 266.01 88.35 264.84
  C 84.48 264.18 80.62 260.93 77.90 257.87
  Q 76.28 256.04 76.76 258.43
  Q 77.34 261.37 79.07 263.96
  Q 82.87 269.69 85.85 274.79
  Q 89.23 280.54 86.51 287.30
  Q 85.74 289.21 85.86 291.30
  Q 86.01 294.12 86.74 296.32
  C 88.14 300.59 91.97 300.05 95.64 299.95
  Q 96.33 299.94 96.32 300.62
  C 96.30 302.32 96.20 305.09 97.11 306.56
  Q 97.96 307.92 98.93 306.64
  Q 101.17 303.68 102.42 299.72
  Q 102.62 299.05 103.24 299.39
  C 109.67 302.93 112.68 307.39 112.70 314.29
  C 112.71 316.64 112.40 322.20 114.88 323.49
  A 1.38 1.37 -74.0 0 0 116.88 322.38
  C 117.37 316.58 116.09 310.74 115.27 305.07
  Q 115.14 304.12 116.02 304.50
  Q 116.28 304.61 116.40 304.85
  Q 119.52 311.25 123.21 318.26
  Q 125.83 323.24 125.77 327.79
  C 125.66 336.14 115.65 335.46 110.13 333.48
  Q 107.21 332.44 109.40 334.63
  Q 111.15 336.38 112.41 338.54
  Q 115.32 343.52 118.57 347.83
  Q 121.50 351.71 126.12 353.27
  C 131.84 355.19 137.18 368.93 134.93 374.47
  C 132.67 380.03 126.57 376.48 123.42 374.02
  Q 121.42 372.46 119.50 370.13
  Q 113.16 362.42 104.25 357.79
  A 0.65 0.64 -69.6 0 0 103.32 358.22
  Q 103.16 358.91 103.58 359.52
  C 106.11 363.13 109.09 366.58 112.53 369.46
  C 126.32 381.03 140.11 392.07 152.46 404.60
  Q 156.68 408.89 159.81 413.42
  C 164.81 420.64 168.03 428.27 171.88 435.90
  Q 172.51 437.15 173.47 438.15
  Q 175.05 439.79 172.77 439.70
  Q 162.16 439.27 153.98 431.79
  C 152.82 430.73 151.53 428.32 153.82 427.49
  Q 155.50 426.88 157.18 427.08
  Q 160.59 427.49 157.59 425.81
  Q 152.26 422.84 146.94 420.28
  Q 145.63 419.65 144.31 420.00
  A 1.48 1.47 -8.2 0 0 143.21 421.46
  Q 143.38 430.14 150.77 434.96
  C 159.07 440.38 167.83 443.43 177.10 446.69
  A 0.69 0.69 0.0 0 1 177.29 447.89
  L 171.18 452.54
  A 0.73 0.72 46.8 0 0 171.15 453.67
  Q 172.19 454.58 173.47 455.04
  Q 175.59 455.81 173.38 456.25
  Q 172.21 456.49 171.28 457.20
  A 1.88 1.88 0.0 0 0 171.13 460.06
  C 172.67 461.51 176.13 464.10 176.79 466.03
  Q 176.99 466.62 177.60 466.50
  C 187.04 464.65 187.72 470.47 189.84 477.49
  C 192.17 485.20 199.48 480.80 203.68 478.09
  C 204.86 477.33 206.78 476.62 208.15 476.30
  Q 211.32 475.54 208.58 477.30
  Q 205.80 479.08 203.19 480.98
  Q 199.32 483.78 204.02 482.94
  Q 207.55 482.32 211.28 481.33
  C 220.96 478.77 231.94 485.10 239.57 491.23
  Q 248.03 498.04 256.57 505.24
  Q 257.98 506.42 259.98 506.87
  Q 261.75 507.26 264.92 509.43
  Q 269.19 512.37 272.79 514.64
  C 276.07 516.71 279.77 518.35 283.53 518.27
  Q 286.90 518.19 290.96 517.65
  A 0.94 0.94 0.0 0 0 291.77 516.59
  C 291.74 516.32 291.49 515.83 291.29 515.65
  Q 288.53 513.14 285.01 511.16
  Q 276.48 506.37 269.62 501.76
  C 267.58 500.38 262.68 496.17 267.43 494.37
  Q 268.62 493.92 267.40 493.59
  C 266.49 493.34 265.40 493.52 264.45 493.39
  Q 253.06 491.78 245.50 483.59
  Q 238.50 476.00 234.44 465.42
  Q 233.84 463.88 232.46 463.12
  C 216.09 454.09 198.53 439.20 191.59 421.31
  Q 189.86 416.84 189.44 413.51
  Q 189.23 411.85 190.95 411.94
  A 0.58 0.58 0.0 0 0 191.55 411.26
  Q 190.80 407.09 188.85 403.75
  Q 182.82 393.42 179.66 383.04
  Q 176.79 373.61 173.86 362.19
  Q 173.30 360.05 171.94 358.35
  C 169.22 354.96 168.11 350.91 166.70 346.93
  A 0.90 0.90 0.0 0 0 165.73 346.35
  Q 165.12 346.43 164.85 347.01
  Q 163.79 349.32 162.94 351.66
  Q 162.54 352.80 162.51 351.59
  C 162.35 344.82 160.62 337.91 154.94 333.96
  Q 154.08 333.37 153.02 333.49
  A 0.54 0.53 -82.3 0 1 152.47 332.76
  C 154.07 328.73 156.68 327.22 160.63 326.65
  A 1.82 1.82 0.0 0 0 162.09 324.25
  C 161.35 322.12 160.15 320.54 160.39 318.13
  C 160.74 314.66 161.00 310.95 160.89 307.45
  Q 160.24 286.72 162.60 267.03
  Q 162.83 265.09 162.40 263.26
  A 0.73 0.71 -6.5 0 0 161.69 262.71
  C 158.14 262.74 153.31 267.78 151.98 270.08
  Q 150.38 272.84 151.20 269.76
  Z
  M 67.78 165.74
  Q 68.18 166.68 67.23 166.31
  L 61.81 164.19
  Q 57.60 162.54 59.89 166.44
  Q 61.53 169.24 65.46 169.88
  C 68.60 170.40 76.10 169.53 75.12 164.74
  C 74.74 162.87 72.13 161.40 70.49 160.75
  Q 64.56 158.43 58.35 156.35
  A 0.70 0.70 0.0 0 0 57.47 157.24
  Q 57.59 157.58 58.20 158.06
  Q 62.88 161.74 67.27 165.09
  Q 67.63 165.37 67.78 165.74
  Z
  M 45.75 159.55
  A 2.13 2.13 0.0 0 0 44.98 159.30
  L 41.78 158.92
  A 2.13 2.13 0.0 0 0 39.80 162.29
  L 41.70 164.90
  A 2.13 2.13 0.0 0 0 44.32 165.57
  L 47.22 164.21
  A 2.13 2.13 0.0 0 0 47.34 160.42
  L 45.75 159.55
  Z
  M 17.4021 163.7489
  A 1.58 0.95 92.1 0 0 18.4094 162.2048
  A 1.58 0.95 92.1 0 0 17.5179 160.5911
  A 1.58 0.95 92.1 0 0 16.5106 162.1352
  A 1.58 0.95 92.1 0 0 17.4021 163.7489
  Z
  M 11.3536 166.1798
  A 1.33 0.81 108.7 0 0 12.5472 165.1797
  A 1.33 0.81 108.7 0 0 12.2064 163.6602
  A 1.33 0.81 108.7 0 0 11.0128 164.6603
  A 1.33 0.81 108.7 0 0 11.3536 166.1798
  Z
  M 52.97 168.66
  A 0.97 0.97 0.0 0 0 52.52 168.52
  L 50.45 168.41
  A 0.97 0.97 0.0 0 0 49.85 170.17
  L 52.47 171.97
  A 0.97 0.97 0.0 0 0 53.72 171.84
  L 54.53 170.98
  A 0.97 0.97 0.0 0 0 54.33 169.49
  L 52.97 168.66
  Z
  M 47.04 171.76
  A 1.15 1.15 0.0 0 0 45.81 170.47
  L 44.88 170.54
  A 1.15 1.15 0.0 0 0 44.33 170.73
  L 43.23 171.47
  A 1.15 1.15 0.0 0 0 43.50 173.51
  L 45.33 174.15
  A 1.15 1.15 0.0 0 0 46.84 173.21
  L 47.04 171.76
  Z
  M 70.4258 176.9240
  A 1.46 0.86 107.3 0 0 71.6811 175.7857
  A 1.46 0.86 107.3 0 0 71.2942 174.1360
  A 1.46 0.86 107.3 0 0 70.0389 175.2743
  A 1.46 0.86 107.3 0 0 70.4258 176.9240
  Z
  M 40.35 182.28
  A 1.31 1.31 0.0 0 0 39.95 181.98
  L 34.93 179.65
  A 1.31 1.31 0.0 0 0 33.48 181.79
  L 38.77 186.77
  A 1.31 1.31 0.0 0 0 40.02 187.08
  L 41.76 186.58
  A 1.31 1.31 0.0 0 0 42.36 184.43
  L 40.35 182.28
  Z
  M 19.26 191.20
  C 19.24 188.41 19.73 186.60 18.54 183.76
  A 1.57 1.57 0.0 0 0 16.17 183.10
  Q 14.99 183.95 14.92 185.66
  Q 14.77 189.66 18.59 191.62
  A 0.46 0.46 0.0 0 0 19.26 191.20
  Z
  M 38.24 195.02
  C 38.27 191.90 37.69 189.07 34.37 188.25
  Q 32.77 187.85 31.54 188.59
  A 1.90 1.90 0.0 0 0 31.09 191.46
  Q 33.44 194.19 37.42 195.60
  Q 38.23 195.89 38.24 195.02
  Z
  M 33.9021 199.9709
  A 3.79 1.12 42.1 0 0 31.8409 196.5990
  A 3.79 1.12 42.1 0 0 28.2779 194.8891
  A 3.79 1.12 42.1 0 0 30.3391 198.2610
  A 3.79 1.12 42.1 0 0 33.9021 199.9709
  Z
  M 17.06 220.62
  C 16.94 224.99 17.02 229.28 20.26 232.36
  A 0.55 0.55 0.0 0 0 21.18 232.07
  C 23.12 222.73 21.18 211.24 18.42 202.06
  Q 18.31 201.70 18.00 201.49
  Q 17.62 201.24 17.24 201.46
  Q 16.84 201.69 16.78 202.15
  C 15.95 208.54 17.23 214.36 17.06 220.62
  Z
  M 16.39 253.52
  C 17.33 257.91 19.22 262.62 21.74 266.37
  Q 24.50 270.49 23.01 265.76
  C 21.64 261.40 20.74 256.80 20.68 252.16
  C 20.58 244.80 20.61 236.65 17.71 229.92
  Q 16.83 227.90 16.75 225.60
  Q 16.44 217.00 13.02 207.69
  Q 12.43 206.08 11.36 204.61
  A 0.49 0.49 0.0 0 0 10.66 204.52
  Q 10.16 204.92 10.14 205.58
  C 9.99 210.06 10.20 214.56 11.27 219.03
  Q 12.78 225.35 13.31 231.66
  Q 14.37 244.14 16.39 253.52
  Z
  M 45.3249 232.1427
  A 2.50 0.88 10.9 0 0 43.0364 230.8059
  A 2.50 0.88 10.9 0 0 40.4151 231.1973
  A 2.50 0.88 10.9 0 0 42.7036 232.5341
  A 2.50 0.88 10.9 0 0 45.3249 232.1427
  Z
  M 48.73 244.09
  L 40.60 241.99
  A 0.01 0.01 0.0 0 0 40.58 242.00
  L 40.57 242.04
  A 4.03 3.17 14.5 0 0 43.68 246.11
  L 44.03 246.20
  A 4.03 3.17 14.5 0 0 48.73 244.14
  L 48.74 244.11
  A 0.01 0.01 0.0 0 0 48.73 244.09
  Z
  M 71.20 255.50
  L 71.41 252.27
  A 0.51 0.51 0.0 0 0 70.94 251.73
  L 70.83 251.72
  A 2.32 2.00 3.7 0 0 68.38 253.57
  L 68.36 253.82
  A 2.32 2.00 3.7 0 0 70.55 255.97
  L 70.66 255.98
  A 0.51 0.51 0.0 0 0 71.20 255.50
  Z
  M 68.68 405.93
  A 2.26 2.24 -89.7 0 1 67.61 404.84
  Q 65.28 399.69 62.07 394.42
  C 60.76 392.28 60.06 389.70 63.02 388.32
  Q 64.04 387.84 62.92 387.71
  Q 55.96 386.90 53.80 379.92
  Q 52.05 374.27 50.77 368.50
  Q 50.43 366.96 49.46 365.73
  A 1.69 1.65 -10.5 0 0 48.61 365.16
  C 47.35 364.78 46.07 364.48 45.05 363.59
  Q 39.78 359.02 39.76 351.56
  C 39.73 343.49 39.74 334.86 35.01 328.02
  C 33.56 325.92 31.90 324.41 31.70 321.64
  Q 31.27 315.47 28.08 308.34
  C 25.09 301.65 21.98 294.97 20.13 287.97
  Q 19.01 283.73 18.89 280.77
  C 18.52 271.69 16.57 263.65 13.69 254.93
  Q 13.46 254.24 12.93 253.81
  Q 11.78 252.90 11.86 254.36
  Q 12.97 276.66 19.13 297.53
  Q 23.90 313.70 30.25 332.82
  Q 31.79 337.47 32.81 342.14
  C 37.04 361.60 42.93 380.73 55.08 396.24
  Q 57.44 399.26 59.02 402.29
  C 62.06 408.14 64.80 414.62 69.39 419.00
  Q 74.23 423.61 80.05 425.83
  A 1.69 1.68 13.0 0 0 82.33 424.41
  Q 82.48 422.68 81.93 421.26
  C 79.33 414.58 74.12 408.58 68.68 405.93
  Z
  M 86.9645 259.0996
  A 1.45 0.80 29.3 0 0 86.0915 257.6923
  A 1.45 0.80 29.3 0 0 84.4355 257.6804
  A 1.45 0.80 29.3 0 0 85.3085 259.0877
  A 1.45 0.80 29.3 0 0 86.9645 259.0996
  Z
  M 54.81 281.48
  Q 54.42 281.44 54.18 281.75
  Q 53.86 282.16 54.22 282.52
  Q 57.18 285.47 60.18 287.71
  C 67.42 293.10 73.70 299.89 80.16 305.97
  Q 82.23 307.93 84.95 309.02
  A 1.37 1.36 -82.0 0 0 86.82 307.61
  Q 86.31 302.95 84.26 297.51
  Q 83.74 296.13 82.74 295.12
  C 78.85 291.20 80.32 282.11 81.15 276.94
  Q 81.62 273.97 80.80 271.19
  A 3.30 3.30 0.0 0 0 78.46 268.95
  L 77.53 268.72
  Q 75.73 268.27 76.25 270.05
  Q 77.34 273.83 77.37 278.65
  C 77.39 280.96 75.57 282.54 73.30 281.43
  Q 68.51 279.09 63.61 274.28
  C 61.90 272.61 53.88 266.00 53.39 271.70
  Q 53.03 275.95 55.30 280.77
  A 0.50 0.50 0.0 0 1 54.81 281.48
  Z
  M 51.47 288.27
  L 51.89 286.70
  A 0.48 0.48 0.0 0 0 51.55 286.12
  L 51.09 285.99
  A 3.10 1.20 15.0 0 0 47.78 286.35
  L 47.74 286.52
  A 3.10 1.20 15.0 0 0 50.42 288.48
  L 50.88 288.61
  A 0.48 0.48 0.0 0 0 51.47 288.27
  Z
  M 49.7630 307.0433
  A 4.75 1.32 55.9 0 0 48.1930 302.3700
  A 4.75 1.32 55.9 0 0 44.4370 299.1767
  A 4.75 1.32 55.9 0 0 46.0070 303.8500
  A 4.75 1.32 55.9 0 0 49.7630 307.0433
  Z
  M 60.9014 320.1596
  A 5.78 1.18 46.6 0 0 57.7874 315.1492
  A 5.78 1.18 46.6 0 0 52.9586 311.7604
  A 5.78 1.18 46.6 0 0 56.0726 316.7708
  A 5.78 1.18 46.6 0 0 60.9014 320.1596
  Z
  M 77.17 317.89
  L 72.81 314.47
  A 0.98 0.98 0.0 0 0 71.22 315.26
  L 71.29 318.69
  Q 71.31 319.79 70.42 319.15
  Q 67.94 317.35 66.14 317.00
  A 0.82 0.82 0.0 0 0 65.27 318.22
  L 69.74 325.80
  Q 71.39 328.61 68.28 327.63
  Q 67.56 327.39 66.78 326.99
  Q 64.67 325.90 66.10 327.79
  Q 70.86 334.08 74.83 340.45
  Q 76.59 343.29 73.93 341.27
  Q 70.62 338.77 67.44 335.34
  Q 66.70 334.54 66.30 335.56
  Q 66.22 335.78 66.20 336.01
  Q 66.09 337.25 66.72 338.21
  Q 69.01 341.65 71.84 344.04
  Q 79.46 350.46 85.72 357.86
  C 88.45 361.08 91.65 363.92 94.94 366.59
  Q 95.60 367.12 96.42 367.06
  A 0.63 0.63 0.0 0 0 96.89 366.09
  L 92.47 359.15
  A 0.71 0.71 0.0 0 1 92.62 358.22
  C 95.97 355.48 93.13 351.36 91.17 348.80
  Q 89.55 346.69 89.20 344.34
  A 1.29 1.27 68.2 0 1 89.71 343.12
  L 90.49 342.55
  Q 91.01 342.17 90.55 341.71
  Q 86.63 337.87 83.54 333.39
  A 0.65 0.65 0.0 0 1 83.70 332.49
  Q 84.15 332.16 84.72 332.31
  Q 87.27 332.97 89.66 333.86
  Q 92.30 334.85 90.29 332.89
  C 89.01 331.64 86.79 329.83 86.53 328.01
  Q 86.26 326.15 88.14 326.11
  Q 92.65 326.00 95.95 325.05
  A 0.84 0.84 0.0 0 0 96.16 323.53
  Q 89.12 319.09 83.00 315.22
  Q 80.42 313.58 77.17 312.54
  Q 75.58 312.03 75.81 313.69
  C 76.00 315.07 77.00 316.32 77.53 317.61
  Q 77.88 318.45 77.17 317.89
  Z
  M 44.3422 323.5568
  A 4.77 0.93 59.9 0 0 42.7546 318.9636
  A 4.77 0.93 59.9 0 0 39.5578 315.3032
  A 4.77 0.93 59.9 0 0 41.1454 319.8964
  A 4.77 0.93 59.9 0 0 44.3422 323.5568
  Z
  M 108.22 323.78
  A 1.11 1.11 0.0 0 0 109.99 322.60
  L 109.04 319.54
  A 1.11 1.11 0.0 0 0 108.36 318.82
  L 105.08 317.64
  A 1.11 1.11 0.0 0 0 103.64 319.01
  L 103.94 319.99
  A 1.11 1.11 0.0 0 0 104.30 320.52
  L 108.22 323.78
  Z
  M 83.6942 366.1645
  A 4.85 1.13 27.7 0 0 79.9253 362.9095
  A 4.85 1.13 27.7 0 0 75.1058 361.6555
  A 4.85 1.13 27.7 0 0 78.8747 364.9105
  A 4.85 1.13 27.7 0 0 83.6942 366.1645
  Z
  M 117.5912 364.1366
  A 1.57 1.24 42.3 0 0 117.2645 362.1629
  A 1.57 1.24 42.3 0 0 115.2688 362.0234
  A 1.57 1.24 42.3 0 0 115.5955 363.9971
  A 1.57 1.24 42.3 0 0 117.5912 364.1366
  Z
  M 77.0747 367.3201
  A 1.46 1.01 33.7 0 0 76.4204 365.6697
  A 1.46 1.01 33.7 0 0 74.6453 365.6999
  A 1.46 1.01 33.7 0 0 75.2996 367.3503
  A 1.46 1.01 33.7 0 0 77.0747 367.3201
  Z
  M 93.0280 373.6665
  A 4.19 1.14 33.4 0 0 90.1575 370.4083
  A 4.19 1.14 33.4 0 0 86.0320 369.0535
  A 4.19 1.14 33.4 0 0 88.9025 372.3117
  A 4.19 1.14 33.4 0 0 93.0280 373.6665
  Z
  M 125.2996 373.1144
  A 1.92 1.12 60.7 0 0 125.3367 370.8919
  A 1.92 1.12 60.7 0 0 123.4204 369.7656
  A 1.92 1.12 60.7 0 0 123.3833 371.9881
  A 1.92 1.12 60.7 0 0 125.2996 373.1144
  Z
  M 112.3591 380.2998
  A 7.62 1.52 37.7 0 0 107.2595 374.4373
  A 7.62 1.52 37.7 0 0 100.3009 370.9802
  A 7.62 1.52 37.7 0 0 105.4005 376.8427
  A 7.62 1.52 37.7 0 0 112.3591 380.2998
  Z
  M 84.66 373.95
  C 82.29 372.78 78.04 370.61 75.47 371.42
  A 2.06 2.05 -14.7 0 0 74.07 373.81
  Q 74.87 377.50 77.37 380.73
  C 78.79 382.56 80.96 382.90 82.50 384.55
  C 86.81 389.19 94.20 391.72 100.48 392.53
  C 102.07 392.73 105.73 393.03 106.71 391.38
  Q 107.35 390.31 106.47 389.31
  C 103.68 386.16 100.04 384.69 96.88 381.99
  Q 91.38 377.29 84.66 373.95
  Z
  M 121.45 393.87
  Q 117.28 388.33 111.22 384.32
  Q 110.39 383.77 109.43 383.53
  Q 107.20 382.98 108.41 384.93
  Q 110.34 388.04 112.99 391.07
  C 113.99 392.20 113.96 393.67 115.14 394.80
  C 118.53 398.01 124.51 402.11 129.08 402.03
  A 1.02 1.01 -19.9 0 0 129.86 400.38
  Q 127.61 397.58 124.16 396.02
  Q 122.50 395.27 121.45 393.87
  Z
  M 135.26 395.07
  C 132.90 391.24 127.12 388.07 122.70 387.75
  Q 120.11 387.56 121.99 389.35
  C 123.44 390.73 125.11 391.38 126.66 392.91
  Q 133.73 399.87 142.51 401.75
  Q 148.16 402.95 143.30 399.83
  Q 139.91 397.65 136.27 395.97
  Q 135.63 395.67 135.26 395.07
  Z
  M 89.0635 397.2481
  A 3.48 0.86 37.7 0 0 86.8359 394.4395
  A 3.48 0.86 37.7 0 0 83.5565 392.9919
  A 3.48 0.86 37.7 0 0 85.7841 395.8005
  A 3.48 0.86 37.7 0 0 89.0635 397.2481
  Z
  M 109.3954 403.0820
  A 1.95 0.97 33.0 0 0 108.2883 401.2065
  A 1.95 0.97 33.0 0 0 106.1246 400.9580
  A 1.95 0.97 33.0 0 0 107.2317 402.8335
  A 1.95 0.97 33.0 0 0 109.3954 403.0820
  Z
  M 131.3287 412.1115
  A 7.28 1.73 37.2 0 0 126.5760 406.3320
  A 7.28 1.73 37.2 0 0 119.7313 403.3085
  A 7.28 1.73 37.2 0 0 124.4840 409.0880
  A 7.28 1.73 37.2 0 0 131.3287 412.1115
  Z
  M 129.5236 426.5973
  A 9.44 2.04 39.6 0 0 123.5503 419.0082
  A 9.44 2.04 39.6 0 0 114.9764 414.5627
  A 9.44 2.04 39.6 0 0 120.9497 422.1518
  A 9.44 2.04 39.6 0 0 129.5236 426.5973
  Z
  M 108.56 415.51
  A 0.90 0.90 0.0 0 0 108.26 415.40
  L 106.04 415.05
  A 0.90 0.90 0.0 0 0 105.38 416.67
  L 108.79 419.06
  A 0.90 0.90 0.0 0 0 109.85 419.04
  L 110.85 418.26
  A 0.90 0.90 0.0 0 0 110.75 416.77
  L 108.56 415.51
  Z
  M 129.36 420.66
  L 133.82 423.32
  A 0.20 0.20 0.0 0 0 134.10 423.25
  L 134.18 423.10
  A 2.62 2.21 30.8 0 0 133.07 419.86
  L 132.76 419.68
  A 2.62 2.21 30.8 0 0 129.37 420.24
  L 129.29 420.38
  A 0.20 0.20 0.0 0 0 129.36 420.66
  Z
  M 200.93 423.03
  L 200.71 420.58
  A 0.68 0.68 0.0 0 0 199.97 419.96
  L 199.77 419.98
  A 3.00 1.84 -5.2 0 0 196.95 422.09
  L 196.96 422.23
  A 3.00 1.84 -5.2 0 0 200.12 423.79
  L 200.32 423.77
  A 0.68 0.68 0.0 0 0 200.93 423.03
  Z
  M 104.72 427.84
  L 97.57 427.52
  A 0.16 0.16 0.0 0 0 97.40 427.67
  L 97.40 427.71
  A 3.61 2.76 2.6 0 0 100.88 430.63
  L 101.14 430.64
  A 3.61 2.76 2.6 0 0 104.87 428.05
  L 104.88 428.01
  A 0.16 0.16 0.0 0 0 104.72 427.84
  Z
  M 207.72 436.34
  A 0.61 0.61 0.0 0 0 208.53 435.49
  L 207.32 433.44
  A 0.61 0.61 0.0 0 0 206.95 433.17
  L 205.10 432.67
  A 0.61 0.61 0.0 0 0 204.33 433.32
  L 204.44 434.29
  A 0.61 0.61 0.0 0 0 204.76 434.76
  L 207.72 436.34
  Z
  M 128.8486 437.4109
  A 3.83 1.32 22.1 0 0 125.7966 434.7470
  A 3.83 1.32 22.1 0 0 121.7514 434.5291
  A 3.83 1.32 22.1 0 0 124.8034 437.1930
  A 3.83 1.32 22.1 0 0 128.8486 437.4109
  Z
  M 97.0285 438.3016
  A 1.82 0.96 27.9 0 0 95.8692 436.6016
  A 1.82 0.96 27.9 0 0 93.8115 436.5984
  A 1.82 0.96 27.9 0 0 94.9708 438.2984
  A 1.82 0.96 27.9 0 0 97.0285 438.3016
  Z
  M 138.84 442.10
  Q 136.12 440.35 133.32 440.72
  A 0.82 0.81 -25.9 0 0 132.84 442.09
  Q 135.02 444.35 137.99 445.99
  Q 139.31 446.72 139.73 445.28
  L 139.86 444.84
  A 2.44 2.42 -65.6 0 0 138.84 442.10
  Z
  M 213.0052 442.1262
  A 0.88 0.72 40.9 0 0 212.8114 441.0058
  A 0.88 0.72 40.9 0 0 211.6748 440.9738
  A 0.88 0.72 40.9 0 0 211.8686 442.0942
  A 0.88 0.72 40.9 0 0 213.0052 442.1262
  Z
  M 123.80 473.71
  Q 120.25 471.53 116.39 468.34
  C 110.49 463.44 104.63 458.79 99.19 452.83
  Q 95.40 448.67 91.01 445.42
  Q 90.02 444.69 89.99 445.93
  Q 89.98 446.26 90.67 447.06
  C 96.38 453.70 102.51 460.23 109.32 466.01
  Q 126.77 480.82 140.18 490.22
  Q 149.24 496.58 156.74 500.22
  Q 183.70 513.31 211.85 525.40
  C 220.41 529.08 229.50 532.40 238.30 535.25
  Q 257.48 541.47 275.62 543.25
  Q 275.99 543.28 275.90 542.93
  Q 275.79 542.52 275.45 542.27
  Q 267.16 536.38 257.36 534.42
  Q 248.24 532.60 240.17 530.19
  Q 233.30 528.14 227.10 522.98
  Q 226.74 522.67 226.26 522.62
  Q 210.55 520.76 195.28 514.05
  Q 182.30 508.34 168.19 501.76
  Q 165.52 500.52 163.34 498.74
  Q 148.69 486.83 135.45 476.73
  Q 119.80 464.81 106.00 450.67
  C 103.17 447.77 100.15 445.48 96.65 443.84
  Q 94.81 442.98 95.80 444.75
  Q 96.69 446.33 98.01 447.83
  Q 108.81 460.04 120.77 469.63
  Q 122.80 471.26 124.11 473.40
  Q 124.61 474.21 123.80 473.71
  Z
  M 104.59 443.55
  Q 103.18 443.97 102.97 445.43
  A 0.74 0.74 0.0 0 0 103.56 446.26
  Q 104.24 446.39 104.94 446.28
  Q 105.71 446.15 105.76 445.38
  Q 105.82 444.48 105.29 443.78
  A 0.64 0.64 0.0 0 0 104.59 443.55
  Z
  M 118.07 451.73
  A 1.22 1.22 0.0 0 0 117.64 451.64
  L 116.44 451.61
  A 1.22 1.22 0.0 0 0 115.47 453.62
  L 117.14 455.56
  A 1.22 1.22 0.0 0 0 118.93 455.62
  L 120.14 454.41
  A 1.22 1.22 0.0 0 0 119.74 452.42
  L 118.07 451.73
  Z
  M 169.81 453.86
  L 161.05 452.41
  A 0.16 0.16 0.0 0 0 160.86 452.54
  L 160.86 452.57
  A 4.46 3.21 9.4 0 0 164.73 456.46
  L 165.01 456.51
  A 4.46 3.21 9.4 0 0 169.93 454.07
  L 169.94 454.04
  A 0.16 0.16 0.0 0 0 169.81 453.86
  Z
  M 164.2911 461.9511
  A 6.20 0.70 20.4 0 0 158.7240 459.1339
  A 6.20 0.70 20.4 0 0 152.6689 457.6289
  A 6.20 0.70 20.4 0 0 158.2360 460.4461
  A 6.20 0.70 20.4 0 0 164.2911 461.9511
  Z
  M 137.62 472.88
  A 1.02 1.02 0.0 0 0 137.20 472.72
  L 134.82 472.36
  A 1.02 1.02 0.0 0 0 134.11 474.22
  L 137.39 476.42
  A 1.02 1.02 0.0 0 0 138.83 476.12
  L 139.36 475.26
  A 1.02 1.02 0.0 0 0 139.07 473.88
  L 137.62 472.88
  Z
  M 165.48 491.07
  Q 156.71 485.91 148.11 481.61
  A 0.50 0.50 0.0 0 0 147.39 482.11
  Q 147.41 482.31 147.56 482.45
  Q 152.07 486.64 155.84 489.72
  C 162.33 495.01 173.16 500.94 181.74 503.65
  Q 185.24 504.75 182.95 501.89
  C 181.12 499.60 177.88 497.26 175.05 496.01
  Q 170.22 493.86 165.48 491.07
  Z
  M 253.8291 485.9583
  A 1.48 0.68 -2.0 0 0 252.3263 485.3304
  A 1.48 0.68 -2.0 0 0 250.8709 486.0617
  A 1.48 0.68 -2.0 0 0 252.3737 486.6896
  A 1.48 0.68 -2.0 0 0 253.8291 485.9583
  Z
  M 205.2282 490.2411
  A 1.78 0.82 131.6 0 0 207.0232 489.4544
  A 1.78 0.82 131.6 0 0 207.5918 487.5789
  A 1.78 0.82 131.6 0 0 205.7968 488.3656
  A 1.78 0.82 131.6 0 0 205.2282 490.2411
  Z
  M 219.6500 488.9944
  A 4.08 0.89 -16.6 0 0 215.4857 489.3071
  A 4.08 0.89 -16.6 0 0 211.8300 491.3256
  A 4.08 0.89 -16.6 0 0 215.9943 491.0129
  A 4.08 0.89 -16.6 0 0 219.6500 488.9944
  Z
  M 220.98 497.95
  A 0.94 0.93 80.9 0 1 222.15 498.80
  L 222.34 502.14
  A 1.41 1.41 0.0 0 0 224.02 503.45
  Q 226.74 502.92 229.54 501.13
  Q 230.84 500.30 231.30 498.78
  C 232.22 495.76 234.19 488.91 228.20 490.01
  Q 223.10 490.94 217.35 493.78
  Q 214.75 495.06 213.97 497.84
  A 1.23 1.22 11.5 0 0 215.00 499.39
  C 217.07 499.66 219.08 498.44 220.98 497.95
  Z
  M 190.9605 491.2540
  A 2.52 1.29 -36.7 0 0 188.1691 491.7257
  A 2.52 1.29 -36.7 0 0 186.9195 494.2660
  A 2.52 1.29 -36.7 0 0 189.7109 493.7943
  A 2.52 1.29 -36.7 0 0 190.9605 491.2540
  Z
  M 197.69 496.19
  A 1.03 1.03 0.0 0 0 196.66 495.16
  A 1.03 1.03 0.0 0 0 195.63 496.19
  A 1.03 1.03 0.0 0 0 196.66 497.22
  A 1.03 1.03 0.0 0 0 197.69 496.19
  Z
  M 351.9810 498.4516
  A 1.11 1.11 0.0 0 0 351.3276 497.0243
  L 351.1588 496.9616
  A 1.11 1.11 0.0 0 0 349.7315 497.6150
  L 349.1390 499.2084
  A 1.11 1.11 0.0 0 0 349.7924 500.6357
  L 349.9612 500.6984
  A 1.11 1.11 0.0 0 0 351.3885 500.0450
  L 351.9810 498.4516
  Z
  M 234.43 505.35
  C 237.67 504.42 242.34 503.16 244.67 500.75
  A 1.09 1.09 0.0 0 0 244.15 498.93
  C 241.34 498.22 232.44 498.51 232.51 503.03
  Q 232.53 504.37 233.48 505.15
  Q 233.90 505.50 234.43 505.35
  Z
  M 327.67 503.97
  A 1.00 1.00 0.0 0 0 327.22 502.17
  L 325.82 501.97
  A 1.00 1.00 0.0 0 0 325.50 501.98
  L 323.87 502.29
  A 1.00 1.00 0.0 0 0 323.47 504.08
  L 324.92 505.11
  A 1.00 1.00 0.0 0 0 326.08 505.11
  L 327.67 503.97
  Z
  M 234.53 510.74
  Q 236.06 511.60 237.55 510.68
  Q 239.61 509.42 241.14 507.96
  Q 243.37 505.83 240.29 505.96
  Q 236.85 506.12 233.86 507.99
  Q 232.24 509.02 233.74 510.21
  Q 234.11 510.50 234.53 510.74
  Z
  M 253.6423 508.2643
  A 4.50 1.72 -22.0 0 0 248.8257 508.3552
  A 4.50 1.72 -22.0 0 0 245.2977 511.6357
  A 4.50 1.72 -22.0 0 0 250.1143 511.5448
  A 4.50 1.72 -22.0 0 0 253.6423 508.2643
  Z
  M 235.3692 514.9940
  A 1.26 0.80 2.0 0 0 234.1379 514.1505
  A 1.26 0.80 2.0 0 0 232.8508 514.9060
  A 1.26 0.80 2.0 0 0 234.0821 515.7495
  A 1.26 0.80 2.0 0 0 235.3692 514.9940
  Z
  M 248.43 516.21
  L 249.10 517.81
  A 0.66 0.66 0.0 0 0 249.97 518.17
  L 250.99 517.74
  A 5.47 1.20 -22.6 0 0 255.58 514.53
  L 255.33 513.92
  A 5.47 1.20 -22.6 0 0 249.81 514.92
  L 248.79 515.35
  A 0.66 0.66 0.0 0 0 248.43 516.21
  Z
  M 264.5558 515.8294
  A 4.40 1.06 -15.7 0 0 260.0332 515.9995
  A 4.40 1.06 -15.7 0 0 256.0842 518.2106
  A 4.40 1.06 -15.7 0 0 260.6068 518.0405
  A 4.40 1.06 -15.7 0 0 264.5558 515.8294
  Z
  M 260.24 521.73
  L 260.84 523.53
  A 0.71 0.71 0.0 0 0 261.74 523.98
  L 264.42 523.08
  A 7.94 1.36 -18.6 0 0 271.52 519.25
  L 271.32 518.68
  A 7.94 1.36 -18.6 0 0 263.37 519.93
  L 260.68 520.83
  A 0.71 0.71 0.0 0 0 260.24 521.73
  Z
  M 320.65 528.09
  Q 328.76 531.32 336.89 534.35
  C 340.97 535.87 347.25 537.21 351.12 534.40
  A 0.36 0.35 -53.5 0 0 351.03 533.78
  Q 347.82 532.66 344.75 531.26
  Q 332.99 525.87 322.53 521.70
  C 317.83 519.82 306.66 515.93 303.14 521.83
  A 0.48 0.47 26.5 0 0 303.37 522.51
  C 306.26 523.71 309.15 524.99 312.25 525.61
  Q 316.59 526.48 320.65 528.09
  Z
  M 362.46 537.48
  A 1.01 1.01 0.0 0 0 361.13 536.09
  L 359.76 536.75
  A 1.01 1.01 0.0 0 0 359.43 537.02
  L 358.88 537.68
  A 1.01 1.01 0.0 0 0 359.32 539.28
  L 360.31 539.63
  A 1.01 1.01 0.0 0 0 361.52 539.17
  L 362.46 537.48
  Z
  M 385.17 541.95
  A 0.88 0.88 0.0 0 0 384.81 542.24
  L 383.98 543.40
  A 0.88 0.88 0.0 0 0 384.74 544.79
  L 386.22 544.71
  A 0.88 0.88 0.0 0 0 387.04 543.98
  L 387.30 542.50
  A 0.88 0.88 0.0 0 0 386.08 541.55
  L 385.17 541.95
  Z
  M 285.89 544.00
  Q 283.46 543.19 281.42 543.78
  A 0.68 0.68 0.0 0 0 281.08 544.86
  Q 283.54 547.90 286.26 545.74
  Q 286.93 545.20 286.50 544.49
  A 1.11 1.09 -5.8 0 0 285.89 544.00
  Z
  M 420.1251 554.7512
  A 13.77 1.77 13.4 0 0 407.1402 549.8382
  A 13.77 1.77 13.4 0 0 393.3349 548.3688
  A 13.77 1.77 13.4 0 0 406.3198 553.2818
  A 13.77 1.77 13.4 0 0 420.1251 554.7512
  Z"
/>
<path fill="#000000" d="
  M 134.42 119.30
  Q 136.05 119.90 137.27 120.73
  Q 139.43 122.20 136.84 122.54
  Q 132.60 123.09 128.02 122.37
  Q 127.49 122.28 127.15 121.88
  C 122.99 116.98 116.90 119.34 111.39 119.25
  Q 110.72 119.24 110.28 118.69
  Q 110.13 118.50 110.14 118.26
  A 0.82 0.82 0.0 0 1 110.66 117.54
  C 117.55 114.90 127.17 116.61 134.42 119.30
  Z"
/>
<path fill="#000000" d="
  M 166.19 128.42
  L 162.21 126.55
  A 3.29 3.29 0.0 0 1 160.66 122.13
  L 162.54 118.28
  A 3.29 3.29 0.0 0 1 168.06 117.66
  L 169.33 119.24
  A 3.29 3.29 0.0 0 1 169.99 120.66
  L 170.82 124.80
  A 3.29 3.29 0.0 0 1 166.19 128.42
  Z"
/>
<path fill="#000000" d="
  M 85.97 117.14
  A 0.19 0.19 0.0 0 1 86.18 117.30
  L 86.19 117.40
  A 2.07 1.37 -6.6 0 1 84.29 119.00
  L 84.08 119.03
  A 2.07 1.37 -6.6 0 1 81.86 117.90
  L 81.85 117.80
  A 0.19 0.19 0.0 0 1 82.02 117.59
  L 85.97 117.14
  Z"
/>
<ellipse fill="#000000" cx="0.00" cy="0.00" transform="translate(107.02,119.64) rotate(132.2)" rx="1.66" ry="0.96"/>
<ellipse fill="#000000" cx="0.00" cy="0.00" transform="translate(96.36,122.72) rotate(32.0)" rx="5.66" ry="2.90"/>
<path fill="#000000" d="
  M 86.93 123.76
  Q 91.12 127.06 92.65 133.74
  Q 92.92 134.94 92.52 136.08
  A 1.19 1.19 0.0 0 1 90.67 136.64
  Q 87.61 134.30 85.07 131.24
  Q 82.44 128.08 78.89 127.01
  Q 78.23 126.81 78.55 126.20
  C 80.22 123.02 83.81 121.31 86.93 123.76
  Z"
/>
<path fill="#000000" d="
  M 176.42 127.57
  L 175.40 129.93
  A 0.68 0.67 -61.7 0 1 174.42 130.23
  Q 174.17 130.07 173.98 129.83
  Q 173.51 129.22 173.98 128.61
  Q 178.69 122.57 184.95 124.37
  A 1.08 1.08 0.0 0 1 185.24 126.31
  C 183.33 127.56 179.65 127.13 177.55 126.91
  A 1.10 1.10 0.0 0 0 176.42 127.57
  Z"
/>
<ellipse fill="#000000" cx="0.00" cy="0.00" transform="translate(97.05,167.49) rotate(72.1)" rx="0.73" ry="0.59"/>
<path fill="#000000" d="
  M 165.53 191.09
  A 0.69 0.69 0.0 0 0 166.70 191.29
  Q 170.12 187.17 172.34 182.54
  Q 172.66 181.89 173.08 181.40
  Q 173.77 180.61 174.05 180.41
  Q 176.18 178.86 175.20 181.31
  Q 172.37 188.38 166.79 194.98
  Q 165.08 197.00 162.26 198.12
  Q 161.91 198.26 161.56 198.12
  C 158.46 196.86 158.72 192.46 159.47 189.77
  Q 162.20 179.96 169.24 173.13
  Q 171.14 171.29 171.70 173.87
  Q 171.91 174.80 171.78 175.81
  Q 171.45 178.51 169.83 180.69
  Q 166.70 184.92 165.47 189.91
  Q 165.32 190.52 165.53 191.09
  Z"
/>
<path fill="#000000" d="
  M 106.13 192.20
  Q 107.76 194.64 109.20 197.53
  Q 109.39 197.92 109.07 198.34
  A 0.52 0.51 -52.4 0 1 108.34 198.44
  Q 102.96 194.30 98.92 188.24
  Q 98.58 187.74 98.91 187.23
  Q 100.69 184.44 100.33 181.08
  Q 100.21 179.93 100.31 178.77
  Q 100.62 175.24 101.33 178.72
  C 101.67 180.35 102.24 181.92 103.41 183.14
  Q 106.48 186.30 109.31 189.55
  A 1.07 1.07 0.0 0 1 108.53 191.33
  L 106.55 191.39
  Q 105.62 191.42 106.13 192.20
  Z"
/>
<path fill="#000000" d="
  M 112.45 185.48
  L 110.85 182.81
  A 1.17 1.17 0.0 0 1 111.23 181.22
  L 112.74 180.26
  A 1.17 1.17 0.0 0 1 114.50 180.94
  L 115.03 182.91
  A 1.17 1.17 0.0 0 1 115.03 183.51
  L 114.58 185.18
  A 1.17 1.17 0.0 0 1 112.45 185.48
  Z"
/>
<path fill="#000000" d="
  M 90.86 191.95
  C 97.24 194.11 102.85 199.00 107.49 203.85
  Q 108.20 204.59 108.66 205.52
  Q 109.19 206.61 108.14 206.01
  Q 103.21 203.19 99.31 199.25
  C 96.95 196.86 93.99 195.57 91.35 193.54
  Q 90.70 193.04 90.51 192.26
  Q 90.40 191.80 90.86 191.95
  Z"
/>
<path fill="#000000" d="
  M 94.85 207.99
  C 91.95 205.42 87.32 204.42 85.96 200.47
  Q 85.06 197.84 84.36 194.81
  Q 84.19 194.06 84.42 193.34
  A 1.02 1.02 0.0 0 1 85.90 192.76
  Q 88.73 194.36 91.18 196.84
  Q 96.92 202.65 101.50 209.51
  Q 102.51 211.01 102.65 211.48
  Q 103.50 214.29 101.01 212.70
  Q 97.90 210.71 94.85 207.99
  Z"
/>
<path fill="#000000" d="
  M 78.08 203.10
  Q 76.25 200.11 74.96 197.17
  Q 74.11 195.25 76.06 196.04
  Q 76.51 196.23 76.87 196.55
  C 81.10 200.25 85.97 205.44 88.45 210.76
  A 0.91 0.91 0.0 0 1 87.43 212.03
  Q 82.26 210.93 79.99 206.66
  Q 78.14 203.19 78.08 203.10
  Z"
/>
<path fill="#000000" d="
  M 73.07 210.41
  Q 73.99 209.62 73.69 208.40
  Q 72.73 204.57 71.51 201.36
  Q 71.37 200.99 71.73 200.83
  L 71.97 200.73
  Q 72.05 200.70 72.09 200.78
  Q 74.02 204.62 76.92 206.67
  C 80.87 209.46 82.01 214.41 79.58 218.60
  C 78.39 220.66 75.36 221.89 73.39 220.02
  Q 72.18 218.87 71.47 217.30
  Q 69.28 212.46 66.57 207.43
  Q 65.75 205.89 65.28 204.15
  Q 64.71 202.03 66.31 203.52
  Q 69.43 206.43 72.10 210.29
  A 0.66 0.66 0.0 0 0 73.07 210.41
  Z"
/>
<ellipse fill="#000000" cx="0.00" cy="0.00" transform="translate(150.28,213.82) rotate(81.4)" rx="2.91" ry="0.34"/>
<ellipse fill="#000000" cx="0.00" cy="0.00" transform="translate(84.30,218.84) rotate(-34.3)" rx="1.28" ry="1.01"/>
<path fill="#000000" d="
  M 92.07 224.05
  A 0.14 0.14 0.0 0 1 91.98 224.22
  L 91.95 224.23
  A 2.77 1.71 72.1 0 1 89.47 222.12
  L 89.14 221.10
  A 2.77 1.71 72.1 0 1 89.92 217.93
  L 89.94 217.92
  A 0.14 0.14 0.0 0 1 90.12 218.01
  L 92.07 224.05
  Z"
/>
<path fill="#000000" d="
  M 102.00 249.62
  L 102.41 249.55
  A 0.38 0.38 0.0 0 0 102.74 249.14
  L 101.17 232.20
  A 0.63 0.63 0.0 0 1 101.97 231.53
  Q 102.52 231.69 102.84 232.18
  Q 109.38 242.38 113.31 254.25
  Q 113.75 255.57 112.93 256.57
  Q 112.53 257.07 111.90 257.02
  C 107.97 256.66 109.11 260.46 108.97 262.80
  Q 108.92 263.73 108.51 262.89
  C 107.31 260.38 105.88 256.86 102.51 259.99
  Q 101.01 261.39 99.44 260.43
  Q 99.01 260.17 98.81 259.72
  Q 96.48 254.66 95.95 249.38
  C 95.28 242.76 94.55 233.60 96.89 227.44
  Q 97.30 226.36 97.44 227.51
  C 97.79 230.26 97.80 233.06 98.29 235.85
  Q 99.49 242.71 101.26 249.15
  A 0.66 0.66 0.0 0 0 102.00 249.62
  Z"
/>
<ellipse fill="#000000" cx="0.00" cy="0.00" transform="translate(81.21,233.26) rotate(98.9)" rx="3.15" ry="1.03"/>
<path fill="#000000" d="
  M 140.30 245.38
  L 142.09 245.55
  Q 142.50 245.58 142.83 245.83
  Q 144.51 247.12 143.51 249.43
  Q 141.83 253.30 140.81 256.72
  Q 140.22 258.72 142.17 259.66
  Q 142.68 259.90 142.51 260.44
  Q 141.06 264.99 137.70 268.15
  A 1.58 1.58 0.0 0 1 135.28 267.84
  Q 134.20 266.13 134.23 263.78
  A 2.75 2.70 29.1 0 0 133.78 262.25
  Q 131.60 258.91 131.82 255.17
  Q 132.36 246.16 136.63 238.35
  Q 137.46 236.84 138.95 236.02
  A 0.78 0.78 0.0 0 1 140.11 236.61
  Q 140.65 240.87 139.84 244.77
  Q 139.73 245.33 140.30 245.38
  Z"
/>
<path fill="#000000" d="
  M 89.91 244.42
  L 88.58 240.68
  A 1.18 1.18 0.0 0 1 89.09 239.26
  L 90.46 238.45
  A 1.18 1.18 0.0 0 1 92.22 239.24
  L 92.60 241.16
  A 1.18 1.18 0.0 0 1 92.61 241.58
  L 92.19 244.21
  A 1.18 1.18 0.0 0 1 89.91 244.42
  Z"
/>
<ellipse fill="#000000" cx="0.00" cy="0.00" transform="translate(154.30,244.05) rotate(110.3)" rx="4.07" ry="0.69"/>
<ellipse fill="#000000" cx="0.00" cy="0.00" transform="translate(157.45,248.03) rotate(117.9)" rx="5.78" ry="0.87"/>
<ellipse fill="#000000" cx="0.00" cy="0.00" transform="translate(155.34,271.09) rotate(119.2)" rx="1.54" ry="0.35"/>
<path fill="#000000" d="
  M 153.97 323.99
  Q 153.77 324.40 153.55 324.00
  C 152.05 321.17 152.07 315.19 152.92 312.20
  A 0.91 0.91 0.0 0 1 154.51 311.88
  C 157.09 315.10 155.70 320.36 153.97 323.99
  Z"
/>
<path fill="#000000" d="
  M 155.28 344.88
  Q 154.43 346.54 153.81 344.78
  Q 153.06 342.66 155.43 340.78
  A 0.45 0.44 70.7 0 1 156.15 341.13
  Q 156.19 343.09 155.28 344.88
  Z"
/>
<ellipse fill="#000000" cx="0.00" cy="0.00" transform="translate(168.92,380.65) rotate(95.6)" rx="1.54" ry="0.30"/>
<ellipse fill="#000000" cx="0.00" cy="0.00" transform="translate(174.34,395.96) rotate(73.7)" rx="9.50" ry="2.12"/>
</svg>
