<?xml version="1.0" encoding="UTF-8" standalone="no"?>
<!DOCTYPE svg PUBLIC "-//W3C//DTD SVG 1.1//EN" "http://www.w3.org/Graphics/SVG/1.1/DTD/svg11.dtd">
<svg xmlns="http://www.w3.org/2000/svg" version="1.1" viewBox="0.00 0.00 500.00 500.00">
<g stroke-width="2.30" fill="none" stroke-linecap="butt">
<path stroke="#8a4f9a" vector-effect="non-scaling-stroke" d="
  M 249.84 249.91
  L 125.36 375.28"
/>
<path stroke="#5662a9" vector-effect="non-scaling-stroke" d="
  M 500.00 250.36
  Q 499.16 250.26 498.20 251.50
  Q 497.27 252.72 496.89 253.10
  Q 436.18 313.74 375.55 374.45
  Q 375.42 374.59 375.35 374.78
  Q 375.29 374.93 375.14 375.09"
/>
</g>
<path fill="#bb4b97" d="
  M 0.00 0.09
  L 249.84 249.91
  L 125.36 375.28
  Q 125.02 375.00 124.64 375.39
  Q 62.55 437.46 0.46 499.52
  Q 0.33 499.64 0.23 499.64
  Q 0.10 499.64 0.00 499.50
  L 0.00 0.09
  Z"
/>
<path fill="#59539d" d="
  M 500.00 0.08
  L 500.00 250.36
  Q 499.16 250.26 498.20 251.50
  Q 497.27 252.72 496.89 253.10
  Q 436.18 313.74 375.55 374.45
  Q 375.42 374.59 375.35 374.78
  Q 375.29 374.93 375.14 375.09
  L 250.36 499.52
  Q 250.01 499.87 249.66 499.52
  L 125.36 375.28
  L 249.84 249.91
  L 500.00 0.08
  Z"
/>
<path fill="#5271b4" d="
  M 500.00 250.36
  L 500.00 499.58
  L 499.74 499.63
  Q 499.68 499.64 499.64 499.60
  L 375.14 375.09
  Q 375.29 374.93 375.35 374.78
  Q 375.42 374.59 375.55 374.45
  Q 436.18 313.74 496.89 253.10
  Q 497.27 252.72 498.20 251.50
  Q 499.16 250.26 500.00 250.36
  Z"
/>
</svg>
