<?xml version="1.0" encoding="UTF-8" standalone="no"?>
<!DOCTYPE svg PUBLIC "-//W3C//DTD SVG 1.1//EN" "http://www.w3.org/Graphics/SVG/1.1/DTD/svg11.dtd">
<svg xmlns="http://www.w3.org/2000/svg" version="1.1" viewBox="0.00 0.00 383.00 383.00">
<path fill="#f05033" d="
  M 187.64 0.00
  L 194.98 0.00
  Q 203.34 1.74 208.93 7.32
  Q 292.18 90.57 375.43 173.82
  Q 381.61 180.00 383.00 189.14
  L 383.00 194.24
  Q 381.80 203.31 376.68 208.43
  Q 292.55 292.56 208.43 376.68
  Q 203.25 381.86 194.11 383.00
  L 189.02 383.00
  Q 184.17 382.21 180.00 379.98
  Q 177.00 378.38 172.73 374.13
  Q 68.33 270.22 7.10 208.66
  Q 1.62 203.15 0.00 194.85
  L 0.00 187.52
  Q 1.49 179.15 5.82 174.82
  Q 63.76 116.88 121.60 59.04
  A 0.40 0.39 44.5 0 1 122.15 59.04
  L 165.05 101.94
  Q 165.46 102.35 165.25 102.89
  C 159.30 118.13 166.19 133.66 180.72 140.59
  Q 181.25 140.85 181.25 141.44
  L 181.25 245.55
  Q 181.25 246.14 180.71 246.39
  C 169.08 251.73 161.92 263.06 163.24 276.15
  C 165.24 296.14 186.55 307.83 204.24 299.78
  C 216.61 294.14 223.59 280.97 220.97 267.61
  Q 218.34 254.26 205.65 247.13
  Q 205.25 246.90 205.25 246.44
  L 205.25 143.00
  A 0.25 0.25 0.0 0 1 205.68 142.82
  L 244.72 181.86
  A 0.79 0.77 -56.9 0 1 244.89 182.70
  C 237.96 200.35 249.18 219.60 267.92 222.35
  Q 276.12 223.55 283.49 220.28
  C 303.94 211.21 307.70 183.82 289.57 170.19
  Q 277.77 161.32 262.81 165.69
  A 1.01 0.99 -30.0 0 1 261.83 165.44
  L 220.31 123.92
  Q 219.85 123.46 220.05 122.83
  C 227.32 99.79 206.08 78.88 183.20 85.99
  A 0.76 0.74 58.0 0 1 182.44 85.80
  L 138.84 42.20
  A 0.28 0.28 0.0 0 1 138.84 41.80
  Q 156.75 23.89 174.71 5.93
  Q 179.22 1.42 187.64 0.00
  Z"
/>
</svg>
