<?xml version="1.0" encoding="UTF-8" standalone="no"?>
<!DOCTYPE svg PUBLIC "-//W3C//DTD SVG 1.1//EN" "http://www.w3.org/Graphics/SVG/1.1/DTD/svg11.dtd">
<svg xmlns="http://www.w3.org/2000/svg" version="1.1" viewBox="0.00 0.00 1447.00 1448.00">
<path stroke="#808080" stroke-width="2.30" fill="none" stroke-linecap="butt" vector-effect="non-scaling-stroke" d="
  M 926.33 1415.73
  Q 912.03 1412.61 905.29 1400.27
  C 902.14 1394.50 900.70 1387.58 900.75 1380.86
  Q 901.46 1284.57 901.58 1186.41
  C 901.63 1144.25 891.40 1096.94 862.23 1064.68
  Q 858.25 1060.27 853.91 1056.71
  A 0.84 0.84 0.0 0 1 854.35 1055.22
  Q 884.69 1051.86 914.17 1046.28
  C 971.80 1035.37 1029.06 1015.13 1075.25 978.23
  C 1111.45 949.31 1138.20 911.65 1155.50 868.05
  C 1166.84 839.46 1174.23 808.49 1178.19 777.88
  Q 1183.20 739.19 1182.72 699.99
  C 1181.91 634.02 1159.94 573.91 1117.58 523.65
  Q 1113.32 518.59 1108.70 513.42
  Q 1108.31 512.99 1108.64 512.50
  C 1109.22 511.65 1109.74 510.89 1110.09 509.90
  C 1125.08 467.83 1126.19 421.57 1117.14 377.71
  Q 1111.66 351.19 1101.69 326.11
  A 1.90 1.89 83.5 0 0 1100.24 324.95
  C 1079.94 321.70 1058.28 325.44 1038.58 331.13
  Q 1014.77 337.99 992.20 348.21
  Q 960.00 362.78 928.93 381.99
  Q 916.73 389.54 904.72 397.44
  Q 903.36 398.33 901.73 397.89
  C 847.80 383.39 792.81 375.91 735.86 374.45
  Q 726.17 374.21 716.24 374.35
  C 657.66 375.17 599.46 382.73 543.03 397.95
  Q 541.92 398.25 540.93 397.68
  Q 538.72 396.42 536.68 395.07
  C 500.79 371.39 462.12 350.18 421.28 335.91
  Q 394.47 326.54 368.62 324.10
  Q 356.85 322.99 343.94 324.95
  A 2.07 2.05 -83.8 0 0 342.33 326.25
  Q 339.49 333.72 336.96 341.15
  C 319.48 392.41 314.82 450.78 332.19 502.67
  Q 333.86 507.64 335.98 512.38
  A 1.89 1.88 -36.0 0 1 335.65 514.43
  C 287.99 565.96 262.40 630.35 261.98 700.80
  C 261.63 759.14 268.91 818.79 290.97 872.13
  Q 328.48 962.83 416.35 1008.66
  C 451.92 1027.20 491.09 1039.25 530.47 1046.82
  Q 560.97 1052.69 589.88 1055.70
  A 0.76 0.76 0.0 0 1 590.32 1057.01
  C 568.77 1076.99 555.72 1103.89 549.24 1132.37
  Q 547.41 1140.41 545.93 1149.28
  Q 545.61 1151.21 544.21 1151.80
  C 508.47 1166.98 469.51 1174.28 432.15 1166.64
  Q 396.24 1159.31 368.43 1133.82
  Q 352.55 1119.26 342.35 1103.44
  Q 332.04 1087.45 328.71 1082.69
  Q 315.48 1063.74 296.50 1048.35
  Q 267.81 1025.08 233.41 1019.79
  Q 223.98 1018.34 216.55 1019.02
  C 209.05 1019.71 193.81 1021.71 191.41 1030.05
  C 188.43 1040.39 210.36 1056.15 218.07 1061.11
  Q 229.09 1068.21 229.12 1068.23
  C 261.74 1091.97 284.79 1128.71 299.37 1165.95
  C 316.55 1209.83 352.33 1242.53 397.10 1258.08
  C 443.28 1274.11 494.00 1271.85 541.71 1261.65
  Q 543.23 1261.33 543.24 1262.88
  Q 543.55 1316.54 544.12 1374.08
  Q 544.26 1387.51 542.53 1393.55
  Q 538.87 1406.35 526.60 1413.58
  Q 526.08 1413.89 526.05 1414.18"
/>
<path fill="#000000" d="
  M 1447.00 718.11
  L 1447.00 760.52
  C 1446.72 763.51 1446.84 766.79 1446.64 769.49
  C 1445.55 783.85 1444.78 798.39 1443.30 812.80
  Q 1432.14 921.52 1389.12 1020.29
  Q 1345.08 1121.40 1272.13 1204.50
  Q 1180.45 1308.91 1055.42 1372.31
  Q 1001.58 1399.60 951.34 1415.36
  Q 940.10 1418.88 926.33 1415.73
  Q 912.03 1412.61 905.29 1400.27
  C 902.14 1394.50 900.70 1387.58 900.75 1380.86
  Q 901.46 1284.57 901.58 1186.41
  C 901.63 1144.25 891.40 1096.94 862.23 1064.68
  Q 858.25 1060.27 853.91 1056.71
  A 0.84 0.84 0.0 0 1 854.35 1055.22
  Q 884.69 1051.86 914.17 1046.28
  C 971.80 1035.37 1029.06 1015.13 1075.25 978.23
  C 1111.45 949.31 1138.20 911.65 1155.50 868.05
  C 1166.84 839.46 1174.23 808.49 1178.19 777.88
  Q 1183.20 739.19 1182.72 699.99
  C 1181.91 634.02 1159.94 573.91 1117.58 523.65
  Q 1113.32 518.59 1108.70 513.42
  Q 1108.31 512.99 1108.64 512.50
  C 1109.22 511.65 1109.74 510.89 1110.09 509.90
  C 1125.08 467.83 1126.19 421.57 1117.14 377.71
  Q 1111.66 351.19 1101.69 326.11
  A 1.90 1.89 83.5 0 0 1100.24 324.95
  C 1079.94 321.70 1058.28 325.44 1038.58 331.13
  Q 1014.77 337.99 992.20 348.21
  Q 960.00 362.78 928.93 381.99
  Q 916.73 389.54 904.72 397.44
  Q 903.36 398.33 901.73 397.89
  C 847.80 383.39 792.81 375.91 735.86 374.45
  Q 726.17 374.21 716.24 374.35
  C 657.66 375.17 599.46 382.73 543.03 397.95
  Q 541.92 398.25 540.93 397.68
  Q 538.72 396.42 536.68 395.07
  C 500.79 371.39 462.12 350.18 421.28 335.91
  Q 394.47 326.54 368.62 324.10
  Q 356.85 322.99 343.94 324.95
  A 2.07 2.05 -83.8 0 0 342.33 326.25
  Q 339.49 333.72 336.96 341.15
  C 319.48 392.41 314.82 450.78 332.19 502.67
  Q 333.86 507.64 335.98 512.38
  A 1.89 1.88 -36.0 0 1 335.65 514.43
  C 287.99 565.96 262.40 630.35 261.98 700.80
  C 261.63 759.14 268.91 818.79 290.97 872.13
  Q 328.48 962.83 416.35 1008.66
  C 451.92 1027.20 491.09 1039.25 530.47 1046.82
  Q 560.97 1052.69 589.88 1055.70
  A 0.76 0.76 0.0 0 1 590.32 1057.01
  C 568.77 1076.99 555.72 1103.89 549.24 1132.37
  Q 547.41 1140.41 545.93 1149.28
  Q 545.61 1151.21 544.21 1151.80
  C 508.47 1166.98 469.51 1174.28 432.15 1166.64
  Q 396.24 1159.31 368.43 1133.82
  Q 352.55 1119.26 342.35 1103.44
  Q 332.04 1087.45 328.71 1082.69
  Q 315.48 1063.74 296.50 1048.35
  Q 267.81 1025.08 233.41 1019.79
  Q 223.98 1018.34 216.55 1019.02
  C 209.05 1019.71 193.81 1021.71 191.41 1030.05
  C 188.43 1040.39 210.36 1056.15 218.07 1061.11
  Q 229.09 1068.21 229.12 1068.23
  C 261.74 1091.97 284.79 1128.71 299.37 1165.95
  C 316.55 1209.83 352.33 1242.53 397.10 1258.08
  C 443.28 1274.11 494.00 1271.85 541.71 1261.65
  Q 543.23 1261.33 543.24 1262.88
  Q 543.55 1316.54 544.12 1374.08
  Q 544.26 1387.51 542.53 1393.55
  Q 538.87 1406.35 526.60 1413.58
  Q 526.08 1413.89 526.05 1414.18
  Q 525.14 1414.28 524.31 1414.65
  Q 520.58 1416.31 515.72 1417.07
  Q 505.88 1418.60 496.88 1416.86
  Q 492.36 1415.99 479.64 1411.48
  Q 381.15 1376.53 297.29 1316.36
  Q 230.42 1268.38 176.62 1207.25
  C 107.22 1128.39 55.78 1035.55 26.98 934.64
  Q 8.25 869.03 2.59 799.99
  Q 1.21 783.24 0.00 766.48
  L 0.00 720.40
  Q 1.02 697.18 3.25 674.00
  Q 13.31 569.57 53.27 473.17
  C 58.43 460.71 64.27 448.15 70.14 435.82
  C 89.71 394.62 114.12 355.80 141.67 318.68
  Q 146.28 312.46 158.96 296.72
  Q 164.75 289.54 170.80 282.70
  C 176.29 276.49 181.77 269.95 187.34 263.98
  Q 225.69 222.95 263.96 192.25
  C 274.60 183.71 285.98 174.72 297.32 166.81
  C 307.57 159.65 317.44 152.60 328.13 145.84
  Q 337.89 139.67 346.59 134.37
  Q 363.54 124.04 385.15 112.65
  Q 394.07 107.94 402.88 103.68
  Q 536.37 39.07 684.10 31.29
  Q 785.31 25.97 881.98 47.25
  Q 963.59 65.22 1040.14 102.00
  Q 1055.21 109.24 1067.52 115.68
  Q 1093.13 129.08 1125.14 149.89
  Q 1153.00 168.00 1184.04 193.06
  C 1210.03 214.05 1233.86 236.40 1257.36 261.63
  Q 1325.77 335.06 1371.66 425.25
  Q 1376.11 434.00 1380.36 443.38
  C 1384.58 452.70 1388.97 461.88 1392.91 471.33
  Q 1432.98 567.41 1443.48 671.25
  Q 1444.76 683.88 1447.00 718.11
  Z"
/>
<path fill="#ffffff" d="
  M 926.33 1415.73
  Q 846.51 1442.46 761.99 1446.92
  Q 751.31 1447.49 740.63 1448.00
  L 717.02 1448.00
  Q 619.59 1445.86 527.66 1414.37
  Q 527.31 1414.25 526.86 1414.24
  Q 526.45 1414.24 526.05 1414.18
  Q 526.08 1413.89 526.60 1413.58
  Q 538.87 1406.35 542.53 1393.55
  Q 544.26 1387.51 544.12 1374.08
  Q 543.55 1316.54 543.24 1262.88
  Q 543.23 1261.33 541.71 1261.65
  C 494.00 1271.85 443.28 1274.11 397.10 1258.08
  C 352.33 1242.53 316.55 1209.83 299.37 1165.95
  C 284.79 1128.71 261.74 1091.97 229.12 1068.23
  Q 229.09 1068.21 218.07 1061.11
  C 210.36 1056.15 188.43 1040.39 191.41 1030.05
  C 193.81 1021.71 209.05 1019.71 216.55 1019.02
  Q 223.98 1018.34 233.41 1019.79
  Q 267.81 1025.08 296.50 1048.35
  Q 315.48 1063.74 328.71 1082.69
  Q 332.04 1087.45 342.35 1103.44
  Q 352.55 1119.26 368.43 1133.82
  Q 396.24 1159.31 432.15 1166.64
  C 469.51 1174.28 508.47 1166.98 544.21 1151.80
  Q 545.61 1151.21 545.93 1149.28
  Q 547.41 1140.41 549.24 1132.37
  C 555.72 1103.89 568.77 1076.99 590.32 1057.01
  A 0.76 0.76 0.0 0 0 589.88 1055.70
  Q 560.97 1052.69 530.47 1046.82
  C 491.09 1039.25 451.92 1027.20 416.35 1008.66
  Q 328.48 962.83 290.97 872.13
  C 268.91 818.79 261.63 759.14 261.98 700.80
  C 262.40 630.35 287.99 565.96 335.65 514.43
  A 1.89 1.88 -36.0 0 0 335.98 512.38
  Q 333.86 507.64 332.19 502.67
  C 314.82 450.78 319.48 392.41 336.96 341.15
  Q 339.49 333.72 342.33 326.25
  A 2.07 2.05 -83.8 0 1 343.94 324.95
  Q 356.85 322.99 368.62 324.10
  Q 394.47 326.54 421.28 335.91
  C 462.12 350.18 500.79 371.39 536.68 395.07
  Q 538.72 396.42 540.93 397.68
  Q 541.92 398.25 543.03 397.95
  C 599.46 382.73 657.66 375.17 716.24 374.35
  Q 726.17 374.21 735.86 374.45
  C 792.81 375.91 847.80 383.39 901.73 397.89
  Q 903.36 398.33 904.72 397.44
  Q 916.73 389.54 928.93 381.99
  Q 960.00 362.78 992.20 348.21
  Q 1014.77 337.99 1038.58 331.13
  C 1058.28 325.44 1079.94 321.70 1100.24 324.95
  A 1.90 1.89 83.5 0 1 1101.69 326.11
  Q 1111.66 351.19 1117.14 377.71
  C 1126.19 421.57 1125.08 467.83 1110.09 509.90
  C 1109.74 510.89 1109.22 511.65 1108.64 512.50
  Q 1108.31 512.99 1108.70 513.42
  Q 1113.32 518.59 1117.58 523.65
  C 1159.94 573.91 1181.91 634.02 1182.72 699.99
  Q 1183.20 739.19 1178.19 777.88
  C 1174.23 808.49 1166.84 839.46 1155.50 868.05
  C 1138.20 911.65 1111.45 949.31 1075.25 978.23
  C 1029.06 1015.13 971.80 1035.37 914.17 1046.28
  Q 884.69 1051.86 854.35 1055.22
  A 0.84 0.84 0.0 0 0 853.91 1056.71
  Q 858.25 1060.27 862.23 1064.68
  C 891.40 1096.94 901.63 1144.25 901.58 1186.41
  Q 901.46 1284.57 900.75 1380.86
  C 900.70 1387.58 902.14 1394.50 905.29 1400.27
  Q 912.03 1412.61 926.33 1415.73
  Z"
/>
</svg>
