<?xml version="1.0" encoding="UTF-8" standalone="no"?>
<!DOCTYPE svg PUBLIC "-//W3C//DTD SVG 1.1//EN" "http://www.w3.org/Graphics/SVG/1.1/DTD/svg11.dtd">
<svg xmlns="http://www.w3.org/2000/svg" version="1.1" viewBox="0.00 0.00 738.00 415.00">
<g stroke-width="2.30" fill="none" stroke-linecap="butt">
<path stroke="#77d18b" vector-effect="non-scaling-stroke" d="
  M 305.39 109.70
  Q 301.31 107.25 296.72 106.47"
/>
<path stroke="#476e49" vector-effect="non-scaling-stroke" d="
  M 296.72 106.47
  Q 297.45 102.59 293.57 101.67
  C 288.11 100.38 283.71 99.31 278.95 101.51
  C 271.28 105.06 268.86 112.58 270.84 121.00
  Q 274.41 136.24 283.08 146.42
  A 1.06 1.04 -53.6 0 1 283.24 147.53
  Q 281.71 150.94 281.36 154.55
  A 3.77 3.77 0.0 0 1 279.50 157.44
  C 268.15 164.04 259.60 173.64 257.03 186.87
  C 253.16 206.81 264.26 225.02 282.63 233.32
  Q 284.97 234.38 285.27 237.02
  Q 286.23 245.67 290.89 253.27
  Q 301.33 270.35 322.28 273.77
  Q 322.80 273.86 322.49 274.28
  Q 316.32 282.52 313.14 293.95
  C 311.64 299.37 312.40 304.49 316.73 308.32
  Q 320.02 311.24 324.80 311.25
  Q 357.96 311.29 392.50 311.27
  C 394.42 311.26 395.87 309.92 395.82 307.90"
/>
<path stroke="#b4c38c" vector-effect="non-scaling-stroke" d="
  M 395.82 307.90
  L 404.88 308.33"
/>
<path stroke="#476e49" vector-effect="non-scaling-stroke" d="
  M 404.88 308.33
  Q 405.28 310.97 408.00 311.18
  C 411.85 311.48 416.74 311.62 420.06 309.27
  C 425.57 305.36 426.51 299.72 424.70 293.40
  Q 421.55 282.38 415.61 274.44
  Q 415.13 273.79 415.92 273.68
  C 433.35 271.31 446.59 259.44 451.68 242.90
  C 452.62 239.83 451.91 234.86 455.37 233.30
  C 474.62 224.65 485.69 205.15 480.42 184.56
  C 478.03 175.21 471.96 166.50 463.95 160.99
  Q 461.18 159.08 458.42 157.29
  Q 456.41 155.98 456.46 153.30
  Q 456.47 152.79 456.88 152.49
  C 467.10 145.11 473.08 134.91 476.54 122.82
  Q 477.83 118.33 478.23 114.50
  C 478.95 107.57 474.05 100.79 467.47 98.74
  Q 463.07 97.38 457.20 98.81
  C 443.16 102.24 430.77 108.66 423.22 120.51
  Q 422.92 120.99 422.35 120.89
  Q 410.84 118.97 400.30 122.80
  C 398.56 123.43 396.51 123.49 395.05 122.18
  C 378.73 107.51 355.26 107.29 338.67 121.12
  C 337.87 121.78 336.55 122.39 335.53 122.08
  Q 329.49 120.22 323.51 120.35
  A 1.42 1.42 0.0 0 1 322.35 119.80
  C 318.87 115.30 314.83 111.65 309.90 108.56
  Q 307.51 107.06 305.39 109.70"
/>
<path stroke="#6d5543" vector-effect="non-scaling-stroke" d="
  M 404.88 308.33
  C 405.85 300.88 415.90 308.84 418.83 300.47
  Q 419.32 299.06 418.63 296.40
  Q 417.04 290.23 414.32 284.82"
/>
<path stroke="#694538" vector-effect="non-scaling-stroke" d="
  M 414.32 284.82
  Q 411.27 278.84 406.92 274.23
  Q 406.57 273.86 406.07 273.78
  Q 401.96 273.12 398.15 271.97
  C 397.09 271.65 395.54 271.57 394.60 272.23
  Q 386.12 278.28 377.15 279.96
  Q 359.26 283.31 343.45 272.33
  Q 342.06 271.36 340.30 271.85
  Q 335.94 273.07 331.94 273.82
  Q 331.45 273.91 331.10 274.26
  Q 326.86 278.55 323.83 284.53"
/>
<path stroke="#6d5543" vector-effect="non-scaling-stroke" d="
  M 323.83 284.53
  Q 319.75 292.28 319.00 298.01
  C 318.50 301.85 321.48 304.78 325.15 304.78
  Q 358.94 304.76 392.47 304.77
  C 394.26 304.77 395.49 306.21 395.82 307.90"
/>
<path stroke="#306342" vector-effect="non-scaling-stroke" d="
  M 296.72 106.47
  Q 295.38 108.85 293.49 108.38
  Q 290.18 107.53 286.72 107.04
  C 279.52 106.01 275.70 111.53 277.01 118.14
  Q 279.29 129.64 285.29 138.47
  C 292.27 148.75 303.07 153.71 315.56 156.66
  C 321.95 158.16 327.82 153.21 326.56 146.58
  C 324.08 133.58 318.23 121.64 306.78 114.45
  Q 305.72 113.78 305.24 112.78
  Q 304.56 111.34 305.39 109.70"
/>
<path stroke="#d69a7b" vector-effect="non-scaling-stroke" d="
  M 414.32 284.82
  Q 406.37 285.03 398.90 283.48
  A 3.37 3.32 34.4 0 0 396.45 283.92
  C 388.42 288.98 379.81 291.36 369.96 291.47
  Q 354.34 291.65 341.91 284.13
  Q 340.17 283.07 338.25 283.55
  Q 330.75 285.40 323.83 284.53"
/>
<path stroke="#c7eec8" vector-effect="non-scaling-stroke" d="
  M 321.43 388.53
  L 321.32 391.77
  A 0.97 0.96 -88.8 0 0 322.27 392.77
  L 326.73 392.85
  Q 327.61 392.86 327.61 391.98
  L 327.53 369.55
  A 0.23 0.23 0.0 0 0 327.30 369.32
  L 310.46 369.32
  Q 309.24 369.32 309.24 370.54
  L 309.25 374.20
  Q 309.26 375.66 310.71 375.65
  L 317.66 375.59
  A 0.59 0.59 0.0 0 1 318.25 376.21
  C 317.93 383.23 312.01 386.99 305.54 384.71
  C 301.13 383.16 299.29 378.08 298.98 373.77
  C 298.47 366.69 299.29 356.23 308.43 355.82
  Q 315.23 355.52 317.68 362.74
  Q 317.72 362.86 317.85 362.87
  Q 322.82 363.29 327.20 362.84
  A 0.06 0.05 85.3 0 0 327.25 362.77
  Q 325.52 353.90 318.23 350.26
  C 309.63 345.97 298.83 348.13 293.39 355.97
  C 288.58 362.90 288.07 373.31 290.82 380.77
  Q 295.94 394.67 311.96 393.04
  Q 316.65 392.56 320.53 388.18
  Q 321.47 387.11 321.43 388.53"
/>
<path stroke="#c7eec8" vector-effect="non-scaling-stroke" d="
  M 431.13 366.75
  A 0.43 0.43 0.0 0 1 431.57 367.17
  Q 431.72 373.48 431.60 379.80
  Q 431.51 384.11 432.27 387.55
  C 433.54 393.27 441.90 393.19 446.47 392.27
  A 1.49 1.48 -6.0 0 0 447.67 390.79
  L 447.64 387.30
  Q 447.62 386.07 446.41 386.23
  Q 444.26 386.51 442.00 386.17
  A 1.49 1.49 0.0 0 1 440.73 384.71
  L 440.58 367.55
  A 0.76 0.76 0.0 0 1 441.33 366.79
  L 446.54 366.72
  A 0.92 0.92 0.0 0 0 447.45 365.83
  L 447.57 361.65
  Q 447.60 360.45 446.40 360.47
  L 441.96 360.53
  Q 440.63 360.54 440.63 359.21
  L 440.64 352.20
  A 0.95 0.94 -90.0 0 0 439.70 351.25
  L 435.29 351.23
  A 1.47 1.47 0.0 0 0 433.84 352.38
  L 432.27 359.32
  A 1.57 1.57 0.0 0 1 430.69 360.54
  L 427.62 360.43
  Q 426.37 360.39 426.43 361.63
  L 426.60 365.64
  Q 426.65 366.82 427.83 366.80
  L 431.13 366.75"
/>
<path stroke="#c7eec8" vector-effect="non-scaling-stroke" d="
  M 344.21 366.00
  Q 344.05 365.16 344.32 362.18
  A 1.10 1.10 0.0 0 0 343.22 360.98
  L 336.69 360.99
  Q 335.62 360.99 335.61 362.06
  L 335.55 391.53
  A 1.23 1.22 0.0 0 0 336.78 392.75
  L 343.31 392.73
  Q 344.49 392.73 344.49 391.55
  Q 344.45 383.46 344.52 375.53
  C 344.58 369.35 349.12 368.85 354.03 368.99
  Q 355.21 369.02 355.24 367.84
  L 355.39 361.69
  Q 355.42 360.30 354.03 360.37
  Q 347.90 360.70 345.08 366.13
  Q 344.46 367.33 344.21 366.00"
/>
<path stroke="#c7eec8" vector-effect="non-scaling-stroke" d="
  M 388.9451 374.4676
  A 13.59 13.59 0.0 0 0 375.5462 360.6892
  L 373.0264 360.6540
  A 13.59 13.59 0.0 0 0 359.2480 374.0529
  L 359.1749 379.2924
  A 13.59 13.59 0.0 0 0 372.5738 393.0708
  L 375.0936 393.1060
  A 13.59 13.59 0.0 0 0 388.8720 379.7071
  L 388.9451 374.4676"
/>
<path stroke="#c7eec8" vector-effect="non-scaling-stroke" d="
  M 423.4154 374.2341
  A 13.58 13.58 0.0 0 0 409.8117 360.6778
  L 407.2517 360.6823
  A 13.58 13.58 0.0 0 0 393.6954 374.2859
  L 393.7046 379.5259
  A 13.58 13.58 0.0 0 0 407.3083 393.0822
  L 409.8683 393.0777
  A 13.58 13.58 0.0 0 0 423.4246 379.4741
  L 423.4154 374.2341"
/>
<path stroke="#306342" vector-effect="non-scaling-stroke" d="
  M 436.53 115.42
  L 430.10 122.15
  A 0.58 0.57 32.7 0 0 430.31 123.08
  Q 436.34 125.52 441.44 129.34
  Q 441.91 129.69 442.33 129.27
  L 448.74 122.89"
/>
<path stroke="#476e49" vector-effect="non-scaling-stroke" d="
  M 448.74 122.89
  L 454.34 117.34
  Q 456.59 115.11 458.91 117.27
  Q 459.31 117.64 459.61 118.15
  Q 460.72 120.11 459.14 121.72
  L 453.40 127.59"
/>
<path stroke="#306342" vector-effect="non-scaling-stroke" d="
  M 453.40 127.59
  L 447.17 133.84
  A 0.61 0.60 -43.9 0 0 447.15 134.67
  Q 451.58 139.61 454.07 145.58
  A 0.41 0.41 0.0 0 0 454.70 145.74
  Q 459.48 141.96 461.81 138.54"
/>
<path stroke="#476e49" vector-effect="non-scaling-stroke" d="
  M 461.81 138.54
  Q 467.06 131.38 469.29 123.74
  C 470.49 119.61 473.18 113.18 470.50 109.05
  C 467.61 104.60 463.51 104.22 458.74 105.21
  Q 446.54 107.73 436.53 115.42"
/>
<path stroke="#77d18b" vector-effect="non-scaling-stroke" d="
  M 461.81 138.54
  Q 458.39 131.71 453.40 127.59"
/>
<path stroke="#77d18b" vector-effect="non-scaling-stroke" d="
  M 448.74 122.89
  Q 443.73 117.71 436.53 115.42"
/>
<path stroke="#476e49" vector-effect="non-scaling-stroke" d="
  M 315.14 163.26
  C 305.58 161.34 296.82 157.95 289.20 152.18
  A 0.59 0.59 0.0 0 0 288.26 152.63
  Q 288.13 157.21 285.79 160.43
  C 283.65 163.37 279.81 164.76 276.90 167.02
  Q 268.40 173.64 264.85 183.44
  C 258.57 200.79 267.83 219.25 284.02 226.56
  C 288.45 228.56 291.23 231.39 291.85 236.49
  C 293.88 253.15 307.43 264.97 323.50 267.19
  Q 329.92 268.07 336.50 265.99
  C 339.26 265.12 342.78 264.65 345.42 265.89
  C 348.14 267.17 350.55 269.20 353.28 270.48
  Q 368.66 277.73 384.44 270.62
  C 388.29 268.89 391.66 265.16 396.10 265.14
  Q 398.85 265.13 401.16 265.89
  Q 407.40 267.95 412.83 267.36
  Q 435.01 264.95 444.01 244.92
  C 446.46 239.46 445.26 231.56 451.02 228.28
  Q 453.60 226.81 456.29 225.40
  C 471.03 217.67 478.84 200.13 473.31 183.90
  Q 469.44 172.55 458.99 165.60
  Q 456.74 164.10 454.49 162.68
  C 451.82 160.99 450.62 157.97 450.01 154.88
  Q 447.60 142.76 438.12 135.20
  Q 422.11 122.44 401.28 129.33
  C 397.18 130.69 393.41 129.62 390.21 126.76
  C 376.62 114.61 356.99 114.51 342.97 126.20
  C 340.19 128.52 336.32 129.37 332.81 128.21
  Q 330.29 127.39 327.59 127.18
  A 0.39 0.38 78.6 0 0 327.22 127.74
  Q 330.54 134.41 332.75 143.49
  Q 333.95 148.40 332.92 152.06
  C 330.71 159.89 323.09 164.86 315.14 163.26"
/>
<path stroke="#306342" vector-effect="non-scaling-stroke" d="
  M 293.4936 118.9784
  A 3.24 3.24 0.0 0 0 288.9115 118.9784
  L 288.7984 119.0915
  A 3.24 3.24 0.0 0 0 288.7984 123.6736
  L 307.7064 142.5816
  A 3.24 3.24 0.0 0 0 312.2885 142.5816
  L 312.4016 142.4685
  A 3.24 3.24 0.0 0 0 312.4016 137.8864
  L 293.4936 118.9784"
/>
<path stroke="#476e49" vector-effect="non-scaling-stroke" d="
  M 426.57 205.32
  A 57.57 49.93 0.0 0 0 369.00 155.39
  A 57.57 49.93 0.0 0 0 311.43 205.32
  A 57.57 49.93 0.0 0 0 369.00 255.25
  A 57.57 49.93 0.0 0 0 426.57 205.32"
/>
<path stroke="#313952" vector-effect="non-scaling-stroke" d="
  M 344.57 167.34
  Q 332.22 172.78 324.21 184.58
  A 0.42 0.42 0.0 0 0 324.49 185.23
  Q 340.04 187.59 348.85 175.63
  C 351.23 172.40 354.88 171.33 358.34 173.26
  Q 373.10 181.50 392.12 184.56
  Q 403.15 186.33 413.18 184.65
  A 0.34 0.34 0.0 0 0 413.40 184.13
  Q 406.65 174.09 396.15 168.73
  Q 370.77 155.78 344.57 167.34"
/>
<path stroke="#754f54" vector-effect="non-scaling-stroke" d="
  M 320.24 217.88
  L 324.15 225.87"
/>
<path stroke="#80695d" vector-effect="non-scaling-stroke" d="
  M 324.15 225.87
  C 337.64 246.02 362.83 252.59 385.51 246.34
  Q 403.05 241.51 413.84 225.95"
/>
<path stroke="#754f54" vector-effect="non-scaling-stroke" d="
  M 413.84 225.95
  L 418.17 216.72"
/>
<path stroke="#80695d" vector-effect="non-scaling-stroke" d="
  M 418.17 216.72
  Q 422.10 203.26 417.19 191.13
  Q 416.99 190.64 416.46 190.73
  Q 402.02 193.35 387.13 190.43
  Q 369.35 186.95 355.35 179.18
  Q 354.72 178.82 354.29 179.41
  Q 346.23 190.35 333.97 191.83
  Q 328.40 192.50 321.34 191.31
  Q 320.80 191.22 320.60 191.73
  Q 315.70 204.61 320.24 217.88"
/>
<path stroke="#f5b8b1" vector-effect="non-scaling-stroke" d="
  M 418.17 216.72
  Q 415.53 210.34 410.41 208.35
  Q 405.70 206.53 400.27 207.59"
/>
<path stroke="#80695d" vector-effect="non-scaling-stroke" d="
  M 400.27 207.59
  C 400.31 205.61 400.74 201.85 399.50 200.32
  C 397.71 198.10 394.30 199.06 393.62 201.87
  Q 392.69 205.71 394.47 210.10"
/>
<path stroke="#f5b8b1" vector-effect="non-scaling-stroke" d="
  M 394.47 210.10
  Q 393.88 211.24 393.10 212.45
  Q 392.20 213.82 391.90 214.85
  Q 390.23 220.57 394.16 224.33
  Q 401.60 231.46 413.84 225.95"
/>
<path stroke="#f5b8b1" vector-effect="non-scaling-stroke" d="
  M 324.15 225.87
  Q 334.35 230.75 342.38 225.34
  Q 347.01 222.22 346.50 216.76
  Q 346.12 212.72 342.72 210.53"
/>
<path stroke="#80695d" vector-effect="non-scaling-stroke" d="
  M 342.72 210.53
  Q 344.38 209.49 344.44 207.76
  Q 344.54 204.72 344.39 201.97
  C 344.25 199.19 340.45 198.07 338.69 200.09
  C 337.22 201.78 337.71 205.45 337.75 207.75"
/>
<path stroke="#f5b8b1" vector-effect="non-scaling-stroke" d="
  M 337.75 207.75
  Q 327.50 205.42 322.00 212.51
  Q 321.20 213.54 320.24 217.88"
/>
<path stroke="#754f54" vector-effect="non-scaling-stroke" d="
  M 342.72 210.53
  Q 338.68 211.82 337.75 207.75"
/>
<path stroke="#754f54" vector-effect="non-scaling-stroke" d="
  M 400.27 207.59
  C 400.06 210.71 397.08 211.75 394.47 210.10"
/>
<path stroke="#80695d" vector-effect="non-scaling-stroke" d="
  M 379.60 209.78
  A 3.06 3.06 0.0 0 0 376.54 206.72
  L 361.50 206.72
  A 3.06 3.06 0.0 0 0 358.44 209.78
  L 358.44 210.18
  A 3.06 3.06 0.0 0 0 361.50 213.24
  L 376.54 213.24
  A 3.06 3.06 0.0 0 0 379.60 210.18
  L 379.60 209.78"
/>
<path stroke="#c7eec8" vector-effect="non-scaling-stroke" d="
  M 373.9525 386.8496
  A 10.03 6.52 90.5 0 0 380.5598 376.8769
  A 10.03 6.52 90.5 0 0 374.1275 366.7904
  A 10.03 6.52 90.5 0 0 367.5202 376.7631
  A 10.03 6.52 90.5 0 0 373.9525 386.8496"
/>
<path stroke="#c7eec8" vector-effect="non-scaling-stroke" d="
  M 408.4427 386.7796
  A 10.00 6.58 90.5 0 0 415.1097 376.8374
  A 10.00 6.58 90.5 0 0 408.6173 366.7804
  A 10.00 6.58 90.5 0 0 401.9503 376.7226
  A 10.00 6.58 90.5 0 0 408.4427 386.7796"
/>
</g>
<path fill="#8edc91" d="
  M 0.00 0.00
  L 738.00 0.00
  L 738.00 415.00
  L 0.00 415.00
  L 0.00 0.00
  Z
  M 305.39 109.70
  Q 301.31 107.25 296.72 106.47
  Q 297.45 102.59 293.57 101.67
  C 288.11 100.38 283.71 99.31 278.95 101.51
  C 271.28 105.06 268.86 112.58 270.84 121.00
  Q 274.41 136.24 283.08 146.42
  A 1.06 1.04 -53.6 0 1 283.24 147.53
  Q 281.71 150.94 281.36 154.55
  A 3.77 3.77 0.0 0 1 279.50 157.44
  C 268.15 164.04 259.60 173.64 257.03 186.87
  C 253.16 206.81 264.26 225.02 282.63 233.32
  Q 284.97 234.38 285.27 237.02
  Q 286.23 245.67 290.89 253.27
  Q 301.33 270.35 322.28 273.77
  Q 322.80 273.86 322.49 274.28
  Q 316.32 282.52 313.14 293.95
  C 311.64 299.37 312.40 304.49 316.73 308.32
  Q 320.02 311.24 324.80 311.25
  Q 357.96 311.29 392.50 311.27
  C 394.42 311.26 395.87 309.92 395.82 307.90
  L 404.88 308.33
  Q 405.28 310.97 408.00 311.18
  C 411.85 311.48 416.74 311.62 420.06 309.27
  C 425.57 305.36 426.51 299.72 424.70 293.40
  Q 421.55 282.38 415.61 274.44
  Q 415.13 273.79 415.92 273.68
  C 433.35 271.31 446.59 259.44 451.68 242.90
  C 452.62 239.83 451.91 234.86 455.37 233.30
  C 474.62 224.65 485.69 205.15 480.42 184.56
  C 478.03 175.21 471.96 166.50 463.95 160.99
  Q 461.18 159.08 458.42 157.29
  Q 456.41 155.98 456.46 153.30
  Q 456.47 152.79 456.88 152.49
  C 467.10 145.11 473.08 134.91 476.54 122.82
  Q 477.83 118.33 478.23 114.50
  C 478.95 107.57 474.05 100.79 467.47 98.74
  Q 463.07 97.38 457.20 98.81
  C 443.16 102.24 430.77 108.66 423.22 120.51
  Q 422.92 120.99 422.35 120.89
  Q 410.84 118.97 400.30 122.80
  C 398.56 123.43 396.51 123.49 395.05 122.18
  C 378.73 107.51 355.26 107.29 338.67 121.12
  C 337.87 121.78 336.55 122.39 335.53 122.08
  Q 329.49 120.22 323.51 120.35
  A 1.42 1.42 0.0 0 1 322.35 119.80
  C 318.87 115.30 314.83 111.65 309.90 108.56
  Q 307.51 107.06 305.39 109.70
  Z
  M 321.43 388.53
  L 321.32 391.77
  A 0.97 0.96 -88.8 0 0 322.27 392.77
  L 326.73 392.85
  Q 327.61 392.86 327.61 391.98
  L 327.53 369.55
  A 0.23 0.23 0.0 0 0 327.30 369.32
  L 310.46 369.32
  Q 309.24 369.32 309.24 370.54
  L 309.25 374.20
  Q 309.26 375.66 310.71 375.65
  L 317.66 375.59
  A 0.59 0.59 0.0 0 1 318.25 376.21
  C 317.93 383.23 312.01 386.99 305.54 384.71
  C 301.13 383.16 299.29 378.08 298.98 373.77
  C 298.47 366.69 299.29 356.23 308.43 355.82
  Q 315.23 355.52 317.68 362.74
  Q 317.72 362.86 317.85 362.87
  Q 322.82 363.29 327.20 362.84
  A 0.06 0.05 85.3 0 0 327.25 362.77
  Q 325.52 353.90 318.23 350.26
  C 309.63 345.97 298.83 348.13 293.39 355.97
  C 288.58 362.90 288.07 373.31 290.82 380.77
  Q 295.94 394.67 311.96 393.04
  Q 316.65 392.56 320.53 388.18
  Q 321.47 387.11 321.43 388.53
  Z
  M 431.13 366.75
  A 0.43 0.43 0.0 0 1 431.57 367.17
  Q 431.72 373.48 431.60 379.80
  Q 431.51 384.11 432.27 387.55
  C 433.54 393.27 441.90 393.19 446.47 392.27
  A 1.49 1.48 -6.0 0 0 447.67 390.79
  L 447.64 387.30
  Q 447.62 386.07 446.41 386.23
  Q 444.26 386.51 442.00 386.17
  A 1.49 1.49 0.0 0 1 440.73 384.71
  L 440.58 367.55
  A 0.76 0.76 0.0 0 1 441.33 366.79
  L 446.54 366.72
  A 0.92 0.92 0.0 0 0 447.45 365.83
  L 447.57 361.65
  Q 447.60 360.45 446.40 360.47
  L 441.96 360.53
  Q 440.63 360.54 440.63 359.21
  L 440.64 352.20
  A 0.95 0.94 -90.0 0 0 439.70 351.25
  L 435.29 351.23
  A 1.47 1.47 0.0 0 0 433.84 352.38
  L 432.27 359.32
  A 1.57 1.57 0.0 0 1 430.69 360.54
  L 427.62 360.43
  Q 426.37 360.39 426.43 361.63
  L 426.60 365.64
  Q 426.65 366.82 427.83 366.80
  L 431.13 366.75
  Z
  M 344.21 366.00
  Q 344.05 365.16 344.32 362.18
  A 1.10 1.10 0.0 0 0 343.22 360.98
  L 336.69 360.99
  Q 335.62 360.99 335.61 362.06
  L 335.55 391.53
  A 1.23 1.22 0.0 0 0 336.78 392.75
  L 343.31 392.73
  Q 344.49 392.73 344.49 391.55
  Q 344.45 383.46 344.52 375.53
  C 344.58 369.35 349.12 368.85 354.03 368.99
  Q 355.21 369.02 355.24 367.84
  L 355.39 361.69
  Q 355.42 360.30 354.03 360.37
  Q 347.90 360.70 345.08 366.13
  Q 344.46 367.33 344.21 366.00
  Z
  M 388.9451 374.4676
  A 13.59 13.59 0.0 0 0 375.5462 360.6892
  L 373.0264 360.6540
  A 13.59 13.59 0.0 0 0 359.2480 374.0529
  L 359.1749 379.2924
  A 13.59 13.59 0.0 0 0 372.5738 393.0708
  L 375.0936 393.1060
  A 13.59 13.59 0.0 0 0 388.8720 379.7071
  L 388.9451 374.4676
  Z
  M 423.4154 374.2341
  A 13.58 13.58 0.0 0 0 409.8117 360.6778
  L 407.2517 360.6823
  A 13.58 13.58 0.0 0 0 393.6954 374.2859
  L 393.7046 379.5259
  A 13.58 13.58 0.0 0 0 407.3083 393.0822
  L 409.8683 393.0777
  A 13.58 13.58 0.0 0 0 423.4246 379.4741
  L 423.4154 374.2341
  Z"
/>
<path fill="#000000" d="
  M 404.88 308.33
  C 405.85 300.88 415.90 308.84 418.83 300.47
  Q 419.32 299.06 418.63 296.40
  Q 417.04 290.23 414.32 284.82
  Q 411.27 278.84 406.92 274.23
  Q 406.57 273.86 406.07 273.78
  Q 401.96 273.12 398.15 271.97
  C 397.09 271.65 395.54 271.57 394.60 272.23
  Q 386.12 278.28 377.15 279.96
  Q 359.26 283.31 343.45 272.33
  Q 342.06 271.36 340.30 271.85
  Q 335.94 273.07 331.94 273.82
  Q 331.45 273.91 331.10 274.26
  Q 326.86 278.55 323.83 284.53
  Q 319.75 292.28 319.00 298.01
  C 318.50 301.85 321.48 304.78 325.15 304.78
  Q 358.94 304.76 392.47 304.77
  C 394.26 304.77 395.49 306.21 395.82 307.90
  C 395.87 309.92 394.42 311.26 392.50 311.27
  Q 357.96 311.29 324.80 311.25
  Q 320.02 311.24 316.73 308.32
  C 312.40 304.49 311.64 299.37 313.14 293.95
  Q 316.32 282.52 322.49 274.28
  Q 322.80 273.86 322.28 273.77
  Q 301.33 270.35 290.89 253.27
  Q 286.23 245.67 285.27 237.02
  Q 284.97 234.38 282.63 233.32
  C 264.26 225.02 253.16 206.81 257.03 186.87
  C 259.60 173.64 268.15 164.04 279.50 157.44
  A 3.77 3.77 0.0 0 0 281.36 154.55
  Q 281.71 150.94 283.24 147.53
  A 1.06 1.04 -53.6 0 0 283.08 146.42
  Q 274.41 136.24 270.84 121.00
  C 268.86 112.58 271.28 105.06 278.95 101.51
  C 283.71 99.31 288.11 100.38 293.57 101.67
  Q 297.45 102.59 296.72 106.47
  Q 295.38 108.85 293.49 108.38
  Q 290.18 107.53 286.72 107.04
  C 279.52 106.01 275.70 111.53 277.01 118.14
  Q 279.29 129.64 285.29 138.47
  C 292.27 148.75 303.07 153.71 315.56 156.66
  C 321.95 158.16 327.82 153.21 326.56 146.58
  C 324.08 133.58 318.23 121.64 306.78 114.45
  Q 305.72 113.78 305.24 112.78
  Q 304.56 111.34 305.39 109.70
  Q 307.51 107.06 309.90 108.56
  C 314.83 111.65 318.87 115.30 322.35 119.80
  A 1.42 1.42 0.0 0 0 323.51 120.35
  Q 329.49 120.22 335.53 122.08
  C 336.55 122.39 337.87 121.78 338.67 121.12
  C 355.26 107.29 378.73 107.51 395.05 122.18
  C 396.51 123.49 398.56 123.43 400.30 122.80
  Q 410.84 118.97 422.35 120.89
  Q 422.92 120.99 423.22 120.51
  C 430.77 108.66 443.16 102.24 457.20 98.81
  Q 463.07 97.38 467.47 98.74
  C 474.05 100.79 478.95 107.57 478.23 114.50
  Q 477.83 118.33 476.54 122.82
  C 473.08 134.91 467.10 145.11 456.88 152.49
  Q 456.47 152.79 456.46 153.30
  Q 456.41 155.98 458.42 157.29
  Q 461.18 159.08 463.95 160.99
  C 471.96 166.50 478.03 175.21 480.42 184.56
  C 485.69 205.15 474.62 224.65 455.37 233.30
  C 451.91 234.86 452.62 239.83 451.68 242.90
  C 446.59 259.44 433.35 271.31 415.92 273.68
  Q 415.13 273.79 415.61 274.44
  Q 421.55 282.38 424.70 293.40
  C 426.51 299.72 425.57 305.36 420.06 309.27
  C 416.74 311.62 411.85 311.48 408.00 311.18
  Q 405.28 310.97 404.88 308.33
  Z
  M 436.53 115.42
  L 430.10 122.15
  A 0.58 0.57 32.7 0 0 430.31 123.08
  Q 436.34 125.52 441.44 129.34
  Q 441.91 129.69 442.33 129.27
  L 448.74 122.89
  L 454.34 117.34
  Q 456.59 115.11 458.91 117.27
  Q 459.31 117.64 459.61 118.15
  Q 460.72 120.11 459.14 121.72
  L 453.40 127.59
  L 447.17 133.84
  A 0.61 0.60 -43.9 0 0 447.15 134.67
  Q 451.58 139.61 454.07 145.58
  A 0.41 0.41 0.0 0 0 454.70 145.74
  Q 459.48 141.96 461.81 138.54
  Q 467.06 131.38 469.29 123.74
  C 470.49 119.61 473.18 113.18 470.50 109.05
  C 467.61 104.60 463.51 104.22 458.74 105.21
  Q 446.54 107.73 436.53 115.42
  Z
  M 315.14 163.26
  C 305.58 161.34 296.82 157.95 289.20 152.18
  A 0.59 0.59 0.0 0 0 288.26 152.63
  Q 288.13 157.21 285.79 160.43
  C 283.65 163.37 279.81 164.76 276.90 167.02
  Q 268.40 173.64 264.85 183.44
  C 258.57 200.79 267.83 219.25 284.02 226.56
  C 288.45 228.56 291.23 231.39 291.85 236.49
  C 293.88 253.15 307.43 264.97 323.50 267.19
  Q 329.92 268.07 336.50 265.99
  C 339.26 265.12 342.78 264.65 345.42 265.89
  C 348.14 267.17 350.55 269.20 353.28 270.48
  Q 368.66 277.73 384.44 270.62
  C 388.29 268.89 391.66 265.16 396.10 265.14
  Q 398.85 265.13 401.16 265.89
  Q 407.40 267.95 412.83 267.36
  Q 435.01 264.95 444.01 244.92
  C 446.46 239.46 445.26 231.56 451.02 228.28
  Q 453.60 226.81 456.29 225.40
  C 471.03 217.67 478.84 200.13 473.31 183.90
  Q 469.44 172.55 458.99 165.60
  Q 456.74 164.10 454.49 162.68
  C 451.82 160.99 450.62 157.97 450.01 154.88
  Q 447.60 142.76 438.12 135.20
  Q 422.11 122.44 401.28 129.33
  C 397.18 130.69 393.41 129.62 390.21 126.76
  C 376.62 114.61 356.99 114.51 342.97 126.20
  C 340.19 128.52 336.32 129.37 332.81 128.21
  Q 330.29 127.39 327.59 127.18
  A 0.39 0.38 78.6 0 0 327.22 127.74
  Q 330.54 134.41 332.75 143.49
  Q 333.95 148.40 332.92 152.06
  C 330.71 159.89 323.09 164.86 315.14 163.26
  Z"
/>
<path fill="#8edc91" d="
  M 461.81 138.54
  Q 458.39 131.71 453.40 127.59
  L 459.14 121.72
  Q 460.72 120.11 459.61 118.15
  Q 459.31 117.64 458.91 117.27
  Q 456.59 115.11 454.34 117.34
  L 448.74 122.89
  Q 443.73 117.71 436.53 115.42
  Q 446.54 107.73 458.74 105.21
  C 463.51 104.22 467.61 104.60 470.50 109.05
  C 473.18 113.18 470.49 119.61 469.29 123.74
  Q 467.06 131.38 461.81 138.54
  Z"
/>
<path fill="#60c684" d="
  M 296.72 106.47
  Q 301.31 107.25 305.39 109.70
  Q 304.56 111.34 305.24 112.78
  Q 305.72 113.78 306.78 114.45
  C 318.23 121.64 324.08 133.58 326.56 146.58
  C 327.82 153.21 321.95 158.16 315.56 156.66
  C 303.07 153.71 292.27 148.75 285.29 138.47
  Q 279.29 129.64 277.01 118.14
  C 275.70 111.53 279.52 106.01 286.72 107.04
  Q 290.18 107.53 293.49 108.38
  Q 295.38 108.85 296.72 106.47
  Z
  M 293.4936 118.9784
  A 3.24 3.24 0.0 0 0 288.9115 118.9784
  L 288.7984 119.0915
  A 3.24 3.24 0.0 0 0 288.7984 123.6736
  L 307.7064 142.5816
  A 3.24 3.24 0.0 0 0 312.2885 142.5816
  L 312.4016 142.4685
  A 3.24 3.24 0.0 0 0 312.4016 137.8864
  L 293.4936 118.9784
  Z"
/>
<path fill="#60c684" d="
  M 436.53 115.42
  Q 443.73 117.71 448.74 122.89
  L 442.33 129.27
  Q 441.91 129.69 441.44 129.34
  Q 436.34 125.52 430.31 123.08
  A 0.58 0.57 32.7 0 1 430.10 122.15
  L 436.53 115.42
  Z"
/>
<path fill="#8edc91" d="
  M 289.20 152.18
  C 296.82 157.95 305.58 161.34 315.14 163.26
  C 323.09 164.86 330.71 159.89 332.92 152.06
  Q 333.95 148.40 332.75 143.49
  Q 330.54 134.41 327.22 127.74
  A 0.39 0.38 78.6 0 1 327.59 127.18
  Q 330.29 127.39 332.81 128.21
  C 336.32 129.37 340.19 128.52 342.97 126.20
  C 356.99 114.51 376.62 114.61 390.21 126.76
  C 393.41 129.62 397.18 130.69 401.28 129.33
  Q 422.11 122.44 438.12 135.20
  Q 447.60 142.76 450.01 154.88
  C 450.62 157.97 451.82 160.99 454.49 162.68
  Q 456.74 164.10 458.99 165.60
  Q 469.44 172.55 473.31 183.90
  C 478.84 200.13 471.03 217.67 456.29 225.40
  Q 453.60 226.81 451.02 228.28
  C 445.26 231.56 446.46 239.46 444.01 244.92
  Q 435.01 264.95 412.83 267.36
  Q 407.40 267.95 401.16 265.89
  Q 398.85 265.13 396.10 265.14
  C 391.66 265.16 388.29 268.89 384.44 270.62
  Q 368.66 277.73 353.28 270.48
  C 350.55 269.20 348.14 267.17 345.42 265.89
  C 342.78 264.65 339.26 265.12 336.50 265.99
  Q 329.92 268.07 323.50 267.19
  C 307.43 264.97 293.88 253.15 291.85 236.49
  C 291.23 231.39 288.45 228.56 284.02 226.56
  C 267.83 219.25 258.57 200.79 264.85 183.44
  Q 268.40 173.64 276.90 167.02
  C 279.81 164.76 283.65 163.37 285.79 160.43
  Q 288.13 157.21 288.26 152.63
  A 0.59 0.59 0.0 0 1 289.20 152.18
  Z
  M 426.57 205.32
  A 57.57 49.93 0.0 0 0 369.00 155.39
  A 57.57 49.93 0.0 0 0 311.43 205.32
  A 57.57 49.93 0.0 0 0 369.00 255.25
  A 57.57 49.93 0.0 0 0 426.57 205.32
  Z"
/>
<rect fill="#000000" x="-3.32" y="-16.61" transform="translate(300.60,130.78) rotate(-45.0)" width="6.64" height="33.22" rx="3.24"/>
<path fill="#60c684" d="
  M 453.40 127.59
  Q 458.39 131.71 461.81 138.54
  Q 459.48 141.96 454.70 145.74
  A 0.41 0.41 0.0 0 1 454.07 145.58
  Q 451.58 139.61 447.15 134.67
  A 0.61 0.60 -43.9 0 1 447.17 133.84
  L 453.40 127.59
  Z"
/>
<path fill="#000000" d="
  M 426.57 205.32
  A 57.57 49.93 0.0 0 1 369.00 255.25
  A 57.57 49.93 0.0 0 1 311.43 205.32
  A 57.57 49.93 0.0 0 1 369.00 155.39
  A 57.57 49.93 0.0 0 1 426.57 205.32
  Z
  M 344.57 167.34
  Q 332.22 172.78 324.21 184.58
  A 0.42 0.42 0.0 0 0 324.49 185.23
  Q 340.04 187.59 348.85 175.63
  C 351.23 172.40 354.88 171.33 358.34 173.26
  Q 373.10 181.50 392.12 184.56
  Q 403.15 186.33 413.18 184.65
  A 0.34 0.34 0.0 0 0 413.40 184.13
  Q 406.65 174.09 396.15 168.73
  Q 370.77 155.78 344.57 167.34
  Z
  M 320.24 217.88
  L 324.15 225.87
  C 337.64 246.02 362.83 252.59 385.51 246.34
  Q 403.05 241.51 413.84 225.95
  L 418.17 216.72
  Q 422.10 203.26 417.19 191.13
  Q 416.99 190.64 416.46 190.73
  Q 402.02 193.35 387.13 190.43
  Q 369.35 186.95 355.35 179.18
  Q 354.72 178.82 354.29 179.41
  Q 346.23 190.35 333.97 191.83
  Q 328.40 192.50 321.34 191.31
  Q 320.80 191.22 320.60 191.73
  Q 315.70 204.61 320.24 217.88
  Z"
/>
<path fill="#6271a3" d="
  M 344.57 167.34
  Q 370.77 155.78 396.15 168.73
  Q 406.65 174.09 413.40 184.13
  A 0.34 0.34 0.0 0 1 413.18 184.65
  Q 403.15 186.33 392.12 184.56
  Q 373.10 181.50 358.34 173.26
  C 354.88 171.33 351.23 172.40 348.85 175.63
  Q 340.04 187.59 324.49 185.23
  A 0.42 0.42 0.0 0 1 324.21 184.58
  Q 332.22 172.78 344.57 167.34
  Z"
/>
<path fill="#ffd1ba" d="
  M 418.17 216.72
  Q 415.53 210.34 410.41 208.35
  Q 405.70 206.53 400.27 207.59
  C 400.31 205.61 400.74 201.85 399.50 200.32
  C 397.71 198.10 394.30 199.06 393.62 201.87
  Q 392.69 205.71 394.47 210.10
  Q 393.88 211.24 393.10 212.45
  Q 392.20 213.82 391.90 214.85
  Q 390.23 220.57 394.16 224.33
  Q 401.60 231.46 413.84 225.95
  Q 403.05 241.51 385.51 246.34
  C 362.83 252.59 337.64 246.02 324.15 225.87
  Q 334.35 230.75 342.38 225.34
  Q 347.01 222.22 346.50 216.76
  Q 346.12 212.72 342.72 210.53
  Q 344.38 209.49 344.44 207.76
  Q 344.54 204.72 344.39 201.97
  C 344.25 199.19 340.45 198.07 338.69 200.09
  C 337.22 201.78 337.71 205.45 337.75 207.75
  Q 327.50 205.42 322.00 212.51
  Q 321.20 213.54 320.24 217.88
  Q 315.70 204.61 320.60 191.73
  Q 320.80 191.22 321.34 191.31
  Q 328.40 192.50 333.97 191.83
  Q 346.23 190.35 354.29 179.41
  Q 354.72 178.82 355.35 179.18
  Q 369.35 186.95 387.13 190.43
  Q 402.02 193.35 416.46 190.73
  Q 416.99 190.64 417.19 191.13
  Q 422.10 203.26 418.17 216.72
  Z
  M 379.60 209.78
  A 3.06 3.06 0.0 0 0 376.54 206.72
  L 361.50 206.72
  A 3.06 3.06 0.0 0 0 358.44 209.78
  L 358.44 210.18
  A 3.06 3.06 0.0 0 0 361.50 213.24
  L 376.54 213.24
  A 3.06 3.06 0.0 0 0 379.60 210.18
  L 379.60 209.78
  Z"
/>
<path fill="#000000" d="
  M 342.72 210.53
  Q 338.68 211.82 337.75 207.75
  C 337.71 205.45 337.22 201.78 338.69 200.09
  C 340.45 198.07 344.25 199.19 344.39 201.97
  Q 344.54 204.72 344.44 207.76
  Q 344.38 209.49 342.72 210.53
  Z"
/>
<path fill="#000000" d="
  M 400.27 207.59
  C 400.06 210.71 397.08 211.75 394.47 210.10
  Q 392.69 205.71 393.62 201.87
  C 394.30 199.06 397.71 198.10 399.50 200.32
  C 400.74 201.85 400.31 205.61 400.27 207.59
  Z"
/>
<rect fill="#000000" x="358.44" y="206.72" width="21.16" height="6.52" rx="3.06"/>
<path fill="#ea9ea8" d="
  M 337.75 207.75
  Q 338.68 211.82 342.72 210.53
  Q 346.12 212.72 346.50 216.76
  Q 347.01 222.22 342.38 225.34
  Q 334.35 230.75 324.15 225.87
  L 320.24 217.88
  Q 321.20 213.54 322.00 212.51
  Q 327.50 205.42 337.75 207.75
  Z"
/>
<path fill="#ea9ea8" d="
  M 418.17 216.72
  L 413.84 225.95
  Q 401.60 231.46 394.16 224.33
  Q 390.23 220.57 391.90 214.85
  Q 392.20 213.82 393.10 212.45
  Q 393.88 211.24 394.47 210.10
  C 397.08 211.75 400.06 210.71 400.27 207.59
  Q 405.70 206.53 410.41 208.35
  Q 415.53 210.34 418.17 216.72
  Z"
/>
<path fill="#d28970" d="
  M 414.32 284.82
  Q 406.37 285.03 398.90 283.48
  A 3.37 3.32 34.4 0 0 396.45 283.92
  C 388.42 288.98 379.81 291.36 369.96 291.47
  Q 354.34 291.65 341.91 284.13
  Q 340.17 283.07 338.25 283.55
  Q 330.75 285.40 323.83 284.53
  Q 326.86 278.55 331.10 274.26
  Q 331.45 273.91 331.94 273.82
  Q 335.94 273.07 340.30 271.85
  Q 342.06 271.36 343.45 272.33
  Q 359.26 283.31 377.15 279.96
  Q 386.12 278.28 394.60 272.23
  C 395.54 271.57 397.09 271.65 398.15 271.97
  Q 401.96 273.12 406.07 273.78
  Q 406.57 273.86 406.92 274.23
  Q 411.27 278.84 414.32 284.82
  Z"
/>
<path fill="#daaa86" d="
  M 414.32 284.82
  Q 417.04 290.23 418.63 296.40
  Q 419.32 299.06 418.83 300.47
  C 415.90 308.84 405.85 300.88 404.88 308.33
  L 395.82 307.90
  C 395.49 306.21 394.26 304.77 392.47 304.77
  Q 358.94 304.76 325.15 304.78
  C 321.48 304.78 318.50 301.85 319.00 298.01
  Q 319.75 292.28 323.83 284.53
  Q 330.75 285.40 338.25 283.55
  Q 340.17 283.07 341.91 284.13
  Q 354.34 291.65 369.96 291.47
  C 379.81 291.36 388.42 288.98 396.45 283.92
  A 3.37 3.32 34.4 0 1 398.90 283.48
  Q 406.37 285.03 414.32 284.82
  Z"
/>
<path fill="#ffffff" d="
  M 321.43 388.53
  Q 321.47 387.11 320.53 388.18
  Q 316.65 392.56 311.96 393.04
  Q 295.94 394.67 290.82 380.77
  C 288.07 373.31 288.58 362.90 293.39 355.97
  C 298.83 348.13 309.63 345.97 318.23 350.26
  Q 325.52 353.90 327.25 362.77
  A 0.06 0.05 85.3 0 1 327.20 362.84
  Q 322.82 363.29 317.85 362.87
  Q 317.72 362.86 317.68 362.74
  Q 315.23 355.52 308.43 355.82
  C 299.29 356.23 298.47 366.69 298.98 373.77
  C 299.29 378.08 301.13 383.16 305.54 384.71
  C 312.01 386.99 317.93 383.23 318.25 376.21
  A 0.59 0.59 0.0 0 0 317.66 375.59
  L 310.71 375.65
  Q 309.26 375.66 309.25 374.20
  L 309.24 370.54
  Q 309.24 369.32 310.46 369.32
  L 327.30 369.32
  A 0.23 0.23 0.0 0 1 327.53 369.55
  L 327.61 391.98
  Q 327.61 392.86 326.73 392.85
  L 322.27 392.77
  A 0.97 0.96 -88.8 0 1 321.32 391.77
  L 321.43 388.53
  Z"
/>
<path fill="#ffffff" d="
  M 431.13 366.75
  L 427.83 366.80
  Q 426.65 366.82 426.60 365.64
  L 426.43 361.63
  Q 426.37 360.39 427.62 360.43
  L 430.69 360.54
  A 1.57 1.57 0.0 0 0 432.27 359.32
  L 433.84 352.38
  A 1.47 1.47 0.0 0 1 435.29 351.23
  L 439.70 351.25
  A 0.95 0.94 -90.0 0 1 440.64 352.20
  L 440.63 359.21
  Q 440.63 360.54 441.96 360.53
  L 446.40 360.47
  Q 447.60 360.45 447.57 361.65
  L 447.45 365.83
  A 0.92 0.92 0.0 0 1 446.54 366.72
  L 441.33 366.79
  A 0.76 0.76 0.0 0 0 440.58 367.55
  L 440.73 384.71
  A 1.49 1.49 0.0 0 0 442.00 386.17
  Q 444.26 386.51 446.41 386.23
  Q 447.62 386.07 447.64 387.30
  L 447.67 390.79
  A 1.49 1.48 -6.0 0 1 446.47 392.27
  C 441.90 393.19 433.54 393.27 432.27 387.55
  Q 431.51 384.11 431.60 379.80
  Q 431.72 373.48 431.57 367.17
  A 0.43 0.43 0.0 0 0 431.13 366.75
  Z"
/>
<path fill="#ffffff" d="
  M 344.21 366.00
  Q 344.46 367.33 345.08 366.13
  Q 347.90 360.70 354.03 360.37
  Q 355.42 360.30 355.39 361.69
  L 355.24 367.84
  Q 355.21 369.02 354.03 368.99
  C 349.12 368.85 344.58 369.35 344.52 375.53
  Q 344.45 383.46 344.49 391.55
  Q 344.49 392.73 343.31 392.73
  L 336.78 392.75
  A 1.23 1.22 -0.0 0 1 335.55 391.53
  L 335.61 362.06
  Q 335.62 360.99 336.69 360.99
  L 343.22 360.98
  A 1.10 1.10 0.0 0 1 344.32 362.18
  Q 344.05 365.16 344.21 366.00
  Z"
/>
<path fill="#ffffff" d="
  M 388.8720 379.7071
  A 13.59 13.59 0.0 0 1 375.0936 393.1060
  L 372.5738 393.0708
  A 13.59 13.59 0.0 0 1 359.1749 379.2924
  L 359.2480 374.0529
  A 13.59 13.59 0.0 0 1 373.0264 360.6540
  L 375.5462 360.6892
  A 13.59 13.59 0.0 0 1 388.9451 374.4676
  L 388.8720 379.7071
  Z
  M 373.9525 386.8496
  A 10.03 6.52 90.5 0 0 380.5598 376.8769
  A 10.03 6.52 90.5 0 0 374.1275 366.7904
  A 10.03 6.52 90.5 0 0 367.5202 376.7631
  A 10.03 6.52 90.5 0 0 373.9525 386.8496
  Z"
/>
<path fill="#ffffff" d="
  M 423.4246 379.4741
  A 13.58 13.58 0.0 0 1 409.8683 393.0777
  L 407.3083 393.0822
  A 13.58 13.58 0.0 0 1 393.7046 379.5259
  L 393.6954 374.2859
  A 13.58 13.58 0.0 0 1 407.2517 360.6823
  L 409.8117 360.6778
  A 13.58 13.58 0.0 0 1 423.4154 374.2341
  L 423.4246 379.4741
  Z
  M 408.4427 386.7796
  A 10.00 6.58 90.5 0 0 415.1097 376.8374
  A 10.00 6.58 90.5 0 0 408.6173 366.7804
  A 10.00 6.58 90.5 0 0 401.9503 376.7226
  A 10.00 6.58 90.5 0 0 408.4427 386.7796
  Z"
/>
<ellipse fill="#8edc91" cx="0.00" cy="0.00" transform="translate(374.04,376.82) rotate(90.5)" rx="10.03" ry="6.52"/>
<ellipse fill="#8edc91" cx="0.00" cy="0.00" transform="translate(408.53,376.78) rotate(90.5)" rx="10.00" ry="6.58"/>
</svg>
