<?xml version="1.0" encoding="UTF-8" standalone="no"?>
<!DOCTYPE svg PUBLIC "-//W3C//DTD SVG 1.1//EN" "http://www.w3.org/Graphics/SVG/1.1/DTD/svg11.dtd">
<svg xmlns="http://www.w3.org/2000/svg" version="1.1" viewBox="0.00 0.00 316.00 465.00">
<path fill="#d95540" d="
  M 165.05 186.45
  Q 152.85 177.45 142.16 166.77
  C 133.09 157.71 124.20 145.94 122.84 133.32
  C 121.20 118.13 132.35 105.02 143.81 94.96
  C 158.30 82.26 174.84 70.50 187.33 55.39
  C 193.55 47.86 198.38 39.41 198.87 29.76
  Q 199.25 22.25 198.67 14.48
  Q 198.40 10.99 199.45 14.33
  C 202.16 23.03 204.08 32.28 203.44 41.48
  Q 202.22 59.15 188.71 73.81
  C 179.62 83.66 168.56 91.59 158.15 100.26
  C 144.80 111.38 135.43 124.70 139.75 142.84
  Q 141.66 150.87 145.73 158.42
  Q 153.34 172.52 165.84 186.62
  Q 165.98 186.78 166.04 186.99
  Q 166.07 187.07 166.10 187.15
  Q 166.29 187.53 165.98 187.24
  Q 165.52 186.80 165.05 186.45
  Z"
/>
<path fill="#d95540" d="
  M 165.63 138.49
  C 160.28 122.17 173.97 109.82 186.01 101.98
  C 199.79 93.00 214.29 86.47 230.29 80.19
  Q 231.10 79.87 231.93 79.61
  Q 235.22 78.59 232.22 80.27
  Q 213.90 90.54 199.26 103.23
  C 193.90 107.88 187.85 114.94 185.69 121.93
  C 179.16 143.03 211.06 154.21 201.36 174.31
  Q 198.80 179.62 194.79 183.70
  Q 187.68 190.91 178.74 197.13
  Q 176.69 198.56 178.33 196.67
  C 180.55 194.10 182.91 191.43 184.29 188.25
  C 188.22 179.20 184.52 170.20 179.42 162.43
  C 174.52 154.95 168.47 147.13 165.63 138.49
  Z"
/>
<path fill="#0176b6" d="
  M 232.20 248.15
  C 247.05 240.86 262.88 229.11 267.31 212.72
  C 270.67 200.33 264.02 190.89 251.14 190.32
  Q 246.34 190.11 241.25 191.18
  Q 238.32 191.80 240.91 190.29
  Q 246.12 187.24 251.81 185.78
  C 268.96 181.36 283.50 193.89 281.67 211.43
  C 279.96 227.84 263.62 238.97 249.36 243.87
  Q 243.14 246.00 235.59 247.84
  Q 233.87 248.26 232.16 248.07
  Q 232.09 248.06 232.12 248.12
  Q 232.12 248.12 232.12 248.12
  Q 232.16 248.17 232.20 248.15
  Z"
/>
<path fill="#0176b6" d="
  M 106.77 194.73
  Q 100.73 197.05 96.65 200.15
  C 94.31 201.92 95.65 204.39 97.98 205.19
  C 103.67 207.15 109.80 207.62 115.77 207.99
  Q 127.63 208.72 146.50 208.15
  Q 176.05 207.26 205.87 204.00
  Q 217.62 202.72 228.27 200.43
  Q 232.39 199.55 228.65 201.48
  C 214.76 208.66 198.42 212.38 181.96 214.55
  Q 149.26 218.87 116.13 216.82
  Q 101.08 215.89 87.51 213.20
  C 82.43 212.19 75.05 210.47 71.81 206.43
  A 2.30 2.30 0.0 0 1 71.81 203.55
  C 72.92 202.16 74.52 200.85 76.11 200.09
  Q 83.75 196.45 93.08 194.27
  Q 108.94 190.54 124.11 188.39
  Q 124.29 188.36 124.34 188.54
  L 124.39 188.79
  Q 124.40 188.82 124.37 188.83
  Q 114.18 191.88 106.77 194.73
  Z"
/>
<path fill="#0176b6" d="
  M 123.02 248.03
  C 118.78 247.57 91.51 244.13 98.76 234.59
  C 101.92 230.43 108.06 227.37 112.79 225.20
  Q 113.67 224.80 113.19 225.64
  C 110.92 229.62 110.29 233.57 115.18 236.02
  Q 121.34 239.09 129.67 239.51
  C 138.84 239.97 148.54 239.99 157.62 239.29
  Q 182.41 237.39 207.89 232.47
  Q 208.76 232.30 209.50 232.80
  L 221.13 240.79
  A 0.29 0.29 0.0 0 1 221.07 241.30
  Q 213.99 243.77 206.69 245.17
  Q 190.53 248.26 172.59 249.13
  Q 151.48 250.15 133.61 249.05
  Q 130.95 248.88 123.02 248.03
  Z"
/>
<path fill="#0176b6" d="
  M 119.82 264.83
  Q 121.61 266.64 123.98 267.43
  Q 132.37 270.26 142.22 270.66
  Q 170.18 271.81 197.58 266.04
  Q 198.11 265.93 198.58 266.21
  L 213.08 275.13
  A 0.56 0.55 48.6 0 1 213.02 276.11
  C 202.04 281.01 189.77 283.10 177.82 283.99
  Q 156.24 285.59 133.91 282.56
  Q 125.60 281.42 117.60 278.96
  C 113.31 277.65 101.50 272.75 109.96 266.74
  Q 113.88 263.96 118.71 262.03
  Q 119.28 261.81 119.32 262.42
  L 119.43 263.97
  A 1.39 1.39 0.0 0 0 119.82 264.83
  Z"
/>
<path fill="#0176b6" d="
  M 144.53 308.26
  Q 176.24 308.70 207.80 306.34
  Q 214.01 305.88 227.25 304.13
  C 234.19 303.21 264.25 298.86 264.07 288.99
  Q 264.05 288.28 264.42 288.89
  C 266.18 291.80 265.39 295.86 263.45 298.46
  C 259.45 303.83 251.54 306.84 245.21 308.70
  Q 234.76 311.77 223.96 313.31
  Q 201.26 316.53 180.09 317.02
  Q 156.33 317.57 140.27 317.02
  Q 130.57 316.69 118.50 315.98
  Q 94.91 314.59 72.57 310.78
  C 66.00 309.66 59.47 308.04 53.01 306.07
  C 49.95 305.14 42.59 302.03 45.72 297.96
  C 49.02 293.67 59.30 291.14 64.54 290.09
  Q 75.98 287.79 87.35 286.30
  Q 88.73 286.12 90.07 286.20
  C 91.47 286.29 92.67 285.66 94.06 285.73
  Q 94.86 285.78 94.08 285.98
  Q 85.86 288.07 78.55 289.97
  C 75.11 290.87 67.36 293.12 66.71 296.74
  Q 66.62 297.26 66.92 297.69
  C 68.98 300.55 74.62 301.90 77.90 302.60
  Q 85.62 304.25 92.89 305.06
  Q 110.00 306.97 120.51 307.39
  C 128.51 307.71 136.61 308.15 144.53 308.26
  Z"
/>
<path fill="#0176b6" d="
  M 100.48 327.62
  C 96.15 326.56 89.43 324.80 87.06 320.81
  A 1.15 1.13 41.0 0 1 86.98 319.80
  Q 87.13 319.39 87.51 319.19
  A 0.97 0.95 -47.1 0 1 88.34 319.15
  Q 93.30 321.27 98.93 322.53
  Q 106.66 324.26 113.91 325.14
  Q 138.14 328.07 166.30 327.28
  C 191.30 326.58 216.24 324.26 240.31 319.35
  C 251.79 317.01 263.50 313.69 273.67 308.43
  Q 279.11 305.62 282.39 301.36
  Q 284.11 299.12 283.79 301.93
  C 282.01 317.32 258.79 323.40 246.18 326.41
  Q 233.46 329.45 217.07 331.21
  Q 169.38 336.33 121.47 331.24
  Q 110.38 330.06 100.48 327.62
  Z"
/>
<path fill="#d95540" d="
  M 42.63 359.06
  Q 42.29 358.91 41.91 358.91
  Q 31.59 358.88 23.20 358.79
  Q 22.49 358.78 22.49 358.07
  L 22.47 349.75
  Q 22.46 348.97 23.25 348.97
  L 54.54 349.00
  Q 55.61 349.00 55.61 350.08
  Q 55.66 382.69 55.57 419.73
  C 55.56 424.59 54.85 429.72 52.58 434.01
  C 46.76 445.03 33.95 448.14 22.04 446.87
  Q 16.80 446.32 10.99 445.41
  Q 10.24 445.29 10.23 444.53
  L 10.17 434.25
  A 0.56 0.55 -82.5 0 1 10.87 433.71
  C 19.04 435.99 26.00 437.61 33.93 435.34
  Q 40.82 433.36 42.17 426.60
  Q 43.17 421.59 43.18 416.32
  Q 43.23 388.51 43.09 359.76
  A 0.79 0.77 -78.8 0 0 42.63 359.06
  Z"
/>
<path fill="#d95540" d="
  M 292.79 371.24
  L 291.47 371.05
  A 0.51 0.51 0.0 0 1 291.06 370.37
  Q 291.18 370.06 291.52 370.02
  Q 294.52 369.67 297.37 369.98
  Q 297.78 370.03 297.71 370.43
  L 297.66 370.79
  A 0.39 0.38 2.7 0 1 297.30 371.11
  Q 296.50 371.14 295.78 371.42
  Q 295.23 371.64 295.22 372.24
  L 295.14 378.26
  A 0.75 0.75 0.0 0 1 294.43 379.00
  L 294.11 379.02
  Q 293.72 379.04 293.72 378.65
  L 293.71 372.29
  A 1.07 1.06 4.1 0 0 292.79 371.24
  Z"
/>
<path fill="#d95540" d="
  M 305.93 374.62
  L 304.97 377.51
  Q 303.93 380.62 302.76 377.56
  Q 302.44 376.73 302.16 375.81
  Q 301.29 373.00 301.04 375.93
  Q 300.92 377.27 300.77 378.78
  Q 300.73 379.11 300.40 379.08
  L 300.02 379.04
  Q 299.45 378.98 299.47 378.41
  L 299.72 370.45
  Q 299.74 369.92 300.26 369.82
  C 301.28 369.62 302.15 370.07 302.35 371.12
  Q 302.68 372.79 303.35 374.42
  A 0.59 0.58 -42.1 0 0 304.41 374.47
  Q 305.27 372.85 305.52 370.99
  A 1.35 1.34 -86.3 0 1 306.84 369.83
  L 307.25 369.83
  Q 308.18 369.83 308.19 370.75
  L 308.27 378.32
  Q 308.27 378.92 307.67 378.91
  L 307.35 378.90
  Q 307.02 378.89 307.01 378.56
  Q 306.96 376.48 306.48 374.64
  Q 306.24 373.71 305.93 374.62
  Z"
/>
<path fill="#d95540" d="
  M 123.53 438.32
  C 114.66 445.24 105.55 448.83 94.51 447.43
  C 90.51 446.93 86.36 445.18 83.27 442.60
  Q 72.47 433.59 75.54 418.57
  C 78.08 406.15 90.77 401.28 102.30 399.90
  Q 107.44 399.29 112.97 398.75
  Q 118.58 398.20 123.68 398.19
  Q 124.34 398.19 124.40 397.53
  C 125.42 385.92 117.88 382.49 107.92 382.10
  Q 95.12 381.60 82.05 386.87
  A 0.45 0.45 0.0 0 1 81.43 386.45
  L 81.36 375.72
  Q 81.36 374.85 82.21 374.66
  C 92.28 372.31 102.07 370.85 112.55 371.95
  C 118.63 372.59 124.73 374.12 129.15 378.17
  Q 136.14 384.57 136.20 394.48
  Q 136.34 419.66 136.25 445.21
  Q 136.25 445.72 135.74 445.73
  L 125.32 445.86
  A 0.79 0.79 0.0 0 1 124.52 445.07
  L 124.47 438.78
  A 0.59 0.58 71.0 0 0 123.53 438.32
  Z
  M 99.31 436.40
  Q 105.47 436.96 109.55 435.84
  Q 117.29 433.74 123.97 428.46
  A 1.30 1.27 -19.5 0 0 124.47 427.45
  L 124.49 408.48
  Q 124.49 407.60 123.61 407.65
  Q 112.34 408.23 102.70 409.59
  C 95.27 410.64 87.39 414.72 87.16 423.27
  Q 86.84 435.28 99.31 436.40
  Z"
/>
<path fill="#d95540" d="
  M 280.21 439.02
  A 0.64 0.63 -18.0 0 0 279.20 438.51
  C 272.36 443.46 265.98 446.95 257.23 447.58
  C 246.71 448.34 237.73 444.61 232.94 435.35
  Q 230.12 429.92 230.57 422.43
  C 231.50 406.88 245.06 401.62 258.75 399.79
  Q 268.54 398.49 279.24 398.11
  A 1.05 1.05 0.0 0 0 280.26 397.08
  Q 280.50 384.24 268.23 382.57
  Q 255.50 380.83 242.97 385.03
  Q 240.26 385.94 237.50 386.69
  A 0.46 0.46 0.0 0 1 236.92 386.24
  L 237.02 375.67
  A 1.14 1.13 -6.8 0 1 237.89 374.57
  C 248.81 372.03 259.61 370.58 270.93 372.25
  C 282.87 374.02 291.71 381.59 291.83 394.06
  Q 292.06 419.25 291.93 445.39
  A 0.42 0.41 -0.0 0 1 291.51 445.80
  L 280.88 445.77
  Q 280.25 445.77 280.25 445.13
  L 280.21 439.02
  Z
  M 269.30 408.30
  C 258.35 409.26 240.79 410.36 242.95 426.42
  C 244.27 436.19 253.20 436.75 260.89 436.51
  C 267.51 436.31 274.59 432.42 279.63 428.46
  A 1.61 1.60 71.0 0 0 280.24 427.20
  L 280.19 408.25
  Q 280.19 407.63 279.57 407.66
  Q 274.52 407.85 269.30 408.30
  Z"
/>
<path fill="#d95540" d="
  M 186.53 430.31
  Q 187.28 430.71 187.59 429.92
  L 209.31 373.75
  Q 209.49 373.27 210.00 373.27
  L 221.11 373.25
  A 0.48 0.48 0.0 0 1 221.56 373.91
  L 192.73 445.08
  A 1.12 1.11 11.0 0 1 191.68 445.78
  L 181.00 445.76
  A 0.81 0.80 -10.5 0 1 180.27 445.26
  L 151.56 373.91
  Q 151.29 373.22 152.02 373.23
  L 163.70 373.33
  A 0.67 0.67 0.0 0 1 164.31 373.76
  Q 174.72 400.65 186.18 429.90
  Q 186.29 430.17 186.53 430.31
  Z"
/>
</svg>
