<?xml version="1.0" encoding="UTF-8" standalone="no"?>
<!DOCTYPE svg PUBLIC "-//W3C//DTD SVG 1.1//EN" "http://www.w3.org/Graphics/SVG/1.1/DTD/svg11.dtd">
<svg xmlns="http://www.w3.org/2000/svg" version="1.1" viewBox="0.00 0.00 374.00 422.00">
<g stroke-width="2.30" fill="none" stroke-linecap="butt">
<path stroke="#eaca38" vector-effect="non-scaling-stroke" d="
  M 286.39 364.27
  C 292.12 362.57 299.49 360.69 306.02 358.61
  A 2.14 2.13 -6.7 0 0 307.50 356.74
  Q 308.39 346.11 309.43 334.99
  Q 313.11 295.83 316.74 256.68
  C 316.89 255.05 316.73 253.45 316.90 251.83
  Q 321.01 211.19 324.79 166.09
  C 324.90 164.74 324.72 163.18 325.00 161.99
  Q 325.37 160.48 325.49 158.92
  Q 328.56 121.41 332.29 78.13
  C 332.63 74.27 332.74 70.38 333.16 66.58
  C 334.21 57.27 334.69 47.84 335.31 38.48
  A 0.40 0.40 0.0 0 0 334.92 38.05
  Q 298.19 37.65 263.51 37.80
  Q 226.89 37.97 188.77 38.10
  A 1.19 1.18 1.0 0 0 187.59 39.23
  Q 187.03 51.13 186.95 61.75
  Q 186.82 79.42 186.51 97.50
  C 186.14 118.99 186.91 148.67 186.88 177.24
  Q 186.82 228.94 186.86 273.45
  C 186.87 291.82 186.28 312.71 186.50 329.00
  Q 186.81 351.64 186.93 374.28
  C 186.95 379.45 187.48 384.88 187.38 390.15
  A 0.72 0.72 0.0 0 0 188.27 390.87
  Q 237.80 378.77 286.39 364.27"
/>
<path stroke="#e1d38f" vector-effect="non-scaling-stroke" d="
  M 135.93 277.11
  Q 135.93 278.14 134.93 277.86
  C 111.99 271.46 88.67 264.41 65.55 259.26
  A 0.80 0.79 7.6 0 0 64.58 260.00
  Q 63.58 281.04 65.61 301.24
  A 0.86 0.85 4.5 0 0 66.25 301.98
  C 73.37 303.86 80.76 305.57 87.56 307.49
  Q 122.33 317.26 151.02 325.14
  Q 160.10 327.63 169.75 329.94
  A 0.85 0.85 0.0 0 0 170.80 329.11
  L 170.87 85.87
  A 0.24 0.24 0.0 0 0 170.64 85.63
  L 137.24 85.03
  A 0.78 0.77 0.7 0 0 136.45 85.79
  C 135.30 149.60 136.21 216.67 135.93 277.11"
/>
</g>
<path fill="#d6ba32" d="
  M 96.64 5.19
  C 118.56 5.57 140.57 4.45 162.51 4.46
  C 199.28 4.46 235.23 5.06 271.00 4.99
  Q 320.41 4.91 369.13 5.08
  Q 369.82 5.08 369.76 5.77
  Q 352.55 192.62 336.61 379.19
  A 0.43 0.43 0.0 0 1 336.30 379.56
  Q 262.60 400.38 189.84 420.94
  Q 185.55 422.15 179.25 420.34
  Q 108.66 400.00 37.06 380.08
  Q 36.57 379.94 36.52 379.44
  Q 18.43 191.42 3.30 5.70
  A 0.38 0.38 0.0 0 1 3.66 5.29
  Q 10.65 4.90 17.49 4.82
  Q 51.51 4.40 96.64 5.19
  Z
  M 286.39 364.27
  C 292.12 362.57 299.49 360.69 306.02 358.61
  A 2.14 2.13 -6.7 0 0 307.50 356.74
  Q 308.39 346.11 309.43 334.99
  Q 313.11 295.83 316.74 256.68
  C 316.89 255.05 316.73 253.45 316.90 251.83
  Q 321.01 211.19 324.79 166.09
  C 324.90 164.74 324.72 163.18 325.00 161.99
  Q 325.37 160.48 325.49 158.92
  Q 328.56 121.41 332.29 78.13
  C 332.63 74.27 332.74 70.38 333.16 66.58
  C 334.21 57.27 334.69 47.84 335.31 38.48
  A 0.40 0.40 0.0 0 0 334.92 38.05
  Q 298.19 37.65 263.51 37.80
  Q 226.89 37.97 188.77 38.10
  A 1.19 1.18 1.0 0 0 187.59 39.23
  Q 187.03 51.13 186.95 61.75
  Q 186.82 79.42 186.51 97.50
  C 186.14 118.99 186.91 148.67 186.88 177.24
  Q 186.82 228.94 186.86 273.45
  C 186.87 291.82 186.28 312.71 186.50 329.00
  Q 186.81 351.64 186.93 374.28
  C 186.95 379.45 187.48 384.88 187.38 390.15
  A 0.72 0.72 0.0 0 0 188.27 390.87
  Q 237.80 378.77 286.39 364.27
  Z
  M 135.93 277.11
  Q 135.93 278.14 134.93 277.86
  C 111.99 271.46 88.67 264.41 65.55 259.26
  A 0.80 0.79 7.6 0 0 64.58 260.00
  Q 63.58 281.04 65.61 301.24
  A 0.86 0.85 4.5 0 0 66.25 301.98
  C 73.37 303.86 80.76 305.57 87.56 307.49
  Q 122.33 317.26 151.02 325.14
  Q 160.10 327.63 169.75 329.94
  A 0.85 0.85 0.0 0 0 170.80 329.11
  L 170.87 85.87
  A 0.24 0.24 0.0 0 0 170.64 85.63
  L 137.24 85.03
  A 0.78 0.77 0.7 0 0 136.45 85.79
  C 135.30 149.60 136.21 216.67 135.93 277.11
  Z"
/>
<path fill="#feda3e" d="
  M 286.39 364.27
  Q 237.80 378.77 188.27 390.87
  A 0.72 0.72 0.0 0 1 187.38 390.15
  C 187.48 384.88 186.95 379.45 186.93 374.28
  Q 186.81 351.64 186.50 329.00
  C 186.28 312.71 186.87 291.82 186.86 273.45
  Q 186.82 228.94 186.88 177.24
  C 186.91 148.67 186.14 118.99 186.51 97.50
  Q 186.82 79.42 186.95 61.75
  Q 187.03 51.13 187.59 39.23
  A 1.19 1.18 1.0 0 1 188.77 38.10
  Q 226.89 37.97 263.51 37.80
  Q 298.19 37.65 334.92 38.05
  A 0.40 0.40 0.0 0 1 335.31 38.48
  C 334.69 47.84 334.21 57.27 333.16 66.58
  C 332.74 70.38 332.63 74.27 332.29 78.13
  Q 328.56 121.41 325.49 158.92
  Q 325.37 160.48 325.00 161.99
  C 324.72 163.18 324.90 164.74 324.79 166.09
  Q 321.01 211.19 316.90 251.83
  C 316.73 253.45 316.89 255.05 316.74 256.68
  Q 313.11 295.83 309.43 334.99
  Q 308.39 346.11 307.50 356.74
  A 2.14 2.13 -6.7 0 1 306.02 358.61
  C 299.49 360.69 292.12 362.57 286.39 364.27
  Z
  M 237.19 128.72
  L 313.15 128.72
  A 0.67 0.67 0.0 0 0 313.82 128.12
  L 317.91 85.72
  Q 317.96 85.20 317.45 85.21
  L 201.65 85.40
  A 0.45 0.45 0.0 0 0 201.20 85.85
  L 201.21 244.23
  A 0.47 0.46 -5.2 0 0 201.76 244.68
  L 273.07 231.99
  A 0.32 0.31 86.4 0 1 273.44 232.32
  L 272.10 268.29
  Q 272.08 268.91 271.47 269.07
  L 201.73 287.45
  A 0.40 0.38 -8.0 0 0 201.44 287.82
  L 201.17 329.44
  Q 201.17 330.08 201.79 329.95
  Q 210.18 328.19 218.06 326.20
  Q 252.47 317.50 290.03 307.46
  Q 293.63 306.49 297.19 305.03
  Q 300.02 303.87 300.31 300.34
  Q 304.78 245.67 309.44 186.11
  Q 309.46 185.79 309.14 185.81
  Q 301.85 186.32 295.47 187.09
  Q 271.67 189.97 249.22 192.44
  Q 243.30 193.09 236.79 193.54
  A 0.32 0.32 0.0 0 1 236.45 193.23
  Q 236.00 161.73 236.52 129.38
  Q 236.53 128.72 237.19 128.72
  Z"
/>
<path fill="#ebebeb" d="
  M 135.93 277.11
  C 136.21 216.67 135.30 149.60 136.45 85.79
  A 0.78 0.77 0.7 0 1 137.24 85.03
  L 170.64 85.63
  A 0.24 0.24 0.0 0 1 170.87 85.87
  L 170.80 329.11
  A 0.85 0.85 0.0 0 1 169.75 329.94
  Q 160.10 327.63 151.02 325.14
  Q 122.33 317.26 87.56 307.49
  C 80.76 305.57 73.37 303.86 66.25 301.98
  A 0.86 0.85 4.5 0 1 65.61 301.24
  Q 63.58 281.04 64.58 260.00
  A 0.80 0.79 7.6 0 1 65.55 259.26
  C 88.67 264.41 111.99 271.46 134.93 277.86
  Q 135.93 278.14 135.93 277.11
  Z"
/>
</svg>
