<?xml version="1.0" encoding="UTF-8" standalone="no"?>
<!DOCTYPE svg PUBLIC "-//W3C//DTD SVG 1.1//EN" "http://www.w3.org/Graphics/SVG/1.1/DTD/svg11.dtd">
<svg xmlns="http://www.w3.org/2000/svg" version="1.1" viewBox="0.00 0.00 97.00 101.00">
<path fill="#e00000" d="
  M 0.00 0.00
  L 97.00 0.00
  L 97.00 101.00
  L 0.00 101.00
  L 0.00 0.00
  Z
  M 34.76 47.17
  Q 33.98 47.61 33.98 46.71
  L 33.97 21.57
  Q 33.97 19.66 32.07 19.66
  L 27.75 19.65
  Q 25.90 19.65 25.90 21.50
  L 25.90 77.74
  Q 25.90 79.57 27.74 79.56
  L 32.24 79.53
  Q 33.99 79.52 33.99 77.76
  L 33.91 60.22
  A 3.17 3.12 68.1 0 1 34.85 57.97
  L 43.12 49.93
  A 0.72 0.72 0.0 0 1 44.23 50.05
  Q 52.90 63.54 63.25 78.31
  Q 64.11 79.53 65.61 79.56
  Q 68.64 79.61 71.49 79.42
  Q 74.22 79.24 72.61 77.02
  Q 60.54 60.32 50.15 44.54
  A 1.69 1.69 0.0 0 1 50.37 42.40
  L 70.58 22.60
  Q 73.29 19.95 69.51 19.71
  Q 66.97 19.54 66.52 19.51
  Q 62.84 19.28 60.76 21.37
  Q 49.30 32.96 35.58 46.55
  Q 35.21 46.92 34.76 47.17
  Z"
/>
</svg>
