<?xml version="1.0" encoding="UTF-8" standalone="no"?>
<!DOCTYPE svg PUBLIC "-//W3C//DTD SVG 1.1//EN" "http://www.w3.org/Graphics/SVG/1.1/DTD/svg11.dtd">
<svg xmlns="http://www.w3.org/2000/svg" version="1.1" viewBox="0.00 0.00 721.00 415.00">
<path fill="#808080" fill-opacity="0.502" d="
  M 422.07 87.69
  C 404.39 55.70 376.49 32.06 342.29 19.47
  C 340.45 18.80 338.07 18.33 336.52 17.60
  Q 333.36 16.11 336.85 16.10
  Q 466.45 15.99 593.22 16.07
  C 616.80 16.09 640.16 22.66 659.37 36.84
  C 694.12 62.49 712.05 105.14 704.85 147.90
  Q 700.06 176.32 679.03 200.08
  A 1.49 1.49 0.0 0 0 678.97 201.99
  C 696.97 224.81 706.85 251.94 706.51 280.82
  Q 705.93 331.49 666.49 363.54
  C 646.57 379.74 622.08 389.16 596.48 389.33
  Q 580.78 389.42 566.29 389.39
  A 1.99 1.98 77.2 0 1 564.50 388.26
  L 530.38 316.02
  A 0.35 0.35 0.0 0 1 530.70 315.52
  Q 562.18 315.78 593.05 315.53
  Q 597.80 315.49 602.93 314.53
  Q 615.57 312.17 622.79 303.52
  C 634.98 288.93 635.38 267.05 623.21 252.25
  C 615.48 242.84 604.07 239.93 592.38 239.92
  Q 544.34 239.88 495.54 239.89
  A 1.78 1.78 0.0 0 1 493.93 238.87
  L 459.30 165.58
  Q 459.09 165.13 459.59 165.13
  Q 527.35 165.11 594.75 165.13
  C 605.45 165.14 616.23 161.37 623.18 152.83
  C 635.12 138.16 635.19 116.31 623.01 101.79
  C 614.53 91.67 601.88 89.46 589.46 89.46
  Q 509.18 89.52 425.03 89.46
  Q 423.05 89.46 422.07 87.69
  Z"
/>
<path fill="#ffffff" d="
  M 10.24 399.90
  C 56.06 303.03 102.33 204.70 148.62 107.13
  Q 156.49 90.54 171.77 72.95
  Q 185.16 57.53 203.23 46.69
  Q 239.60 24.87 281.14 27.29
  C 316.96 29.39 350.31 46.24 373.75 72.79
  C 385.18 85.74 393.35 99.81 401.15 116.24
  Q 469.03 259.29 535.59 399.75
  Q 535.85 400.29 535.26 400.29
  L 453.47 400.28
  Q 452.85 400.28 452.58 399.72
  Q 394.27 275.50 334.76 148.44
  Q 330.27 138.85 326.37 132.85
  C 314.24 114.21 294.43 100.08 271.46 100.74
  Q 249.33 101.38 232.59 116.76
  C 222.91 125.66 216.98 136.01 210.93 148.79
  Q 151.43 274.43 91.80 399.80
  A 0.88 0.87 -76.8 0 1 91.02 400.29
  L 10.49 400.28
  A 0.27 0.27 0.0 0 1 10.24 399.90
  Z"
/>
</svg>
