<?xml version="1.0" encoding="UTF-8" standalone="no"?>
<!DOCTYPE svg PUBLIC "-//W3C//DTD SVG 1.1//EN" "http://www.w3.org/Graphics/SVG/1.1/DTD/svg11.dtd">
<svg xmlns="http://www.w3.org/2000/svg" version="1.1" viewBox="0.00 0.00 767.00 338.00">
<path fill="#000000" d="
  M 198.79 268.72
  Q 190.48 250.54 188.27 231.61
  C 187.05 221.16 187.10 212.42 188.53 201.38
  C 191.04 182.16 198.04 162.90 210.14 147.75
  C 211.47 146.09 212.52 143.74 212.52 141.54
  Q 212.51 79.54 212.60 15.70
  C 212.61 8.89 217.37 5.97 223.62 5.93
  Q 243.54 5.81 256.97 6.22
  Q 259.32 6.29 261.51 7.42
  A 1.89 1.87 13.5 0 1 262.52 9.05
  Q 262.61 15.82 262.62 22.25
  Q 262.81 163.27 262.68 324.31
  A 3.23 3.23 0.0 0 1 259.46 327.54
  Q 238.14 327.62 219.40 327.52
  C 215.12 327.50 212.61 322.25 212.64 318.53
  Q 212.75 304.48 212.39 291.47
  A 4.02 3.97 -63.6 0 0 211.66 289.26
  C 206.89 282.57 202.28 276.36 198.79 268.72
  Z"
/>
<path fill="#000000" d="
  M 689.78 160.53
  L 689.60 164.15
  A 0.99 0.99 0.0 0 1 688.61 165.09
  L 670.64 165.11
  A 1.09 1.09 0.0 0 1 669.55 164.02
  L 669.60 40.83
  Q 669.60 39.50 670.92 39.49
  L 688.96 39.45
  A 1.02 1.01 0.0 0 1 689.98 40.46
  L 689.98 88.12
  A 1.25 1.25 0.0 0 0 691.60 89.31
  C 692.67 88.98 693.97 87.76 694.82 87.25
  Q 700.42 83.89 706.36 83.11
  Q 708.74 82.79 710.96 82.00
  Q 715.16 80.50 719.36 82.19
  C 721.95 83.23 724.63 82.72 727.08 83.67
  C 733.05 85.98 739.02 89.04 743.38 93.65
  C 745.27 95.66 747.32 97.37 748.97 99.63
  Q 752.65 104.65 754.08 109.02
  C 755.19 112.46 756.58 116.17 756.69 119.80
  C 756.84 124.55 757.24 129.86 755.64 134.41
  C 754.71 137.08 754.06 139.72 752.83 142.31
  Q 743.48 161.96 722.16 166.56
  Q 716.81 167.72 707.40 166.67
  Q 698.11 165.63 690.65 160.12
  Q 689.83 159.51 689.78 160.53
  Z
  M 736.2849 124.7534
  A 23.08 22.75 1.2 0 0 713.6864 101.5250
  A 23.08 22.75 1.2 0 0 690.1351 123.7866
  A 23.08 22.75 1.2 0 0 712.7336 147.0150
  A 23.08 22.75 1.2 0 0 736.2849 124.7534
  Z"
/>
<path fill="#000000" d="
  M 513.58 95.87
  Q 514.63 95.11 515.38 94.06
  C 518.18 90.13 523.02 87.38 527.99 85.22
  Q 533.26 82.93 538.99 82.98
  Q 543.72 83.01 548.85 83.01
  Q 553.02 83.00 557.97 84.78
  C 567.41 88.19 574.55 95.29 578.54 104.59
  Q 580.42 108.96 580.82 112.36
  Q 581.22 115.83 581.38 119.55
  Q 581.55 123.29 581.54 126.92
  Q 581.53 143.57 581.68 161.00
  Q 581.69 162.50 581.42 163.94
  A 1.39 1.39 0.0 0 1 580.05 165.08
  L 561.73 165.11
  A 1.00 1.00 0.0 0 1 560.73 164.11
  Q 560.71 143.86 560.82 123.22
  Q 560.85 116.41 559.33 112.82
  C 556.07 105.08 549.12 102.08 541.08 102.18
  C 530.13 102.32 522.68 110.48 522.09 121.31
  Q 521.95 123.94 521.98 126.60
  Q 522.22 144.17 522.00 163.12
  Q 521.98 164.31 520.80 164.30
  L 502.77 164.26
  A 1.79 1.79 0.0 0 1 500.99 162.45
  Q 501.29 141.18 500.97 118.18
  Q 500.93 115.47 499.84 113.16
  Q 494.48 101.89 481.71 102.07
  C 471.03 102.22 461.88 110.34 461.89 121.18
  Q 461.93 141.75 461.87 162.24
  Q 461.86 164.34 459.76 164.32
  L 443.27 164.18
  Q 441.36 164.17 441.36 162.25
  L 441.32 85.59
  A 0.85 0.84 -0.3 0 1 442.16 84.75
  L 459.29 84.62
  A 0.86 0.86 0.0 0 1 460.16 85.46
  L 460.29 90.22
  Q 460.34 91.77 461.42 90.67
  Q 464.78 87.24 470.63 84.68
  Q 474.53 82.98 479.19 82.98
  C 484.41 82.97 490.26 82.45 495.19 84.20
  C 500.14 85.95 504.85 87.70 508.54 91.55
  Q 510.57 93.66 512.45 95.75
  Q 512.96 96.32 513.58 95.87
  Z"
/>
<path fill="#000000" d="
  M 629.67 104.12
  C 620.84 99.17 610.04 101.28 601.99 107.08
  Q 600.81 107.92 600.14 106.65
  Q 596.08 99.01 590.63 93.38
  A 0.95 0.95 0.0 0 1 590.70 92.00
  C 596.08 87.47 605.19 82.90 612.27 82.98
  Q 618.23 83.05 624.61 82.95
  Q 629.39 82.88 634.44 84.76
  Q 653.18 91.74 660.20 110.48
  Q 661.20 113.15 661.47 116.15
  C 661.85 120.42 663.12 124.01 662.41 128.59
  C 660.67 139.94 655.08 151.22 645.82 157.79
  Q 632.86 166.97 618.75 167.05
  C 609.23 167.10 600.17 164.05 591.83 159.28
  Q 590.60 158.57 591.46 157.45
  L 602.06 143.61
  A 0.83 0.83 0.0 0 1 603.04 143.35
  Q 606.52 144.81 609.91 145.83
  Q 613.87 147.01 620.00 146.81
  Q 624.89 146.64 629.25 144.35
  Q 644.01 136.59 641.20 119.11
  C 640.18 112.79 635.12 107.17 629.67 104.12
  Z"
/>
<path fill="#000000" d="
  M 385.54 96.57
  Q 386.24 96.52 386.73 96.04
  C 391.59 91.32 398.03 87.47 404.80 86.49
  C 407.70 86.07 410.43 85.29 413.40 85.25
  Q 420.22 85.17 427.17 85.04
  Q 428.73 85.01 428.26 86.50
  L 422.98 103.26
  A 1.96 1.96 0.0 0 1 421.07 104.63
  Q 416.82 104.53 412.36 104.63
  Q 409.60 104.70 407.26 105.37
  C 404.90 106.04 402.65 106.26 400.42 107.27
  Q 390.05 111.99 386.60 121.09
  Q 384.89 125.58 384.88 130.88
  Q 384.85 146.64 384.94 162.92
  Q 384.94 164.33 383.53 164.33
  L 364.98 164.27
  A 1.29 1.29 0.0 0 1 363.70 162.98
  L 363.69 87.74
  A 2.58 2.58 0.0 0 1 366.27 85.16
  L 383.53 85.13
  A 1.15 1.15 0.0 0 1 384.68 86.27
  L 384.76 95.86
  Q 384.77 96.63 385.54 96.57
  Z"
/>
<path fill="#000000" d="
  M 325.03 111.48
  A 0.82 0.82 0.0 0 0 325.52 110.34
  C 320.97 100.74 312.41 101.26 303.27 101.38
  C 296.06 101.48 290.01 102.90 283.69 106.12
  Q 281.67 107.14 280.66 105.12
  L 274.54 92.99
  A 2.09 2.08 67.8 0 1 275.76 90.07
  C 280.18 88.64 284.85 87.37 289.48 86.81
  C 293.88 86.27 298.05 85.18 302.53 85.16
  Q 310.42 85.12 317.49 85.28
  Q 319.96 85.34 327.17 87.94
  Q 338.72 92.11 343.41 103.62
  Q 344.64 106.64 344.65 109.39
  C 344.66 112.61 346.31 114.97 346.31 118.09
  Q 346.30 140.44 346.30 162.77
  A 1.50 1.50 0.0 0 1 344.80 164.27
  L 329.29 164.31
  Q 328.87 164.31 328.56 164.04
  Q 327.11 162.83 326.41 160.83
  A 1.17 1.16 59.9 0 0 324.55 160.33
  C 321.55 162.89 316.83 164.90 312.73 165.37
  C 309.49 165.74 306.61 167.19 303.29 166.67
  Q 300.17 166.17 296.73 165.50
  C 287.92 163.77 280.73 159.31 275.34 151.87
  Q 273.48 149.31 272.71 146.42
  C 271.92 143.43 270.92 140.08 271.01 137.04
  Q 271.52 120.88 283.85 112.91
  Q 287.37 110.63 292.65 108.91
  Q 296.72 107.58 301.65 106.69
  Q 304.12 106.25 308.44 106.42
  C 310.98 106.52 312.84 107.52 315.23 107.95
  C 318.34 108.52 321.05 110.02 323.85 111.39
  Q 324.43 111.67 325.03 111.48
  Z
  M 314.42 122.33
  Q 312.23 121.67 309.99 121.50
  Q 301.23 120.81 295.26 126.16
  C 293.37 127.85 292.31 130.38 291.56 132.73
  Q 290.42 136.31 291.92 139.79
  Q 295.77 148.70 305.31 149.95
  Q 313.82 151.06 320.24 145.44
  C 324.57 141.65 325.81 137.13 324.85 131.68
  Q 323.84 125.97 318.65 123.82
  Q 316.71 123.02 314.42 122.33
  Z"
/>
<circle fill="#ff5806" cx="617.80" cy="124.05" r="15.44"/>
<path fill="#000000" d="
  M 154.73 148.79
  C 144.59 143.40 131.31 140.02 119.48 139.96
  Q 89.28 139.80 66.64 159.32
  Q 49.20 174.35 42.51 196.83
  C 35.51 220.34 40.01 245.53 53.90 265.33
  C 65.51 281.89 85.59 295.09 106.00 297.48
  Q 107.69 297.68 109.08 298.07
  C 112.93 299.17 117.34 298.91 121.54 298.81
  Q 124.62 298.74 127.59 297.94
  C 130.30 297.21 133.17 297.21 135.99 296.53
  Q 155.76 291.81 171.00 278.40
  C 175.63 274.33 179.07 269.31 183.17 264.60
  A 0.66 0.66 0.0 0 1 184.28 264.78
  Q 189.86 277.96 198.87 290.09
  A 1.30 1.30 0.0 0 1 198.84 291.68
  Q 196.84 294.16 194.60 296.39
  Q 174.23 316.66 146.17 324.42
  Q 142.57 325.41 139.65 325.80
  C 136.60 326.20 133.98 327.41 130.88 327.47
  Q 118.86 327.67 105.32 327.46
  Q 103.35 327.43 101.60 326.79
  C 99.38 325.98 97.16 326.07 95.00 325.56
  C 74.89 320.81 58.10 311.81 43.99 298.49
  Q 37.78 292.62 31.43 284.14
  C 20.27 269.22 12.61 251.00 10.80 232.33
  C 10.20 226.11 9.26 219.87 10.00 213.59
  Q 10.41 210.08 10.85 206.19
  Q 12.78 189.14 18.93 175.72
  Q 41.49 126.45 94.83 113.00
  Q 99.19 111.90 104.21 111.56
  Q 108.10 111.29 112.51 110.40
  Q 118.68 109.15 125.97 110.75
  C 129.64 111.56 133.22 111.32 136.75 111.98
  Q 170.23 118.28 194.72 142.02
  A 1.83 1.83 0.0 0 1 194.97 144.35
  Q 187.71 155.20 182.93 167.79
  Q 182.26 169.55 182.10 171.39
  A 0.53 0.53 0.0 0 1 181.14 171.65
  Q 170.75 157.30 154.73 148.79
  Z"
/>
<ellipse fill="#ff0909" cx="0.00" cy="0.00" transform="translate(118.09,217.95) rotate(-0.6)" rx="44.93" ry="44.39"/>
<path fill="#000000" d="
  M 642.74 286.02
  Q 642.37 284.10 641.18 285.66
  Q 634.81 294.00 625.36 295.91
  C 618.57 297.29 613.25 295.12 611.64 287.67
  C 611.42 286.65 612.06 285.85 611.80 284.88
  Q 611.26 282.85 610.15 284.63
  Q 604.77 293.25 596.10 296.35
  C 590.28 298.44 584.78 296.33 582.53 290.39
  Q 580.52 285.08 581.32 280.51
  A 0.61 0.60 0.6 0 0 580.63 279.81
  Q 579.95 279.93 579.43 280.37
  C 574.28 284.69 568.82 284.63 562.67 283.69
  A 2.60 2.59 22.9 0 0 560.22 284.68
  Q 555.24 291.24 547.88 295.50
  C 543.38 298.11 536.01 298.28 532.92 293.37
  Q 530.27 289.14 530.59 283.35
  Q 530.62 282.86 529.99 282.74
  A 1.10 1.08 28.1 0 0 529.04 283.02
  C 526.79 285.19 523.30 287.70 519.93 287.56
  C 517.80 287.47 515.85 287.77 513.90 286.63
  Q 511.68 285.33 509.54 284.09
  A 0.66 0.65 13.6 0 0 508.55 284.69
  C 508.73 288.23 509.09 292.18 507.70 295.52
  C 506.79 297.70 507.15 300.01 506.53 302.34
  Q 503.71 312.92 499.34 320.99
  Q 497.12 325.07 494.36 327.70
  C 492.90 329.10 489.39 330.89 487.14 330.19
  C 481.37 328.40 482.50 325.22 480.72 320.67
  C 479.96 318.72 480.30 316.25 481.02 314.29
  Q 482.14 311.25 482.05 307.54
  C 481.99 305.15 483.21 303.10 483.63 300.70
  Q 484.92 293.25 487.60 285.96
  A 0.53 0.53 0.0 0 0 486.95 285.27
  Q 486.08 285.54 485.47 286.28
  Q 477.87 295.64 468.87 298.39
  Q 466.35 299.16 462.60 299.12
  C 454.54 299.05 450.17 292.59 451.68 284.79
  Q 451.83 283.99 451.66 283.24
  A 0.67 0.67 0.0 0 0 450.51 282.94
  C 443.83 290.28 436.67 297.58 425.71 295.89
  C 417.14 294.57 417.86 285.69 420.30 279.79
  C 421.95 275.82 424.17 271.73 425.01 267.52
  C 425.44 265.33 426.39 263.23 425.75 260.99
  Q 424.35 256.06 419.43 253.34
  Q 418.35 252.75 417.90 253.89
  Q 414.29 262.86 409.31 273.25
  C 405.00 282.24 396.77 285.96 386.79 283.45
  A 1.62 1.61 26.3 0 0 385.12 284.01
  C 380.49 289.83 373.11 297.15 365.33 297.30
  Q 359.38 297.41 356.87 292.64
  C 354.80 288.71 354.19 284.94 355.26 280.46
  Q 357.45 271.29 361.79 265.02
  Q 364.50 261.11 370.29 259.28
  Q 370.84 259.11 371.14 259.60
  Q 372.15 261.25 371.00 262.99
  Q 365.89 270.71 363.80 281.32
  Q 363.10 284.89 364.03 288.28
  C 365.17 292.45 370.57 291.88 373.24 289.95
  Q 377.99 286.49 381.80 282.20
  A 1.39 1.38 -44.8 0 0 381.81 280.38
  Q 377.25 275.11 375.48 268.48
  Q 374.63 265.31 374.93 261.05
  Q 375.72 249.70 385.03 246.11
  Q 388.19 244.89 390.66 245.93
  C 393.64 247.19 396.12 248.63 396.49 252.24
  Q 397.11 258.37 396.09 262.76
  Q 394.18 271.01 388.50 278.98
  A 0.98 0.98 0.0 0 0 388.97 280.47
  Q 390.88 281.15 393.02 281.38
  C 398.19 281.94 404.39 277.17 406.42 273.46
  Q 410.65 265.74 415.05 253.73
  C 416.03 251.05 415.02 249.19 414.97 246.57
  Q 414.90 242.41 418.94 239.19
  Q 419.53 238.72 420.19 238.60
  A 1.80 1.80 0.0 0 1 422.29 240.63
  C 421.76 244.31 419.46 247.27 423.46 250.11
  C 427.05 252.66 433.17 257.26 434.07 261.79
  C 435.32 268.07 432.62 274.42 429.75 280.26
  C 428.21 283.39 428.09 286.50 428.56 289.81
  A 1.58 1.57 -0.7 0 0 429.94 291.15
  C 432.49 291.45 435.13 291.31 437.47 290.05
  C 444.05 286.51 451.91 279.32 453.34 271.72
  Q 453.71 269.74 454.25 267.87
  Q 456.18 261.19 458.45 254.82
  A 1.29 1.28 9.4 0 0 457.22 253.10
  L 455.69 253.13
  Q 454.22 253.15 453.69 251.78
  Q 453.57 251.48 453.65 251.17
  Q 453.91 250.12 454.99 250.29
  L 458.20 250.78
  A 1.50 1.48 29.2 0 0 459.40 250.45
  Q 460.64 249.44 461.21 247.95
  Q 466.12 235.15 473.39 223.04
  Q 476.21 218.35 480.52 214.13
  Q 481.58 213.08 482.88 213.07
  C 486.35 213.05 486.41 217.11 485.17 219.42
  C 479.94 229.19 473.52 239.44 468.89 249.95
  A 0.89 0.89 0.0 0 0 469.73 251.20
  L 491.29 250.54
  Q 492.27 250.51 492.12 251.48
  Q 492.09 251.70 492.04 251.92
  Q 491.74 253.31 490.32 253.24
  Q 487.25 253.11 484.25 253.46
  C 479.16 254.05 473.93 253.85 468.75 253.90
  A 2.80 2.78 -78.6 0 0 466.20 255.60
  C 463.65 261.54 461.34 267.98 460.33 274.42
  Q 459.73 278.24 459.16 281.81
  Q 458.64 284.99 459.84 288.92
  C 462.72 298.37 474.95 293.00 479.67 288.66
  Q 489.11 279.99 492.89 269.09
  C 500.03 248.48 508.46 228.70 520.53 210.71
  C 524.38 204.95 531.89 195.52 539.71 197.07
  C 543.58 197.83 542.80 205.09 542.12 207.72
  Q 540.46 214.19 536.19 221.11
  Q 525.47 238.49 508.99 251.00
  C 506.78 252.67 505.42 255.43 505.01 258.11
  Q 504.92 258.72 505.27 259.23
  Q 508.66 264.19 508.68 269.43
  C 508.70 272.23 510.05 274.31 510.60 276.96
  C 511.04 279.11 512.48 280.99 514.02 282.53
  C 515.53 284.05 517.38 283.95 519.35 284.08
  Q 524.80 284.45 528.90 279.15
  Q 532.82 274.08 535.37 268.50
  Q 538.61 261.38 546.29 259.22
  Q 546.79 259.08 547.05 259.53
  Q 547.89 261.03 546.91 262.57
  Q 542.20 269.96 539.49 280.85
  C 539.08 282.47 538.81 286.08 539.36 287.67
  C 541.00 292.50 546.49 292.16 549.79 289.37
  Q 553.88 285.89 557.65 281.97
  A 0.97 0.96 47.1 0 0 557.69 280.68
  Q 552.73 274.85 550.77 267.23
  Q 550.37 265.68 550.63 260.28
  Q 550.77 257.50 551.76 255.28
  C 552.94 252.64 554.42 249.27 557.07 247.88
  C 560.12 246.29 563.68 244.47 567.08 246.07
  Q 572.11 248.43 572.43 253.50
  C 572.65 257.07 572.57 260.60 571.53 264.04
  Q 569.04 272.38 564.18 279.09
  A 0.93 0.93 0.0 0 0 564.68 280.53
  Q 572.67 282.83 579.04 277.20
  C 581.22 275.27 582.67 273.03 583.32 270.15
  Q 585.55 260.29 590.42 248.57
  Q 599.48 226.75 611.16 208.55
  C 613.79 204.45 616.66 200.83 620.32 197.73
  C 622.85 195.59 625.09 197.32 625.96 199.91
  C 628.09 206.18 626.98 211.96 624.87 217.86
  C 617.97 237.11 607.15 254.84 592.45 268.34
  C 591.22 269.46 590.79 271.55 590.80 273.16
  Q 590.84 277.03 590.41 280.88
  C 590.15 283.17 590.73 285.22 590.72 287.50
  C 590.70 290.85 593.48 292.81 596.74 292.47
  C 602.46 291.87 607.83 284.66 610.69 279.97
  Q 613.30 275.68 615.16 269.53
  C 617.43 262.07 622.42 249.92 630.34 247.31
  A 2.02 2.02 0.0 0 1 632.97 248.95
  C 633.35 251.79 632.64 254.38 631.06 256.78
  C 627.10 262.78 623.00 270.07 620.87 277.12
  C 619.46 281.80 617.97 285.32 621.28 289.93
  Q 621.97 290.89 623.14 291.07
  Q 629.32 292.00 633.01 289.40
  C 637.50 286.23 641.44 281.81 643.77 276.85
  Q 645.85 272.41 648.12 267.86
  Q 651.38 261.31 658.50 259.28
  Q 659.05 259.12 659.34 259.62
  C 660.01 260.74 659.74 262.06 659.04 263.12
  Q 653.41 271.67 651.73 282.40
  Q 651.28 285.26 652.05 287.99
  C 653.29 292.34 658.36 292.11 661.30 289.97
  Q 665.86 286.64 669.70 282.35
  A 1.65 1.65 0.0 0 0 669.71 280.16
  Q 661.65 271.01 663.26 258.94
  Q 664.63 248.64 674.29 245.76
  Q 676.73 245.03 678.96 245.90
  Q 684.49 248.05 684.78 253.62
  Q 685.11 260.04 683.84 264.34
  Q 681.59 271.99 676.73 278.67
  Q 675.75 280.02 677.32 280.57
  C 684.37 283.03 691.62 278.74 694.96 272.69
  Q 695.43 271.84 696.39 271.97
  Q 696.54 272.00 696.69 272.03
  A 0.67 0.66 16.9 0 1 697.16 272.90
  Q 694.28 280.66 686.63 283.33
  C 682.98 284.61 678.50 284.29 674.68 283.56
  A 1.63 1.63 0.0 0 0 673.14 284.11
  C 669.14 288.80 665.23 292.94 659.61 295.73
  C 656.44 297.30 652.10 297.86 648.96 296.61
  C 645.06 295.06 643.50 289.87 642.74 286.02
  Z
  M 509.92 244.43
  C 509.65 245.00 509.05 245.64 508.86 246.21
  Q 508.79 246.39 508.97 246.48
  Q 509.09 246.54 509.23 246.58
  Q 509.65 246.69 509.96 246.39
  Q 518.77 237.94 526.26 228.11
  Q 532.42 220.04 536.38 211.70
  C 537.21 209.97 537.44 208.27 537.21 206.39
  A 1.36 1.36 0.0 0 0 535.37 205.30
  C 529.52 207.60 526.44 212.71 523.27 217.79
  Q 520.62 222.04 518.62 226.22
  Q 514.30 235.22 509.92 244.43
  Z
  M 622.79 207.84
  A 0.72 0.72 0.0 0 0 621.59 207.47
  Q 620.08 208.91 618.84 210.61
  C 608.57 224.78 600.60 241.70 595.06 257.80
  Q 594.07 260.66 593.03 263.26
  Q 592.76 263.92 593.43 263.67
  Q 594.46 263.27 595.33 262.18
  Q 610.43 243.32 619.31 222.94
  C 621.30 218.38 623.84 212.89 622.79 207.84
  Z
  M 385.44 277.00
  C 390.33 269.88 393.75 261.22 392.07 252.55
  C 391.80 251.15 390.61 250.02 389.45 249.25
  Q 389.01 248.95 388.49 249.06
  C 385.33 249.74 382.34 254.42 381.45 257.06
  C 380.51 259.86 380.79 263.23 380.89 266.13
  Q 381.09 271.92 384.75 277.00
  A 0.42 0.42 0.0 0 0 385.44 277.00
  Z
  M 565.70 268.41
  C 566.23 266.89 567.24 265.37 567.50 263.86
  Q 568.47 258.14 567.83 253.04
  C 567.60 251.22 565.43 248.16 563.26 249.45
  C 554.05 254.91 554.88 267.99 559.73 276.11
  Q 560.58 277.54 561.57 276.20
  Q 564.22 272.61 565.70 268.41
  Z
  M 673.66 276.56
  C 678.53 270.02 681.25 261.82 680.32 253.55
  C 680.04 251.01 677.66 247.76 674.83 249.87
  C 671.24 252.52 668.77 256.59 668.95 261.05
  Q 669.03 263.01 668.94 264.92
  C 668.73 269.11 670.21 272.96 672.32 276.49
  A 0.81 0.81 0.0 0 0 673.66 276.56
  Z
  M 495.57 286.30
  C 492.45 296.68 490.05 306.63 489.08 316.25
  C 488.88 318.25 489.22 321.96 490.83 323.53
  A 1.38 1.37 -42.9 0 0 492.68 323.59
  C 496.58 320.28 498.91 314.54 500.48 309.64
  Q 503.20 301.17 504.85 291.51
  Q 506.55 281.51 502.50 272.30
  Q 500.82 268.48 499.66 272.49
  Q 497.73 279.13 495.57 286.30
  Z"
/>
<path fill="#000000" d="
  M 322.40 200.51
  A 0.49 0.48 71.5 0 0 321.82 200.21
  Q 313.66 202.50 306.65 206.80
  Q 304.58 208.08 302.47 206.85
  Q 301.86 206.49 301.37 205.97
  Q 299.68 204.20 301.94 203.25
  Q 313.06 198.55 321.86 197.32
  C 327.29 196.56 334.40 196.56 339.86 197.82
  Q 345.04 199.02 350.46 201.77
  C 354.18 203.65 357.05 206.49 359.76 209.62
  Q 364.19 214.74 363.87 223.68
  Q 363.69 228.73 362.02 232.31
  C 355.14 247.03 333.70 251.90 318.90 253.17
  Q 316.12 253.41 313.49 252.96
  A 1.69 1.68 -77.2 0 0 311.57 254.17
  L 297.75 303.27
  A 1.79 1.79 0.0 0 1 295.56 304.51
  C 291.87 303.51 286.88 301.14 288.34 296.23
  Q 289.05 293.82 289.78 291.54
  Q 296.64 270.14 304.91 246.28
  Q 312.83 223.44 322.39 201.22
  Q 322.54 200.86 322.40 200.51
  Z
  M 330.08 201.02
  C 323.03 216.52 317.78 232.48 313.02 248.63
  Q 312.70 249.71 312.74 250.78
  A 0.58 0.58 0.0 0 0 313.38 251.34
  Q 323.92 250.23 333.07 246.84
  C 342.46 243.37 351.04 236.62 354.20 226.98
  Q 354.90 224.86 354.81 222.60
  C 354.67 219.03 355.19 215.73 353.80 212.34
  C 350.37 203.96 341.64 199.89 333.01 199.68
  Q 331.79 199.66 330.76 200.26
  Q 330.30 200.53 330.08 201.02
  Z"
/>
<ellipse fill="#000000" cx="0.00" cy="0.00" transform="translate(639.45,229.52) rotate(-28.4)" rx="7.40" ry="5.11"/>
</svg>
