<?xml version="1.0" encoding="UTF-8" standalone="no"?>
<!DOCTYPE svg PUBLIC "-//W3C//DTD SVG 1.1//EN" "http://www.w3.org/Graphics/SVG/1.1/DTD/svg11.dtd">
<svg xmlns="http://www.w3.org/2000/svg" version="1.1" viewBox="0.00 0.00 849.00 372.00">
<path stroke="#ff8484" stroke-width="2.30" fill="none" stroke-linecap="butt" vector-effect="non-scaling-stroke" d="
  M 420.72 101.02
  L 420.70 102.99
  Q 420.70 103.58 421.23 103.31
  Q 421.96 102.94 422.48 101.77"
/>
<path fill="#ffffff" d="
  M 237.37 0.00
  L 277.50 0.00
  Q 280.96 0.49 283.64 2.67
  Q 284.02 2.99 284.02 3.49
  L 284.02 358.75
  Q 284.02 359.25 283.64 359.57
  Q 280.81 361.92 277.42 361.88
  Q 258.34 361.65 238.74 361.90
  Q 235.07 361.95 233.10 360.88
  C 229.26 358.80 227.41 355.17 227.44 350.90
  Q 227.55 336.28 227.44 322.12
  C 227.42 319.92 226.61 318.04 225.25 316.32
  Q 217.64 306.66 213.61 298.58
  C 193.81 258.95 194.45 210.93 216.00 172.07
  C 218.94 166.77 222.93 162.00 226.39 156.98
  A 5.26 5.23 64.2 0 0 227.31 154.32
  Q 227.52 151.25 227.51 148.00
  Q 227.44 80.25 227.46 12.50
  Q 227.46 1.69 237.37 0.00
  Z"
/>
<path fill="#ffffff" d="
  M 761.99 173.50
  L 762.15 178.11
  A 0.52 0.52 0.0 0 1 761.63 178.65
  L 741.45 178.61
  Q 740.37 178.61 740.37 177.52
  Q 740.40 126.81 740.32 74.25
  Q 740.29 56.12 740.55 38.65
  Q 740.56 38.07 741.14 38.04
  Q 750.74 37.65 762.43 37.89
  Q 763.49 37.91 763.49 38.97
  L 763.52 92.55
  A 1.08 1.08 0.0 0 0 764.73 93.62
  Q 764.90 93.60 765.06 93.54
  Q 765.28 93.46 765.48 93.32
  Q 771.70 88.87 779.18 87.00
  Q 784.51 85.67 789.61 85.28
  Q 793.19 85.01 796.99 85.81
  C 800.23 86.50 803.39 86.69 806.51 88.03
  Q 816.84 92.46 822.82 98.12
  Q 839.32 113.72 838.00 136.12
  Q 837.31 147.73 829.89 160.01
  Q 828.13 162.93 825.42 165.47
  C 823.01 167.72 820.87 170.27 818.24 172.16
  Q 808.34 179.28 796.00 180.82
  Q 793.41 181.14 787.82 180.97
  C 778.72 180.70 770.53 178.06 762.93 172.98
  Q 761.95 172.33 761.99 173.50
  Z
  M 815.0069 134.2888
  A 25.87 25.61 2.9 0 0 790.4657 107.4028
  A 25.87 25.61 2.9 0 0 763.3331 131.6712
  A 25.87 25.61 2.9 0 0 787.8743 158.5572
  A 25.87 25.61 2.9 0 0 815.0069 134.2888
  Z"
/>
<path fill="#ffffff" d="
  M 506.27 95.26
  Q 512.50 89.96 517.56 88.24
  Q 528.69 84.46 540.72 87.03
  Q 556.63 90.42 564.44 101.32
  Q 564.89 101.96 565.37 101.34
  C 566.98 99.23 568.38 97.11 570.50 95.41
  C 584.50 84.20 604.14 83.26 620.10 90.71
  Q 623.51 92.31 625.99 94.75
  C 629.19 97.90 632.82 101.00 635.09 104.89
  C 638.09 110.07 640.91 117.11 641.03 123.29
  C 641.08 125.75 641.67 128.10 641.68 130.60
  Q 641.75 152.90 641.68 175.59
  Q 641.67 176.66 641.50 177.73
  A 1.06 1.06 0.0 0 1 640.45 178.63
  L 619.23 178.59
  A 0.74 0.74 0.0 0 1 618.49 177.85
  Q 618.49 155.60 618.49 132.92
  C 618.49 129.83 618.15 127.02 617.73 123.98
  Q 617.46 122.07 616.87 120.68
  C 613.78 113.36 606.92 108.32 598.79 108.46
  C 594.90 108.53 591.23 108.02 587.63 109.73
  Q 579.75 113.50 576.56 121.00
  Q 574.69 125.41 574.65 136.02
  C 574.60 149.71 574.87 163.74 574.62 177.26
  A 0.66 0.65 -89.6 0 1 573.97 177.91
  L 552.33 177.84
  A 0.86 0.85 -90.0 0 1 551.48 176.98
  Q 551.62 153.80 551.44 129.61
  Q 551.32 115.29 538.70 109.43
  Q 536.89 108.59 534.75 108.46
  C 532.70 108.32 530.95 107.55 528.81 107.89
  C 524.10 108.65 520.15 109.12 516.15 112.14
  Q 507.10 118.95 507.06 130.38
  Q 506.98 153.75 507.09 177.05
  Q 507.09 177.90 506.25 177.89
  L 485.05 177.84
  Q 484.06 177.84 483.97 176.85
  Q 483.80 174.90 483.80 172.99
  Q 483.75 126.96 483.86 88.65
  A 0.39 0.39 0.0 0 1 484.25 88.26
  L 504.75 88.26
  A 0.75 0.74 89.6 0 1 505.49 89.00
  L 505.51 94.91
  Q 505.51 95.90 506.27 95.26
  Z"
/>
<path fill="#ffffff" d="
  M 707.62 141.67
  C 709.00 137.90 708.73 134.55 708.78 130.60
  C 708.89 123.14 704.83 118.15 699.63 113.37
  C 691.99 106.35 681.41 105.42 671.87 109.56
  Q 668.05 111.21 664.10 113.68
  A 1.23 1.22 58.8 0 1 662.38 113.25
  Q 657.60 104.87 651.68 97.67
  Q 651.23 97.11 651.79 96.66
  Q 660.16 89.83 670.82 87.06
  C 676.21 85.66 681.88 86.10 687.54 86.04
  Q 690.72 86.01 693.83 86.68
  Q 705.01 89.08 713.42 95.37
  C 727.34 105.79 733.45 121.70 731.84 139.32
  Q 731.49 143.24 729.67 147.88
  C 726.22 156.71 721.69 164.60 714.08 170.18
  Q 705.40 176.54 694.47 179.61
  Q 692.28 180.22 690.06 180.27
  C 688.13 180.31 686.33 180.93 684.38 180.97
  C 673.63 181.14 663.93 178.16 654.51 173.09
  Q 653.33 172.45 652.42 171.53
  A 0.87 0.86 -48.7 0 1 652.35 170.38
  L 664.84 154.30
  A 0.83 0.82 -56.4 0 1 665.90 154.08
  Q 674.55 158.97 684.27 158.45
  Q 689.94 158.15 695.98 154.90
  Q 704.46 150.34 707.62 141.67
  Z"
/>
<path fill="#ffffff" d="
  M 354.50 119.14
  C 352.75 110.59 345.46 107.68 337.63 107.17
  C 325.84 106.41 315.80 107.81 305.98 113.21
  A 1.03 1.03 0.0 0 1 304.56 112.76
  L 297.01 97.58
  Q 295.88 95.30 298.31 94.54
  C 303.17 93.02 307.95 91.65 312.95 90.94
  Q 317.00 90.36 320.98 89.77
  Q 325.68 89.07 329.23 89.11
  Q 334.03 89.15 338.71 89.04
  C 346.80 88.84 355.37 90.78 361.99 94.93
  Q 365.51 97.15 369.34 101.31
  Q 371.69 103.88 373.38 107.81
  Q 375.46 112.66 375.89 115.75
  C 376.33 118.98 376.95 122.22 376.96 125.52
  Q 377.05 151.26 376.98 177.19
  A 0.73 0.72 -89.6 0 1 376.26 177.91
  L 357.54 177.91
  Q 356.91 177.91 356.66 177.33
  L 354.80 172.97
  A 0.45 0.45 0.0 0 0 354.10 172.80
  Q 349.01 177.05 341.06 178.95
  Q 324.45 182.93 309.51 174.60
  Q 298.06 168.23 294.22 155.38
  Q 293.29 152.27 293.43 149.10
  C 293.57 145.92 293.15 142.76 293.98 139.57
  C 297.82 124.82 307.35 118.20 321.01 114.52
  Q 327.68 112.72 335.25 113.23
  Q 345.27 113.91 353.89 119.56
  A 0.40 0.40 0.0 0 0 354.50 119.14
  Z
  M 340.76 130.66
  Q 336.08 130.10 329.74 130.53
  Q 325.83 130.80 323.54 132.55
  C 321.17 134.37 318.78 135.75 317.54 138.67
  Q 312.97 149.43 321.19 157.28
  C 323.50 159.48 327.36 161.22 330.42 161.37
  C 334.92 161.60 340.58 161.97 344.64 159.41
  C 347.57 157.56 351.56 154.14 352.84 150.85
  Q 354.17 147.43 353.65 142.18
  C 352.97 135.25 347.02 131.40 340.76 130.66
  Z"
/>
<path fill="#ffffff" d="
  M 420.72 101.02
  L 420.70 102.99
  Q 420.70 103.58 421.23 103.31
  Q 421.96 102.94 422.48 101.77
  Q 431.16 92.49 444.06 90.29
  Q 446.12 89.93 448.19 89.52
  Q 450.32 89.10 452.22 89.10
  Q 459.56 89.11 467.73 89.12
  A 1.59 1.59 0.0 0 1 469.24 91.19
  L 463.43 109.45
  A 2.08 2.07 8.7 0 1 461.47 110.88
  Q 457.18 110.88 453.24 110.86
  C 449.90 110.85 446.63 111.68 443.27 112.27
  Q 441.34 112.61 439.30 113.44
  C 429.47 117.42 421.21 125.93 421.23 137.04
  Q 421.27 157.58 421.25 177.10
  A 0.81 0.80 -0.0 0 1 420.44 177.90
  L 397.81 177.87
  A 0.56 0.56 0.0 0 1 397.25 177.31
  L 397.28 91.78
  Q 397.28 89.09 399.97 89.09
  L 419.53 89.09
  A 1.04 1.03 0.0 0 1 420.56 90.11
  L 420.72 101.02
  Z"
/>
<path fill="#ff0909" d="
  M 420.72 101.02
  Q 421.48 102.55 422.48 101.77
  Q 421.96 102.94 421.23 103.31
  Q 420.70 103.58 420.70 102.99
  L 420.72 101.02
  Z"
/>
<ellipse fill="#ff0909" cx="0.00" cy="0.00" transform="translate(681.20,132.67) rotate(88.7)" rx="15.61" ry="15.46"/>
<path fill="#ffffff" d="
  M 0.00 240.87
  L 0.00 238.25
  Q 0.37 234.97 0.51 231.66
  Q 0.69 227.29 0.98 225.07
  Q 7.25 177.22 43.50 146.26
  C 71.05 122.72 108.33 112.50 144.97 119.72
  Q 180.97 126.83 207.94 153.43
  Q 208.63 154.11 208.09 154.92
  Q 200.62 166.21 195.57 178.21
  Q 194.00 181.94 193.03 185.95
  A 0.41 0.41 0.0 0 1 192.31 186.11
  C 188.73 181.76 185.33 177.19 181.06 173.38
  C 136.64 133.73 67.14 147.51 41.69 201.31
  C 22.74 241.38 35.87 289.70 73.01 314.16
  C 106.75 336.38 150.03 333.12 180.59 306.41
  C 185.83 301.82 190.15 295.78 194.66 290.37
  Q 195.16 289.77 195.48 290.48
  C 200.21 300.72 205.36 310.79 212.47 319.47
  Q 212.82 319.90 212.49 320.35
  Q 209.23 324.63 206.01 327.73
  C 177.50 355.17 138.02 367.04 98.95 359.69
  C 75.85 355.34 53.36 343.72 36.55 326.85
  C 15.71 305.93 2.21 278.17 0.56 248.61
  Q 0.35 244.73 0.00 240.87
  Z"
/>
<ellipse fill="#ff0909" cx="0.00" cy="0.00" transform="translate(122.60,238.68) rotate(89.9)" rx="53.10" ry="52.45"/>
<path fill="#ffffff" d="
  M 351.06 219.10
  A 0.48 0.48 0.0 0 0 350.53 218.43
  C 343.41 219.98 337.96 222.89 331.79 226.15
  Q 330.08 227.04 328.61 225.81
  L 326.51 224.05
  Q 325.10 222.86 326.80 222.12
  C 344.57 214.43 362.23 210.94 379.99 218.93
  C 387.43 222.28 394.99 229.14 396.71 237.39
  C 403.38 269.28 361.28 278.06 339.03 277.93
  A 0.38 0.37 -81.7 0 0 338.67 278.20
  L 322.80 334.74
  Q 322.54 335.69 321.57 335.54
  C 317.82 335.00 312.05 332.62 312.31 328.20
  Q 312.43 326.00 313.09 323.95
  C 321.65 297.18 330.46 270.33 340.44 244.23
  Q 345.30 231.52 351.06 219.10
  Z
  M 340.10 275.55
  C 355.88 274.22 371.89 269.61 381.87 257.14
  Q 388.84 248.44 386.96 235.80
  C 385.13 223.55 372.68 217.77 360.88 217.45
  Q 360.19 217.43 359.89 218.04
  C 351.07 236.15 345.21 255.69 339.55 274.88
  Q 339.33 275.62 340.10 275.55
  Z"
/>
<path fill="#ffffff" d="
  M 536.00 312.34
  C 531.61 317.68 527.43 322.17 521.35 325.82
  C 515.60 329.26 506.44 330.99 500.67 327.38
  C 495.02 323.83 494.75 316.62 495.22 310.39
  Q 495.30 309.39 494.71 310.20
  C 488.02 319.31 476.87 329.05 465.21 325.56
  C 453.35 322.01 460.78 306.17 464.07 299.08
  Q 466.43 294.02 466.75 288.98
  C 467.14 282.77 463.11 280.72 459.07 277.44
  Q 458.42 276.91 458.12 277.69
  Q 453.51 289.58 446.91 302.54
  Q 445.31 305.67 442.66 307.83
  Q 435.81 313.42 426.93 312.83
  C 425.16 312.72 423.92 312.12 422.29 311.66
  Q 421.73 311.50 421.37 311.97
  Q 415.76 319.30 408.94 324.01
  C 404.43 327.12 397.69 328.63 392.70 325.87
  C 387.54 323.02 386.60 314.68 387.41 309.50
  C 388.74 301.00 394.12 286.96 403.83 285.00
  Q 405.58 284.65 406.90 285.78
  Q 407.26 286.09 406.91 286.42
  Q 405.85 287.42 405.08 288.70
  Q 400.03 297.10 397.52 307.35
  C 396.31 312.31 395.97 322.80 404.18 320.81
  C 409.18 319.59 414.82 313.34 418.00 309.49
  Q 418.36 309.05 417.94 308.68
  Q 412.17 303.59 410.19 294.53
  C 407.88 283.99 411.59 269.95 424.53 269.64
  C 435.74 269.38 435.29 281.71 433.17 289.19
  Q 430.68 298.04 424.81 307.01
  A 0.89 0.88 -61.5 0 0 425.19 308.31
  Q 428.45 309.74 432.04 309.28
  C 438.82 308.41 443.53 304.26 446.42 298.11
  Q 451.71 286.86 455.70 275.53
  Q 455.91 274.94 455.56 274.43
  Q 454.29 272.57 454.53 270.31
  Q 455.18 264.02 460.34 261.15
  A 1.20 1.20 0.0 0 1 461.91 261.52
  C 463.71 264.13 462.21 267.01 461.22 269.58
  A 1.86 1.84 -45.8 0 0 461.23 270.93
  Q 462.09 273.08 464.10 274.46
  Q 469.14 277.89 473.20 282.34
  C 480.19 289.99 473.89 301.92 470.56 309.57
  C 469.34 312.37 467.23 319.56 471.58 320.67
  C 480.14 322.85 490.87 311.24 495.20 305.08
  Q 496.17 303.70 496.54 302.16
  Q 499.30 290.61 503.49 278.93
  Q 503.74 278.21 502.99 278.08
  L 499.69 277.54
  A 1.70 1.69 -3.2 0 1 498.32 276.32
  Q 498.24 276.01 498.20 275.89
  Q 497.82 274.51 499.25 274.62
  L 504.25 274.99
  A 1.05 1.03 12.9 0 0 505.30 274.34
  C 509.80 263.31 514.31 252.85 520.84 242.61
  C 522.55 239.92 528.65 230.94 532.38 233.11
  C 535.85 235.14 533.33 239.99 531.91 242.59
  Q 526.99 251.58 521.70 260.88
  C 519.12 265.40 516.93 270.04 514.53 274.69
  Q 514.16 275.41 514.96 275.43
  Q 525.69 275.82 540.14 274.61
  A 1.00 1.00 0.0 0 1 541.22 275.58
  L 541.25 276.33
  Q 541.27 277.21 540.39 277.32
  Q 527.03 278.90 513.24 278.92
  Q 512.66 278.92 512.43 279.45
  Q 504.98 296.44 504.32 310.91
  C 504.02 317.49 505.42 324.72 514.08 323.78
  C 524.40 322.67 532.54 313.42 537.57 304.95
  Q 540.73 299.62 543.83 290.50
  C 548.82 275.83 573.95 211.76 593.81 214.45
  Q 596.74 214.85 597.31 217.93
  C 598.92 226.59 594.17 236.18 589.40 243.60
  Q 578.33 260.81 562.59 273.33
  C 560.30 275.15 557.74 276.46 556.71 279.44
  Q 555.95 281.64 555.07 283.69
  Q 554.82 284.26 555.34 284.60
  Q 558.02 286.39 558.55 289.65
  Q 559.50 295.51 560.84 301.49
  C 562.03 306.75 564.51 312.02 570.47 312.72
  C 577.42 313.54 581.11 308.86 584.68 303.80
  C 589.18 297.41 592.89 283.83 603.29 285.07
  A 0.86 0.85 -68.1 0 1 603.87 286.43
  Q 598.31 293.80 594.92 306.18
  Q 593.55 311.17 594.21 315.55
  C 595.39 323.33 602.12 321.56 606.36 318.11
  Q 611.23 314.15 614.99 309.59
  Q 615.40 309.09 614.94 308.65
  C 607.27 301.19 604.14 288.49 608.75 278.35
  Q 612.74 269.60 622.11 269.63
  Q 629.26 269.65 630.86 276.42
  C 633.22 286.45 627.55 298.70 621.89 307.00
  A 0.95 0.94 -63.7 0 0 622.37 308.43
  C 629.09 310.68 636.18 308.28 640.54 303.04
  Q 642.53 300.65 643.61 296.00
  Q 645.10 289.55 647.41 283.09
  Q 657.00 256.33 671.61 232.35
  Q 675.09 226.64 679.71 220.73
  C 681.70 218.19 687.60 211.03 690.36 216.21
  C 694.77 224.50 691.85 233.56 688.57 242.00
  Q 679.26 265.95 662.78 285.52
  C 659.82 289.03 656.41 292.00 653.21 295.19
  Q 652.82 295.58 652.70 296.12
  Q 650.06 308.14 651.42 315.86
  Q 652.83 323.84 660.60 321.62
  C 666.18 320.03 672.12 311.32 675.05 306.20
  Q 677.10 302.61 678.66 297.32
  Q 680.51 291.03 684.58 283.14
  Q 687.75 276.99 692.43 273.09
  C 694.23 271.59 698.07 270.60 699.40 273.27
  C 700.43 275.34 698.55 279.02 697.48 280.75
  Q 691.53 290.38 687.01 300.29
  Q 683.90 307.11 684.37 314.66
  Q 684.74 320.52 690.25 320.99
  C 701.03 321.91 710.09 308.26 713.46 299.59
  C 715.82 293.52 721.54 283.75 729.48 285.13
  A 0.74 0.74 0.0 0 1 729.96 286.28
  Q 722.78 296.45 720.27 309.76
  Q 719.67 312.97 720.44 316.43
  C 721.86 322.75 727.73 321.63 731.59 318.72
  Q 736.69 314.87 741.14 309.54
  Q 741.44 309.17 741.11 308.83
  Q 730.92 298.47 733.11 283.62
  Q 733.76 279.27 736.67 275.17
  C 740.14 270.30 746.86 268.30 752.25 270.41
  C 758.50 272.86 758.00 282.73 756.61 288.18
  Q 754.19 297.72 747.82 307.28
  A 0.66 0.66 0.0 0 0 748.10 308.25
  C 756.29 311.87 765.03 306.67 769.01 299.33
  A 0.71 0.71 0.0 0 1 770.01 299.06
  L 770.26 299.22
  Q 771.34 299.90 770.78 301.05
  Q 765.30 312.19 752.11 312.97
  Q 748.98 313.16 746.23 311.80
  A 1.53 1.52 31.8 0 0 744.34 312.24
  C 738.87 319.35 730.63 327.56 721.06 327.26
  C 712.87 327.01 710.49 320.11 710.30 313.09
  Q 710.26 311.59 709.40 312.82
  C 704.31 320.21 696.64 325.69 687.61 326.30
  Q 677.88 326.95 675.56 317.80
  Q 674.87 315.09 675.16 312.44
  Q 675.40 310.20 674.15 312.07
  Q 669.55 318.94 664.25 323.04
  Q 659.41 326.79 653.19 326.95
  C 647.41 327.10 644.25 324.47 642.38 318.96
  Q 640.54 313.53 641.62 307.35
  Q 641.88 305.87 640.77 306.90
  C 635.86 311.51 626.78 314.99 620.11 311.80
  A 1.53 1.53 0.0 0 0 618.23 312.26
  Q 612.94 319.23 605.94 324.05
  C 601.28 327.26 593.51 328.96 588.69 325.11
  C 584.88 322.06 583.88 315.60 584.40 310.97
  Q 584.56 309.62 583.55 310.54
  C 577.34 316.19 570.47 319.24 562.80 313.96
  Q 561.56 313.11 560.37 312.30
  Q 559.67 311.83 559.66 312.67
  C 559.48 324.66 556.99 336.85 552.44 347.42
  C 549.91 353.29 543.68 365.45 535.98 364.52
  C 526.66 363.39 528.23 348.24 529.27 342.01
  Q 531.65 327.65 536.45 312.58
  Q 536.86 311.30 536.00 312.34
  Z
  M 589.89 224.35
  C 583.69 224.74 577.50 235.22 574.74 240.09
  Q 567.10 253.54 560.62 269.60
  Q 560.07 270.95 561.14 269.96
  Q 575.51 256.46 585.76 240.44
  C 588.07 236.83 591.93 230.27 591.92 226.25
  A 1.91 1.91 0.0 0 0 589.89 224.35
  Z
  M 683.30 245.15
  C 685.35 240.51 688.75 232.25 687.92 227.39
  A 1.09 1.09 0.0 0 0 686.11 226.77
  Q 683.84 228.84 682.06 231.38
  Q 673.99 242.89 667.30 257.10
  Q 659.36 273.95 654.57 288.61
  Q 653.92 290.58 655.36 289.08
  Q 660.49 283.73 664.97 277.28
  Q 676.31 260.97 683.30 245.15
  Z
  M 429.48 283.93
  C 429.90 279.83 428.80 270.21 422.36 274.71
  C 412.90 281.31 415.10 296.47 420.50 304.72
  A 0.45 0.44 44.8 0 0 421.25 304.72
  C 425.45 298.31 428.69 291.57 429.48 283.93
  Z
  M 626.65 279.91
  C 626.47 275.92 623.60 271.34 619.09 274.91
  C 610.23 281.94 612.11 296.15 617.50 304.56
  Q 617.99 305.33 618.48 304.55
  C 623.50 296.56 627.06 288.66 626.65 279.91
  Z
  M 744.41 304.61
  C 749.70 296.98 753.91 287.11 752.40 278.10
  C 751.78 274.34 748.34 272.07 745.14 274.84
  Q 740.07 279.24 739.31 285.41
  C 738.57 291.40 739.74 299.75 743.67 304.64
  A 0.47 0.47 0.0 0 0 744.41 304.61
  Z
  M 555.08 322.48
  C 556.80 313.19 555.90 304.88 551.05 296.67
  Q 550.63 295.96 550.40 296.74
  C 547.38 306.67 532.59 349.90 539.58 357.16
  A 0.99 0.98 58.8 0 0 540.56 357.41
  Q 542.88 356.71 544.22 354.56
  C 550.12 345.15 553.01 333.64 555.08 322.48
  Z"
/>
<ellipse fill="#ffffff" cx="0.00" cy="0.00" transform="translate(706.42,251.13) rotate(-25.5)" rx="8.38" ry="5.71"/>
</svg>
