<?xml version="1.0" encoding="UTF-8" standalone="no"?>
<!DOCTYPE svg PUBLIC "-//W3C//DTD SVG 1.1//EN" "http://www.w3.org/Graphics/SVG/1.1/DTD/svg11.dtd">
<svg xmlns="http://www.w3.org/2000/svg" version="1.1" viewBox="0.00 0.00 728.00 416.00">
<path fill="#141414" fill-opacity="0.698" d="
  M 683.59 206.30
  Q 706.26 235.41 710.23 270.11
  Q 712.89 293.38 706.87 314.86
  C 698.92 343.26 678.52 366.05 652.62 380.21
  Q 634.01 390.39 612.71 393.12
  C 599.51 394.82 584.09 394.01 570.34 394.10
  A 1.63 1.62 -12.6 0 1 568.87 393.17
  L 534.56 320.42
  Q 534.28 319.83 534.93 319.83
  Q 567.25 319.91 597.21 319.80
  Q 606.20 319.76 615.24 316.42
  C 623.65 313.32 630.81 304.86 633.82 296.38
  Q 639.79 279.53 632.24 263.78
  C 625.42 249.56 611.97 244.12 596.49 244.11
  Q 549.69 244.10 499.19 244.09
  A 1.16 1.14 -12.6 0 1 498.15 243.44
  L 463.35 169.68
  Q 463.11 169.16 463.68 169.16
  Q 534.58 169.27 599.00 169.17
  Q 608.42 169.16 617.31 164.98
  Q 625.52 161.11 631.00 151.81
  C 640.07 136.40 637.68 115.63 624.91 103.26
  Q 617.50 96.09 606.24 94.36
  Q 598.54 93.17 583.55 93.15
  Q 510.30 93.03 427.50 93.27
  A 0.90 0.89 -13.8 0 1 426.71 92.80
  C 408.08 58.55 377.77 33.43 340.70 21.41
  Q 339.66 21.07 338.74 20.40
  Q 338.07 19.90 338.90 19.90
  Q 470.36 19.85 601.21 19.93
  Q 611.90 19.93 625.86 23.17
  Q 649.21 28.59 667.72 43.71
  Q 704.38 73.64 710.39 121.27
  Q 711.36 128.96 710.67 140.49
  Q 709.50 159.93 701.75 176.55
  Q 694.63 191.81 683.67 204.01
  Q 682.67 205.13 683.59 206.30
  Z"
/>
<path fill="#1c1c1c" d="
  M 108.01 377.45
  Q 101.68 390.82 95.19 404.31
  Q 94.97 404.75 94.48 404.75
  L 13.95 404.75
  A 0.38 0.38 0.0 0 1 13.61 404.21
  Q 82.23 258.98 149.49 116.54
  Q 162.42 89.16 181.07 70.62
  C 203.64 48.18 233.85 33.83 265.53 31.25
  C 307.81 27.81 349.04 44.46 377.16 75.99
  Q 392.10 92.74 402.45 114.58
  Q 466.78 250.22 539.74 404.05
  Q 540.07 404.75 539.30 404.75
  L 457.29 404.75
  A 0.71 0.70 77.5 0 1 456.65 404.34
  Q 395.85 274.72 335.56 146.17
  Q 331.29 137.06 322.75 127.14
  C 309.93 112.26 290.84 103.01 271.20 104.89
  C 251.22 106.80 235.17 118.48 224.08 135.11
  Q 220.68 140.21 215.48 151.14
  Q 164.88 257.61 114.27 364.25
  Q 110.96 371.21 108.01 377.45
  Z"
/>
</svg>
