<?xml version="1.0" encoding="UTF-8" standalone="no"?>
<!DOCTYPE svg PUBLIC "-//W3C//DTD SVG 1.1//EN" "http://www.w3.org/Graphics/SVG/1.1/DTD/svg11.dtd">
<svg xmlns="http://www.w3.org/2000/svg" version="1.1" viewBox="0.00 0.00 178.00 395.00">
<g stroke-width="2.30" fill="none" stroke-linecap="butt">
<path stroke="#49a83e" vector-effect="non-scaling-stroke" d="
  M 89.97 7.01
  Q 88.74 13.68 89.36 20.25
  Q 90.02 27.19 90.03 27.28
  Q 91.04 45.44 91.05 51.25
  Q 91.11 83.01 91.62 114.76
  Q 91.79 124.97 91.78 134.78
  Q 91.76 174.91 92.39 214.45
  Q 92.85 243.84 90.18 284.75
  Q 90.01 287.45 89.95 293.25"
/>
<path stroke="#9cce8c" vector-effect="non-scaling-stroke" d="
  M 89.95 293.25
  Q 89.87 292.32 89.65 291.80
  Q 89.41 291.26 89.34 291.85
  L 86.29 318.80"
/>
<path stroke="#4cb03f" vector-effect="non-scaling-stroke" d="
  M 86.29 318.80
  Q 86.33 313.33 84.42 308.16
  Q 84.20 307.57 83.58 307.71
  Q 82.11 308.06 80.64 307.49
  Q 79.24 306.95 79.85 305.63
  A 1.07 1.04 -38.9 0 0 79.93 304.97
  Q 79.37 302.29 77.89 300.04
  Q 75.50 296.41 75.61 291.02
  Q 75.62 290.52 75.41 290.07
  Q 74.66 288.48 73.87 286.68
  C 73.41 285.65 73.77 284.77 72.96 283.79
  Q 72.61 283.36 72.57 282.82
  Q 72.40 280.38 71.71 278.57
  Q 71.31 277.50 71.06 276.43
  Q 70.78 275.22 70.36 274.16
  Q 69.44 271.85 69.14 269.50
  Q 68.96 268.11 68.37 266.82
  Q 67.76 265.51 67.43 264.13
  Q 66.91 261.97 65.94 259.96
  Q 64.89 257.79 64.20 255.70
  Q 63.49 253.50 62.54 251.43
  Q 61.47 249.07 61.00 246.71
  Q 60.71 245.24 60.22 243.93
  Q 59.71 242.57 59.57 241.05
  Q 59.52 240.58 59.26 240.17
  Q 57.49 237.32 56.88 234.40
  Q 56.76 233.81 56.84 233.19
  Q 56.94 232.48 56.31 232.03
  Q 55.86 231.71 55.76 231.17
  Q 55.38 229.08 54.30 227.51
  Q 54.11 227.24 54.10 226.90
  Q 54.08 225.76 53.69 224.70
  Q 53.25 223.51 53.03 222.25
  Q 52.12 217.04 49.96 212.13
  C 49.51 211.10 49.63 209.83 49.01 208.93
  Q 47.29 206.40 46.82 203.23
  Q 46.76 202.82 46.39 202.72
  Q 45.87 202.58 45.87 202.05
  L 45.87 198.31
  Q 45.86 197.82 45.58 197.43
  Q 44.74 196.27 44.37 194.50
  Q 43.73 191.38 42.08 188.28
  Q 39.93 184.25 39.34 182.29
  Q 38.59 179.84 38.07 177.80
  Q 37.46 175.46 36.41 173.18
  Q 34.73 169.56 34.46 165.97
  Q 34.27 163.50 33.90 160.91
  A 2.63 2.62 17.9 0 0 33.13 159.41
  Q 32.25 158.55 32.36 157.38
  Q 32.44 156.47 31.80 155.81
  Q 30.84 154.82 30.68 153.46
  Q 30.24 149.53 29.72 145.19
  Q 29.65 144.65 29.19 144.36
  L 27.85 143.51
  Q 27.40 143.22 27.35 142.69
  L 26.79 137.39
  Q 26.75 137.01 26.49 136.74
  Q 25.79 136.05 24.86 135.70
  Q 24.32 135.50 24.28 134.92
  Q 23.90 130.00 21.09 126.04
  Q 20.24 124.85 19.67 122.38
  Q 19.51 121.68 19.49 120.96
  Q 19.47 120.49 19.25 120.11
  Q 18.92 119.54 18.75 118.91
  Q 17.98 116.04 18.14 113.12
  Q 18.17 112.63 17.79 112.31
  L 16.99 111.64
  Q 16.90 111.57 17.02 111.58
  Q 17.25 111.62 17.33 111.41
  Q 17.39 111.24 17.30 111.08
  Q 16.83 110.31 17.53 109.73
  Q 17.86 109.45 17.68 109.05
  Q 17.34 108.30 16.83 108.21"
/>
<path stroke="#94c389" vector-effect="non-scaling-stroke" d="
  M 102.45 335.02
  Q 101.59 333.41 100.59 332.39
  Q 98.57 330.33 98.42 330.10
  C 94.62 324.63 93.03 317.76 91.93 311.00
  Q 91.05 305.60 89.95 293.25"
/>
<path stroke="#97cb8a" vector-effect="non-scaling-stroke" d="
  M 86.29 318.80
  Q 85.36 328.74 82.04 338.00"
/>
</g>
<path fill="#51b341" d="
  M 89.97 7.01
  Q 88.74 13.68 89.36 20.25
  Q 90.02 27.19 90.03 27.28
  Q 91.04 45.44 91.05 51.25
  Q 91.11 83.01 91.62 114.76
  Q 91.79 124.97 91.78 134.78
  Q 91.76 174.91 92.39 214.45
  Q 92.85 243.84 90.18 284.75
  Q 90.01 287.45 89.95 293.25
  Q 89.87 292.32 89.65 291.80
  Q 89.41 291.26 89.34 291.85
  L 86.29 318.80
  Q 86.33 313.33 84.42 308.16
  Q 84.20 307.57 83.58 307.71
  Q 82.11 308.06 80.64 307.49
  Q 79.24 306.95 79.85 305.63
  A 1.07 1.04 -38.9 0 0 79.93 304.97
  Q 79.37 302.29 77.89 300.04
  Q 75.50 296.41 75.61 291.02
  Q 75.62 290.52 75.41 290.07
  Q 74.66 288.48 73.87 286.68
  C 73.41 285.65 73.77 284.77 72.96 283.79
  Q 72.61 283.36 72.57 282.82
  Q 72.40 280.38 71.71 278.57
  Q 71.31 277.50 71.06 276.43
  Q 70.78 275.22 70.36 274.16
  Q 69.44 271.85 69.14 269.50
  Q 68.96 268.11 68.37 266.82
  Q 67.76 265.51 67.43 264.13
  Q 66.91 261.97 65.94 259.96
  Q 64.89 257.79 64.20 255.70
  Q 63.49 253.50 62.54 251.43
  Q 61.47 249.07 61.00 246.71
  Q 60.71 245.24 60.22 243.93
  Q 59.71 242.57 59.57 241.05
  Q 59.52 240.58 59.26 240.17
  Q 57.49 237.32 56.88 234.40
  Q 56.76 233.81 56.84 233.19
  Q 56.94 232.48 56.31 232.03
  Q 55.86 231.71 55.76 231.17
  Q 55.38 229.08 54.30 227.51
  Q 54.11 227.24 54.10 226.90
  Q 54.08 225.76 53.69 224.70
  Q 53.25 223.51 53.03 222.25
  Q 52.12 217.04 49.96 212.13
  C 49.51 211.10 49.63 209.83 49.01 208.93
  Q 47.29 206.40 46.82 203.23
  Q 46.76 202.82 46.39 202.72
  Q 45.87 202.58 45.87 202.05
  L 45.87 198.31
  Q 45.86 197.82 45.58 197.43
  Q 44.74 196.27 44.37 194.50
  Q 43.73 191.38 42.08 188.28
  Q 39.93 184.25 39.34 182.29
  Q 38.59 179.84 38.07 177.80
  Q 37.46 175.46 36.41 173.18
  Q 34.73 169.56 34.46 165.97
  Q 34.27 163.50 33.90 160.91
  A 2.63 2.62 17.9 0 0 33.13 159.41
  Q 32.25 158.55 32.36 157.38
  Q 32.44 156.47 31.80 155.81
  Q 30.84 154.82 30.68 153.46
  Q 30.24 149.53 29.72 145.19
  Q 29.65 144.65 29.19 144.36
  L 27.85 143.51
  Q 27.40 143.22 27.35 142.69
  L 26.79 137.39
  Q 26.75 137.01 26.49 136.74
  Q 25.79 136.05 24.86 135.70
  Q 24.32 135.50 24.28 134.92
  Q 23.90 130.00 21.09 126.04
  Q 20.24 124.85 19.67 122.38
  Q 19.51 121.68 19.49 120.96
  Q 19.47 120.49 19.25 120.11
  Q 18.92 119.54 18.75 118.91
  Q 17.98 116.04 18.14 113.12
  Q 18.17 112.63 17.79 112.31
  L 16.99 111.64
  Q 16.90 111.57 17.02 111.58
  Q 17.25 111.62 17.33 111.41
  Q 17.39 111.24 17.30 111.08
  Q 16.83 110.31 17.53 109.73
  Q 17.86 109.45 17.68 109.05
  Q 17.34 108.30 16.83 108.21
  C 29.22 73.51 50.15 42.75 78.54 18.96
  Q 84.80 13.72 86.44 6.25
  C 86.79 4.64 86.82 3.01 86.95 1.38
  Q 87.02 0.39 87.42 1.29
  L 89.97 7.01
  Z"
/>
<path fill="#419d3a" d="
  M 89.97 7.01
  Q 93.91 15.20 98.32 22.20
  Q 101.75 27.65 106.03 31.94
  C 111.55 37.48 117.13 43.29 122.23 49.29
  Q 149.22 81.07 163.19 122.00
  Q 166.76 132.49 169.62 142.78
  Q 172.27 152.35 173.44 161.88
  Q 175.59 179.54 175.30 192.25
  Q 173.74 260.01 129.22 310.97
  Q 117.15 324.80 102.45 335.02
  Q 101.59 333.41 100.59 332.39
  Q 98.57 330.33 98.42 330.10
  C 94.62 324.63 93.03 317.76 91.93 311.00
  Q 91.05 305.60 89.95 293.25
  Q 90.01 287.45 90.18 284.75
  Q 92.85 243.84 92.39 214.45
  Q 91.76 174.91 91.78 134.78
  Q 91.79 124.97 91.62 114.76
  Q 91.11 83.01 91.05 51.25
  Q 91.04 45.44 90.03 27.28
  Q 90.02 27.19 89.36 20.25
  Q 88.74 13.68 89.97 7.01
  Z"
/>
<path fill="#47ac3d" d="
  M 16.83 108.21
  Q 17.34 108.30 17.68 109.05
  Q 17.86 109.45 17.53 109.73
  Q 16.83 110.31 17.30 111.08
  Q 17.39 111.24 17.33 111.41
  Q 17.25 111.62 17.02 111.58
  Q 16.90 111.57 16.99 111.64
  L 17.79 112.31
  Q 18.17 112.63 18.14 113.12
  Q 17.98 116.04 18.75 118.91
  Q 18.92 119.54 19.25 120.11
  Q 19.47 120.49 19.49 120.96
  Q 19.51 121.68 19.67 122.38
  Q 20.24 124.85 21.09 126.04
  Q 23.90 130.00 24.28 134.92
  Q 24.32 135.50 24.86 135.70
  Q 25.79 136.05 26.49 136.74
  Q 26.75 137.01 26.79 137.39
  L 27.35 142.69
  Q 27.40 143.22 27.85 143.51
  L 29.19 144.36
  Q 29.65 144.65 29.72 145.19
  Q 30.24 149.53 30.68 153.46
  Q 30.84 154.82 31.80 155.81
  Q 32.44 156.47 32.36 157.38
  Q 32.25 158.55 33.13 159.41
  A 2.63 2.62 17.9 0 1 33.90 160.91
  Q 34.27 163.50 34.46 165.97
  Q 34.73 169.56 36.41 173.18
  Q 37.46 175.46 38.07 177.80
  Q 38.59 179.84 39.34 182.29
  Q 39.93 184.25 42.08 188.28
  Q 43.73 191.38 44.37 194.50
  Q 44.74 196.27 45.58 197.43
  Q 45.86 197.82 45.87 198.31
  L 45.87 202.05
  Q 45.87 202.58 46.39 202.72
  Q 46.76 202.82 46.82 203.23
  Q 47.29 206.40 49.01 208.93
  C 49.63 209.83 49.51 211.10 49.96 212.13
  Q 52.12 217.04 53.03 222.25
  Q 53.25 223.51 53.69 224.70
  Q 54.08 225.76 54.10 226.90
  Q 54.11 227.24 54.30 227.51
  Q 55.38 229.08 55.76 231.17
  Q 55.86 231.71 56.31 232.03
  Q 56.94 232.48 56.84 233.19
  Q 56.76 233.81 56.88 234.40
  Q 57.49 237.32 59.26 240.17
  Q 59.52 240.58 59.57 241.05
  Q 59.71 242.57 60.22 243.93
  Q 60.71 245.24 61.00 246.71
  Q 61.47 249.07 62.54 251.43
  Q 63.49 253.50 64.20 255.70
  Q 64.89 257.79 65.94 259.96
  Q 66.91 261.97 67.43 264.13
  Q 67.76 265.51 68.37 266.82
  Q 68.96 268.11 69.14 269.50
  Q 69.44 271.85 70.36 274.16
  Q 70.78 275.22 71.06 276.43
  Q 71.31 277.50 71.71 278.57
  Q 72.40 280.38 72.57 282.82
  Q 72.61 283.36 72.96 283.79
  C 73.77 284.77 73.41 285.65 73.87 286.68
  Q 74.66 288.48 75.41 290.07
  Q 75.62 290.52 75.61 291.02
  Q 75.50 296.41 77.89 300.04
  Q 79.37 302.29 79.93 304.97
  A 1.07 1.04 -38.9 0 1 79.85 305.63
  Q 79.24 306.95 80.64 307.49
  Q 82.11 308.06 83.58 307.71
  Q 84.20 307.57 84.42 308.16
  Q 86.33 313.33 86.29 318.80
  Q 85.36 328.74 82.04 338.00
  Q 77.10 333.92 72.33 329.90
  C 43.27 305.38 20.99 272.52 9.99 236.65
  Q 2.46 212.12 2.81 185.76
  Q 3.35 145.75 16.83 108.21
  Z"
/>
<path fill="#e7e9d7" d="
  M 89.95 293.25
  Q 91.05 305.60 91.93 311.00
  C 93.03 317.76 94.62 324.63 98.42 330.10
  Q 98.57 330.33 100.59 332.39
  Q 101.59 333.41 102.45 335.02
  Q 99.69 340.10 98.57 344.62
  Q 97.28 349.78 97.11 357.49
  C 96.92 365.71 96.93 373.63 97.28 381.58
  Q 97.39 384.07 94.92 383.72
  Q 92.15 383.33 89.72 382.21
  Q 87.79 381.33 87.64 379.21
  Q 87.15 372.21 86.99 365.75
  Q 86.72 354.68 82.04 338.00
  Q 85.36 328.74 86.29 318.80
  L 89.34 291.85
  Q 89.41 291.26 89.65 291.80
  Q 89.87 292.32 89.95 293.25
  Z"
/>
</svg>
