<svg xmlns="http://www.w3.org/2000/svg" xmlns:v="https://svgstorm.com"
viewBox = "0 0 391 202"
width="391"
height="202">
<g fill="None" fill-opacity="0.0" stroke="#000000" stroke-opacity="0.00" stroke-width="0.3"><path d="
M 0.00 202.00 
L 101.00 202.00
C 101.00 199.00 101.00 196.00 101.00 193.00
C 109.35 192.69 119.80 192.05 128.00 192.00 C 136.20 191.95 149.00 195.21 148.00 184.00
C 134.57 181.55 119.54 186.75 106.93 181.07 C 94.31 175.40 102.30 153.91 100.00 143.00
C 104.33 143.00 108.67 143.00 113.00 143.00
C 115.75 151.15 108.30 167.03 115.75 173.25 C 123.21 179.46 139.11 172.23 148.00 175.00
C 148.32 163.99 147.16 152.63 149.00 142.00
C 153.33 142.00 157.67 142.00 162.00 142.00
C 158.04 161.56 172.76 195.23 148.00 202.00
L 391.00 202.00
L 391.00 179.00
C 386.44 188.63 371.42 187.60 371.00 176.00 C 370.59 164.39 387.92 162.33 391.00 173.00
L 391.00 0.00
L 255.00 0.00
C 263.82 3.15 272.31 8.91 282.00 10.00 C 291.69 11.09 299.33 17.57 307.08 22.92 C 314.83 28.27 319.72 34.90 325.77 42.23 C 331.83 49.56 334.30 58.45 338.93 67.07 C 343.56 75.70 344.82 85.22 354.68 89.32 C 364.54 93.42 367.66 97.19 377.70 104.30 C 387.73 111.41 374.31 118.45 364.00 118.00
C 371.84 125.66 384.11 131.38 388.00 142.00
C 382.29 138.61 375.25 135.14 369.77 131.23 C 364.29 127.32 356.07 125.64 354.08 117.92 C 352.09 110.20 370.72 111.43 374.00 108.00
C 363.73 98.39 347.32 97.55 340.08 85.92 C 332.83 74.30 329.07 59.05 320.75 48.25 C 312.43 37.46 304.60 26.82 291.77 21.23 C 278.95 15.64 262.36 11.39 249.00 7.00
C 257.07 20.52 261.73 34.58 269.30 48.70 C 276.88 62.81 261.32 83.60 276.00 97.00
C 274.79 84.88 284.19 71.68 288.92 85.08 C 293.65 98.47 298.52 99.77 305.00 111.00
C 305.92 112.24 308.69 112.75 308.00 115.00
C 306.17 114.73 303.70 113.98 303.00 112.00
C 296.03 106.28 288.76 99.38 286.00 91.00
C 285.60 96.46 279.11 107.76 271.31 101.69 C 263.50 95.63 266.83 88.79 264.00 81.00 C 261.17 73.21 268.64 62.72 267.00 56.00 C 265.35 49.27 258.65 44.40 257.68 37.32 C 256.70 30.25 251.85 24.84 247.75 19.25 C 243.66 13.66 240.91 2.47 250.00 0.00
L 0.00 0.00
L 0.00 202.00
M 280.00 34.00 
C 276.19 33.18 273.26 28.70 273.00 25.00
C 279.64 22.90 281.02 28.77 280.00 34.00
M 79.00 123.00 
C 80.71 123.17 81.45 123.46 83.00 124.00
C 93.88 127.81 89.36 139.84 90.00 150.00 C 90.64 160.16 89.52 173.55 90.00 184.00
C 85.67 184.00 81.33 184.00 77.00 184.00
C 76.74 168.98 77.76 153.65 76.00 139.00
C 70.22 152.09 63.79 158.38 59.23 173.23 C 54.67 188.08 35.42 188.03 31.08 172.92 C 26.73 157.82 18.49 151.74 15.00 137.00
C 12.67 151.76 14.66 168.49 14.00 184.00
C 9.67 184.00 5.33 184.00 1.00 184.00
C 1.15 166.89 0.80 151.26 1.00 134.00 C 1.20 116.74 25.69 121.64 28.77 135.23 C 31.85 148.81 40.97 157.65 44.00 171.00
C 57.64 158.30 55.25 124.12 79.00 123.00
M 178.00 184.00 
C 176.23 184.17 172.78 186.54 171.00 184.00
C 169.59 181.99 172.06 177.26 171.00 175.00
C 182.77 177.67 190.37 171.79 202.22 174.22 C 214.07 176.66 218.48 161.75 207.99 159.01 C 197.50 156.27 187.12 159.91 178.32 155.68 C 169.52 151.44 167.99 140.44 172.31 132.31 C 176.62 124.17 187.98 123.27 197.00 124.00 C 206.02 124.73 219.66 123.04 229.00 123.00
C 229.00 126.33 229.00 129.67 229.00 133.00
C 218.81 130.68 209.52 138.25 199.00 134.00 C 188.48 129.75 179.99 144.23 189.68 148.32 C 199.37 152.41 209.34 148.02 219.02 150.98 C 228.71 153.93 230.82 162.69 229.00 172.00 C 227.18 181.31 219.17 183.99 210.00 184.00 C 200.83 184.01 187.55 183.99 178.00 184.00
M 295.00 181.00 
C 297.56 185.53 303.61 188.02 305.00 193.00
C 291.94 197.39 281.51 183.02 270.00 184.00 C 258.49 184.98 238.85 186.19 237.01 172.99 C 235.17 159.80 233.10 143.87 238.77 131.77 C 244.45 119.67 263.86 125.98 275.00 124.00 C 286.14 122.02 304.01 127.90 301.00 142.00 C 297.99 156.10 307.14 171.28 295.00 181.00
M 322.00 124.00 
C 321.26 134.63 322.98 144.26 322.00 155.00 C 321.02 165.74 322.89 175.23 334.67 174.33 C 346.45 173.43 354.35 176.40 366.00 175.00
C 366.00 178.00 366.00 181.00 366.00 184.00
C 350.66 179.81 324.20 191.72 312.25 178.75 C 300.30 165.78 312.44 139.90 308.00 124.00
C 312.67 124.00 317.33 124.00 322.00 124.00 Z"/>
</g>
<g fill="None" fill-opacity="0.0" stroke="#0D5D83" stroke-opacity="0.82" stroke-width="0.3"><path d="
M 303.00 112.00 
C 303.79 112.03 304.11 110.96 305.00 111.00
C 298.52 99.77 293.65 98.47 288.92 85.08 C 284.19 71.68 274.79 84.88 276.00 97.00
C 261.32 83.60 276.88 62.81 269.30 48.70 C 261.73 34.58 257.07 20.52 249.00 7.00
C 262.36 11.39 278.95 15.64 291.77 21.23 C 304.60 26.82 312.43 37.46 320.75 48.25 C 329.07 59.05 332.83 74.30 340.08 85.92 C 347.32 97.55 363.73 98.39 374.00 108.00
C 370.72 111.43 352.09 110.20 354.08 117.92 C 356.07 125.64 364.29 127.32 369.77 131.23 C 375.25 135.14 382.29 138.61 388.00 142.00
C 384.11 131.38 371.84 125.66 364.00 118.00
C 374.31 118.45 387.73 111.41 377.70 104.30 C 367.66 97.19 364.54 93.42 354.68 89.32 C 344.82 85.22 343.56 75.70 338.93 67.07 C 334.30 58.45 331.83 49.56 325.77 42.23 C 319.72 34.90 314.83 28.27 307.08 22.92 C 299.33 17.57 291.69 11.09 282.00 10.00 C 272.31 8.91 263.82 3.15 255.00 0.00
L 250.00 0.00
C 240.91 2.47 243.66 13.66 247.75 19.25 C 251.85 24.84 256.70 30.25 257.68 37.32 C 258.65 44.40 265.35 49.27 267.00 56.00 C 268.64 62.72 261.17 73.21 264.00 81.00 C 266.83 88.79 263.50 95.63 271.31 101.69 C 279.11 107.76 285.60 96.46 286.00 91.00
C 288.76 99.38 296.03 106.28 303.00 112.00 Z"/>
</g>
<g fill="None" fill-opacity="0.0" stroke="#145979" stroke-opacity="0.75" stroke-width="0.3"><path d="
M 280.00 34.00 
C 281.02 28.77 279.64 22.90 273.00 25.00
C 273.26 28.70 276.19 33.18 280.00 34.00 Z"/>
</g>
<g fill="None" fill-opacity="0.0" stroke="#2E5065" stroke-opacity="0.34" stroke-width="0.3"><path d="
M 303.00 112.00 
C 303.70 113.98 306.17 114.73 308.00 115.00
C 308.69 112.75 305.92 112.24 305.00 111.00
C 304.11 110.96 303.79 112.03 303.00 112.00 Z"/>
</g>
<g fill="None" fill-opacity="0.0" stroke="#055E88" stroke-opacity="0.95" stroke-width="0.3"><path d="
M 83.00 124.00 
C 82.77 123.96 82.27 124.17 80.96 124.96 C 79.65 125.76 78.99 123.00 79.00 123.00
C 55.25 124.12 57.64 158.30 44.00 171.00
C 40.97 157.65 31.85 148.81 28.77 135.23 C 25.69 121.64 1.20 116.74 1.00 134.00 C 0.80 151.26 1.15 166.89 1.00 184.00
C 5.33 184.00 9.67 184.00 14.00 184.00
C 14.66 168.49 12.67 151.76 15.00 137.00
C 18.49 151.74 26.73 157.82 31.08 172.92 C 35.42 188.03 54.67 188.08 59.23 173.23 C 63.79 158.38 70.22 152.09 76.00 139.00
C 77.76 153.65 76.74 168.98 77.00 184.00
C 81.33 184.00 85.67 184.00 90.00 184.00
C 89.52 173.55 90.64 160.16 90.00 150.00 C 89.36 139.84 93.88 127.81 83.00 124.00 Z"/>
</g>
<g fill="None" fill-opacity="0.0" stroke="#135E71" stroke-opacity="0.62" stroke-width="0.3"><path d="
M 83.00 124.00 
C 81.45 123.46 80.71 123.17 79.00 123.00
C 78.99 123.00 79.65 125.76 80.96 124.96 C 82.27 124.17 82.77 123.96 83.00 124.00 Z"/>
</g>
<g fill="None" fill-opacity="0.0" stroke="#E08C0D" stroke-opacity="0.92" stroke-width="0.3"><path d="
M 171.00 184.00 
C 173.33 184.00 175.67 184.00 178.00 184.00
C 187.55 183.99 200.83 184.01 210.00 184.00 C 219.17 183.99 227.18 181.31 229.00 172.00 C 230.82 162.69 228.71 153.93 219.02 150.98 C 209.34 148.02 199.37 152.41 189.68 148.32 C 179.99 144.23 188.48 129.75 199.00 134.00 C 209.52 138.25 218.81 130.68 229.00 133.00
C 229.00 129.67 229.00 126.33 229.00 123.00
C 219.66 123.04 206.02 124.73 197.00 124.00 C 187.98 123.27 176.62 124.17 172.31 132.31 C 167.99 140.44 169.52 151.44 178.32 155.68 C 187.12 159.91 197.50 156.27 207.99 159.01 C 218.48 161.75 214.07 176.66 202.22 174.22 C 190.37 171.79 182.77 177.67 171.00 175.00
C 172.06 177.26 169.59 181.99 171.00 184.00 Z"/>
</g>
<g fill="None" fill-opacity="0.0" stroke="#E08C0C" stroke-opacity="0.94" stroke-width="0.3"><path d="
M 295.00 181.00 
C 307.14 171.28 297.99 156.10 301.00 142.00 C 304.01 127.90 286.14 122.02 275.00 124.00 C 263.86 125.98 244.45 119.67 238.77 131.77 C 233.10 143.87 235.17 159.80 237.01 172.99 C 238.85 186.19 258.49 184.98 270.00 184.00 C 281.51 183.02 291.94 197.39 305.00 193.00
C 303.61 188.02 297.56 185.53 295.00 181.00
M 286.00 173.00 
C 279.41 165.87 270.52 165.00 261.00 166.00
C 263.05 169.45 267.00 171.58 269.00 175.00
C 256.12 179.40 250.49 168.61 251.00 159.00 C 251.51 149.39 249.06 134.05 260.00 134.00 C 270.94 133.96 284.42 130.26 287.00 141.00 C 289.58 151.75 287.85 162.64 286.00 173.00 Z"/>
</g>
<g fill="None" fill-opacity="0.0" stroke="#E08C0B" stroke-opacity="0.93" stroke-width="0.3"><path d="
M 322.00 124.00 
C 317.33 124.00 312.67 124.00 308.00 124.00
C 312.44 139.90 300.30 165.78 312.25 178.75 C 324.20 191.72 350.66 179.81 366.00 184.00
C 366.00 181.00 366.00 178.00 366.00 175.00
C 354.35 176.40 346.45 173.43 334.67 174.33 C 322.89 175.23 321.02 165.74 322.00 155.00 C 322.98 144.26 321.26 134.63 322.00 124.00 Z"/>
</g>
<g fill="None" fill-opacity="0.0" stroke="#000000" stroke-opacity="0.00" stroke-width="0.3"><path d="
M 286.00 173.00 
C 287.85 162.64 289.58 151.75 287.00 141.00 C 284.42 130.26 270.94 133.96 260.00 134.00 C 249.06 134.05 251.51 149.39 251.00 159.00 C 250.49 168.61 256.12 179.40 269.00 175.00
C 267.00 171.58 263.05 169.45 261.00 166.00
C 270.52 165.00 279.41 165.87 286.00 173.00 Z"/>
</g>
<g fill="None" fill-opacity="0.0" stroke="#055E88" stroke-opacity="0.93" stroke-width="0.3"><path d="
M 101.00 202.00 
L 128.00 202.00
C 131.08 200.31 136.17 200.89 140.00 201.00
C 141.89 201.05 144.92 200.24 146.00 202.00
L 148.00 202.00
C 172.76 195.23 158.04 161.56 162.00 142.00
C 157.67 142.00 153.33 142.00 149.00 142.00
C 147.16 152.63 148.32 163.99 148.00 175.00
C 139.11 172.23 123.21 179.46 115.75 173.25 C 108.30 167.03 115.75 151.15 113.00 143.00
C 108.67 143.00 104.33 143.00 100.00 143.00
C 102.30 153.91 94.31 175.40 106.93 181.07 C 119.54 186.75 134.57 181.55 148.00 184.00
C 149.00 195.21 136.20 191.95 128.00 192.00 C 119.80 192.05 109.35 192.69 101.00 193.00
C 101.00 196.00 101.00 199.00 101.00 202.00 Z"/>
</g>
<g fill="None" fill-opacity="0.0" stroke="#D0861D" stroke-opacity="0.71" stroke-width="0.3"><path d="
M 391.00 179.00 
L 391.00 173.00
C 387.92 162.33 370.59 164.39 371.00 176.00 C 371.42 187.60 386.44 188.63 391.00 179.00
M 377.00 171.00 
C 377.00 174.33 377.00 177.67 377.00 181.00
C 376.17 180.59 375.13 180.03 375.00 179.00
C 373.91 176.96 373.95 174.09 375.00 172.00
C 375.22 171.57 376.22 169.61 377.00 170.00
C 378.57 168.36 380.63 170.76 383.00 170.00
C 381.86 171.87 378.87 170.61 377.00 171.00
M 385.00 180.00 
C 384.12 176.86 385.14 174.42 385.00 171.00
C 388.30 172.68 388.35 178.32 385.00 180.00
M 384.00 182.00 
C 378.94 182.22 378.06 182.44 380.00 178.00
C 381.85 179.02 382.44 180.83 384.00 182.00 Z"/>
</g>
<g fill="None" fill-opacity="0.0" stroke="#DF910F" stroke-opacity="0.53" stroke-width="0.3"><path d="
M 377.00 170.00 
C 376.75 170.26 377.00 171.00 377.00 171.00
C 378.87 170.61 381.86 171.87 383.00 170.00
C 380.63 170.76 378.57 168.36 377.00 170.00 Z"/>
</g>
<g fill="None" fill-opacity="0.0" stroke="#E18917" stroke-opacity="0.15" stroke-width="0.3"><path d="
M 375.00 172.00 
C 375.09 171.53 375.09 179.53 375.00 179.00
C 375.13 180.03 376.17 180.59 377.00 181.00
C 377.00 177.67 377.00 174.33 377.00 171.00
C 377.00 171.00 376.75 170.26 377.00 170.00
C 376.22 169.61 375.22 171.57 375.00 172.00 Z"/>
</g>
<g fill="None" fill-opacity="0.0" stroke="#000000" stroke-opacity="0.00" stroke-width="0.3"><path d="
M 385.00 180.00 
C 388.35 178.32 388.30 172.68 385.00 171.00
C 385.14 174.42 384.12 176.86 385.00 180.00 Z"/>
</g>
<g fill="None" fill-opacity="0.0" stroke="#000000" stroke-opacity="0.00" stroke-width="0.3"><path d="
M 375.00 179.00 
C 375.09 179.53 375.09 171.53 375.00 172.00
C 373.95 174.09 373.91 176.96 375.00 179.00 Z"/>
</g>
<g fill="None" fill-opacity="0.0" stroke="#000000" stroke-opacity="0.00" stroke-width="0.3"><path d="
M 384.00 182.00 
C 382.44 180.83 381.85 179.02 380.00 178.00
C 378.06 182.44 378.94 182.22 384.00 182.00 Z"/>
</g>
<g fill="None" fill-opacity="0.0" stroke="#BB8B40" stroke-opacity="0.11" stroke-width="0.3"><path d="
M 178.00 184.00 
C 175.67 184.00 173.33 184.00 171.00 184.00
C 172.78 186.54 176.23 184.17 178.00 184.00 Z"/>
</g>
<g fill="None" fill-opacity="0.0" stroke="#04638F" stroke-opacity="0.67" stroke-width="0.3"><path d="
M 128.00 202.00 
L 140.00 202.00
C 140.00 201.50 140.00 201.00 140.00 201.00
C 136.17 200.89 131.08 200.31 128.00 202.00 Z"/>
</g>
<g fill="None" fill-opacity="0.0" stroke="#01608D" stroke-opacity="0.40" stroke-width="0.3"><path d="
M 140.00 202.00 
L 146.00 202.00
C 144.92 200.24 141.89 201.05 140.00 201.00
C 140.00 201.00 140.00 201.50 140.00 202.00 Z"/>
</g>
<g fill="#000000" fill-opacity="0.00" stroke="None">
<path d="
M 0.00 202.00 
L 101.00 202.00
C 101.00 199.00 101.00 196.00 101.00 193.00
C 109.35 192.69 119.80 192.05 128.00 192.00 C 136.20 191.95 149.00 195.21 148.00 184.00
C 134.57 181.55 119.54 186.75 106.93 181.07 C 94.31 175.40 102.30 153.91 100.00 143.00
C 104.33 143.00 108.67 143.00 113.00 143.00
C 115.75 151.15 108.30 167.03 115.75 173.25 C 123.21 179.46 139.11 172.23 148.00 175.00
C 148.32 163.99 147.16 152.63 149.00 142.00
C 153.33 142.00 157.67 142.00 162.00 142.00
C 158.04 161.56 172.76 195.23 148.00 202.00
L 391.00 202.00
L 391.00 179.00
C 386.44 188.63 371.42 187.60 371.00 176.00 C 370.59 164.39 387.92 162.33 391.00 173.00
L 391.00 0.00
L 255.00 0.00
C 263.82 3.15 272.31 8.91 282.00 10.00 C 291.69 11.09 299.33 17.57 307.08 22.92 C 314.83 28.27 319.72 34.90 325.77 42.23 C 331.83 49.56 334.30 58.45 338.93 67.07 C 343.56 75.70 344.82 85.22 354.68 89.32 C 364.54 93.42 367.66 97.19 377.70 104.30 C 387.73 111.41 374.31 118.45 364.00 118.00
C 371.84 125.66 384.11 131.38 388.00 142.00
C 382.29 138.61 375.25 135.14 369.77 131.23 C 364.29 127.32 356.07 125.64 354.08 117.92 C 352.09 110.20 370.72 111.43 374.00 108.00
C 363.73 98.39 347.32 97.55 340.08 85.92 C 332.83 74.30 329.07 59.05 320.75 48.25 C 312.43 37.46 304.60 26.82 291.77 21.23 C 278.95 15.64 262.36 11.39 249.00 7.00
C 257.07 20.52 261.73 34.58 269.30 48.70 C 276.88 62.81 261.32 83.60 276.00 97.00
C 274.79 84.88 284.19 71.68 288.92 85.08 C 293.65 98.47 298.52 99.77 305.00 111.00
C 305.92 112.24 308.69 112.75 308.00 115.00
C 306.17 114.73 303.70 113.98 303.00 112.00
C 296.03 106.28 288.76 99.38 286.00 91.00
C 285.60 96.46 279.11 107.76 271.31 101.69 C 263.50 95.63 266.83 88.79 264.00 81.00 C 261.17 73.21 268.64 62.72 267.00 56.00 C 265.35 49.27 258.65 44.40 257.68 37.32 C 256.70 30.25 251.85 24.84 247.75 19.25 C 243.66 13.66 240.91 2.47 250.00 0.00
L 0.00 0.00
L 0.00 202.00
M 280.00 34.00 
C 276.19 33.18 273.26 28.70 273.00 25.00
C 279.64 22.90 281.02 28.77 280.00 34.00
M 79.00 123.00 
C 80.71 123.17 81.45 123.46 83.00 124.00
C 93.88 127.81 89.36 139.84 90.00 150.00 C 90.64 160.16 89.52 173.55 90.00 184.00
C 85.67 184.00 81.33 184.00 77.00 184.00
C 76.74 168.98 77.76 153.65 76.00 139.00
C 70.22 152.09 63.79 158.38 59.23 173.23 C 54.67 188.08 35.42 188.03 31.08 172.92 C 26.73 157.82 18.49 151.74 15.00 137.00
C 12.67 151.76 14.66 168.49 14.00 184.00
C 9.67 184.00 5.33 184.00 1.00 184.00
C 1.15 166.89 0.80 151.26 1.00 134.00 C 1.20 116.74 25.69 121.64 28.77 135.23 C 31.85 148.81 40.97 157.65 44.00 171.00
C 57.64 158.30 55.25 124.12 79.00 123.00
M 178.00 184.00 
C 176.23 184.17 172.78 186.54 171.00 184.00
C 169.59 181.99 172.06 177.26 171.00 175.00
C 182.77 177.67 190.37 171.79 202.22 174.22 C 214.07 176.66 218.48 161.75 207.99 159.01 C 197.50 156.27 187.12 159.91 178.32 155.68 C 169.52 151.44 167.99 140.44 172.31 132.31 C 176.62 124.17 187.98 123.27 197.00 124.00 C 206.02 124.73 219.66 123.04 229.00 123.00
C 229.00 126.33 229.00 129.67 229.00 133.00
C 218.81 130.68 209.52 138.25 199.00 134.00 C 188.48 129.75 179.99 144.23 189.68 148.32 C 199.37 152.41 209.34 148.02 219.02 150.98 C 228.71 153.93 230.82 162.69 229.00 172.00 C 227.18 181.31 219.17 183.99 210.00 184.00 C 200.83 184.01 187.55 183.99 178.00 184.00
M 295.00 181.00 
C 297.56 185.53 303.61 188.02 305.00 193.00
C 291.94 197.39 281.51 183.02 270.00 184.00 C 258.49 184.98 238.85 186.19 237.01 172.99 C 235.17 159.80 233.10 143.87 238.77 131.77 C 244.45 119.67 263.86 125.98 275.00 124.00 C 286.14 122.02 304.01 127.90 301.00 142.00 C 297.99 156.10 307.14 171.28 295.00 181.00
M 322.00 124.00 
C 321.26 134.63 322.98 144.26 322.00 155.00 C 321.02 165.74 322.89 175.23 334.67 174.33 C 346.45 173.43 354.35 176.40 366.00 175.00
C 366.00 178.00 366.00 181.00 366.00 184.00
C 350.66 179.81 324.20 191.72 312.25 178.75 C 300.30 165.78 312.44 139.90 308.00 124.00
C 312.67 124.00 317.33 124.00 322.00 124.00 Z"/>
</g>
<g fill="#0D5D83" fill-opacity="0.82" stroke="None">
<path d="
M 303.00 112.00 
C 303.79 112.03 304.11 110.96 305.00 111.00
C 298.52 99.77 293.65 98.47 288.92 85.08 C 284.19 71.68 274.79 84.88 276.00 97.00
C 261.32 83.60 276.88 62.81 269.30 48.70 C 261.73 34.58 257.07 20.52 249.00 7.00
C 262.36 11.39 278.95 15.64 291.77 21.23 C 304.60 26.82 312.43 37.46 320.75 48.25 C 329.07 59.05 332.83 74.30 340.08 85.92 C 347.32 97.55 363.73 98.39 374.00 108.00
C 370.72 111.43 352.09 110.20 354.08 117.92 C 356.07 125.64 364.29 127.32 369.77 131.23 C 375.25 135.14 382.29 138.61 388.00 142.00
C 384.11 131.38 371.84 125.66 364.00 118.00
C 374.31 118.45 387.73 111.41 377.70 104.30 C 367.66 97.19 364.54 93.42 354.68 89.32 C 344.82 85.22 343.56 75.70 338.93 67.07 C 334.30 58.45 331.83 49.56 325.77 42.23 C 319.72 34.90 314.83 28.27 307.08 22.92 C 299.33 17.57 291.69 11.09 282.00 10.00 C 272.31 8.91 263.82 3.15 255.00 0.00
L 250.00 0.00
C 240.91 2.47 243.66 13.66 247.75 19.25 C 251.85 24.84 256.70 30.25 257.68 37.32 C 258.65 44.40 265.35 49.27 267.00 56.00 C 268.64 62.72 261.17 73.21 264.00 81.00 C 266.83 88.79 263.50 95.63 271.31 101.69 C 279.11 107.76 285.60 96.46 286.00 91.00
C 288.76 99.38 296.03 106.28 303.00 112.00 Z"/>
</g>
<g fill="#145979" fill-opacity="0.75" stroke="None">
<path d="
M 280.00 34.00 
C 281.02 28.77 279.64 22.90 273.00 25.00
C 273.26 28.70 276.19 33.18 280.00 34.00 Z"/>
</g>
<g fill="#2E5065" fill-opacity="0.34" stroke="None">
<path d="
M 303.00 112.00 
C 303.70 113.98 306.17 114.73 308.00 115.00
C 308.69 112.75 305.92 112.24 305.00 111.00
C 304.11 110.96 303.79 112.03 303.00 112.00 Z"/>
</g>
<g fill="#055E88" fill-opacity="0.95" stroke="None">
<path d="
M 83.00 124.00 
C 82.77 123.96 82.27 124.17 80.96 124.96 C 79.65 125.76 78.99 123.00 79.00 123.00
C 55.25 124.12 57.64 158.30 44.00 171.00
C 40.97 157.65 31.85 148.81 28.77 135.23 C 25.69 121.64 1.20 116.74 1.00 134.00 C 0.80 151.26 1.15 166.89 1.00 184.00
C 5.33 184.00 9.67 184.00 14.00 184.00
C 14.66 168.49 12.67 151.76 15.00 137.00
C 18.49 151.74 26.73 157.82 31.08 172.92 C 35.42 188.03 54.67 188.08 59.23 173.23 C 63.79 158.38 70.22 152.09 76.00 139.00
C 77.76 153.65 76.74 168.98 77.00 184.00
C 81.33 184.00 85.67 184.00 90.00 184.00
C 89.52 173.55 90.64 160.16 90.00 150.00 C 89.36 139.84 93.88 127.81 83.00 124.00 Z"/>
</g>
<g fill="#135E71" fill-opacity="0.62" stroke="None">
<path d="
M 83.00 124.00 
C 81.45 123.46 80.71 123.17 79.00 123.00
C 78.99 123.00 79.65 125.76 80.96 124.96 C 82.27 124.17 82.77 123.96 83.00 124.00 Z"/>
</g>
<g fill="#E08C0D" fill-opacity="0.92" stroke="None">
<path d="
M 171.00 184.00 
C 173.33 184.00 175.67 184.00 178.00 184.00
C 187.55 183.99 200.83 184.01 210.00 184.00 C 219.17 183.99 227.18 181.31 229.00 172.00 C 230.82 162.69 228.71 153.93 219.02 150.98 C 209.34 148.02 199.37 152.41 189.68 148.32 C 179.99 144.23 188.48 129.75 199.00 134.00 C 209.52 138.25 218.81 130.68 229.00 133.00
C 229.00 129.67 229.00 126.33 229.00 123.00
C 219.66 123.04 206.02 124.73 197.00 124.00 C 187.98 123.27 176.62 124.17 172.31 132.31 C 167.99 140.44 169.52 151.44 178.32 155.68 C 187.12 159.91 197.50 156.27 207.99 159.01 C 218.48 161.75 214.07 176.66 202.22 174.22 C 190.37 171.79 182.77 177.67 171.00 175.00
C 172.06 177.26 169.59 181.99 171.00 184.00 Z"/>
</g>
<g fill="#E08C0C" fill-opacity="0.94" stroke="None">
<path d="
M 295.00 181.00 
C 307.14 171.28 297.99 156.10 301.00 142.00 C 304.01 127.90 286.14 122.02 275.00 124.00 C 263.86 125.98 244.45 119.67 238.77 131.77 C 233.10 143.87 235.17 159.80 237.01 172.99 C 238.85 186.19 258.49 184.98 270.00 184.00 C 281.51 183.02 291.94 197.39 305.00 193.00
C 303.61 188.02 297.56 185.53 295.00 181.00
M 286.00 173.00 
C 279.41 165.87 270.52 165.00 261.00 166.00
C 263.05 169.45 267.00 171.58 269.00 175.00
C 256.12 179.40 250.49 168.61 251.00 159.00 C 251.51 149.39 249.06 134.05 260.00 134.00 C 270.94 133.96 284.42 130.26 287.00 141.00 C 289.58 151.75 287.85 162.64 286.00 173.00 Z"/>
</g>
<g fill="#E08C0B" fill-opacity="0.93" stroke="None">
<path d="
M 322.00 124.00 
C 317.33 124.00 312.67 124.00 308.00 124.00
C 312.44 139.90 300.30 165.78 312.25 178.75 C 324.20 191.72 350.66 179.81 366.00 184.00
C 366.00 181.00 366.00 178.00 366.00 175.00
C 354.35 176.40 346.45 173.43 334.67 174.33 C 322.89 175.23 321.02 165.74 322.00 155.00 C 322.98 144.26 321.26 134.63 322.00 124.00 Z"/>
</g>
<g fill="#000000" fill-opacity="0.00" stroke="None">
<path d="
M 286.00 173.00 
C 287.85 162.64 289.58 151.75 287.00 141.00 C 284.42 130.26 270.94 133.96 260.00 134.00 C 249.06 134.05 251.51 149.39 251.00 159.00 C 250.49 168.61 256.12 179.40 269.00 175.00
C 267.00 171.58 263.05 169.45 261.00 166.00
C 270.52 165.00 279.41 165.87 286.00 173.00 Z"/>
</g>
<g fill="#055E88" fill-opacity="0.93" stroke="None">
<path d="
M 101.00 202.00 
L 128.00 202.00
C 131.08 200.31 136.17 200.89 140.00 201.00
C 141.89 201.05 144.92 200.24 146.00 202.00
L 148.00 202.00
C 172.76 195.23 158.04 161.56 162.00 142.00
C 157.67 142.00 153.33 142.00 149.00 142.00
C 147.16 152.63 148.32 163.99 148.00 175.00
C 139.11 172.23 123.21 179.46 115.75 173.25 C 108.30 167.03 115.75 151.15 113.00 143.00
C 108.67 143.00 104.33 143.00 100.00 143.00
C 102.30 153.91 94.31 175.40 106.93 181.07 C 119.54 186.75 134.57 181.55 148.00 184.00
C 149.00 195.21 136.20 191.95 128.00 192.00 C 119.80 192.05 109.35 192.69 101.00 193.00
C 101.00 196.00 101.00 199.00 101.00 202.00 Z"/>
</g>
<g fill="#D0861D" fill-opacity="0.71" stroke="None">
<path d="
M 391.00 179.00 
L 391.00 173.00
C 387.92 162.33 370.59 164.39 371.00 176.00 C 371.42 187.60 386.44 188.63 391.00 179.00
M 377.00 171.00 
C 377.00 174.33 377.00 177.67 377.00 181.00
C 376.17 180.59 375.13 180.03 375.00 179.00
C 373.91 176.96 373.95 174.09 375.00 172.00
C 375.22 171.57 376.22 169.61 377.00 170.00
C 378.57 168.36 380.63 170.76 383.00 170.00
C 381.86 171.87 378.87 170.61 377.00 171.00
M 385.00 180.00 
C 384.12 176.86 385.14 174.42 385.00 171.00
C 388.30 172.68 388.35 178.32 385.00 180.00
M 384.00 182.00 
C 378.94 182.22 378.06 182.44 380.00 178.00
C 381.85 179.02 382.44 180.83 384.00 182.00 Z"/>
</g>
<g fill="#DF910F" fill-opacity="0.53" stroke="None">
<path d="
M 377.00 170.00 
C 376.75 170.26 377.00 171.00 377.00 171.00
C 378.87 170.61 381.86 171.87 383.00 170.00
C 380.63 170.76 378.57 168.36 377.00 170.00 Z"/>
</g>
<g fill="#E18917" fill-opacity="0.15" stroke="None">
<path d="
M 375.00 172.00 
C 375.09 171.53 375.09 179.53 375.00 179.00
C 375.13 180.03 376.17 180.59 377.00 181.00
C 377.00 177.67 377.00 174.33 377.00 171.00
C 377.00 171.00 376.75 170.26 377.00 170.00
C 376.22 169.61 375.22 171.57 375.00 172.00 Z"/>
</g>
<g fill="#000000" fill-opacity="0.00" stroke="None">
<path d="
M 385.00 180.00 
C 388.35 178.32 388.30 172.68 385.00 171.00
C 385.14 174.42 384.12 176.86 385.00 180.00 Z"/>
</g>
<g fill="#000000" fill-opacity="0.00" stroke="None">
<path d="
M 375.00 179.00 
C 375.09 179.53 375.09 171.53 375.00 172.00
C 373.95 174.09 373.91 176.96 375.00 179.00 Z"/>
</g>
<g fill="#000000" fill-opacity="0.00" stroke="None">
<path d="
M 384.00 182.00 
C 382.44 180.83 381.85 179.02 380.00 178.00
C 378.06 182.44 378.94 182.22 384.00 182.00 Z"/>
</g>
<g fill="#BB8B40" fill-opacity="0.11" stroke="None">
<path d="
M 178.00 184.00 
C 175.67 184.00 173.33 184.00 171.00 184.00
C 172.78 186.54 176.23 184.17 178.00 184.00 Z"/>
</g>
<g fill="#04638F" fill-opacity="0.67" stroke="None">
<path d="
M 128.00 202.00 
L 140.00 202.00
C 140.00 201.50 140.00 201.00 140.00 201.00
C 136.17 200.89 131.08 200.31 128.00 202.00 Z"/>
</g>
<g fill="#01608D" fill-opacity="0.40" stroke="None">
<path d="
M 140.00 202.00 
L 146.00 202.00
C 144.92 200.24 141.89 201.05 140.00 201.00
C 140.00 201.00 140.00 201.50 140.00 202.00 Z"/>
</g>
</svg>