<?xml version="1.0" encoding="UTF-8" standalone="no"?>
<!DOCTYPE svg PUBLIC "-//W3C//DTD SVG 1.1//EN" "http://www.w3.org/Graphics/SVG/1.1/DTD/svg11.dtd">
<svg xmlns="http://www.w3.org/2000/svg" version="1.1" viewBox="0.00 0.00 500.00 500.00">
<path fill="#000000" d="
  M 368.17 469.59
  Q 368.30 469.69 368.37 469.83
  A 0.32 0.31 -28.2 0 1 368.24 470.25
  C 366.03 471.45 364.04 472.82 361.72 473.80
  C 359.59 474.71 357.82 476.00 355.65 476.85
  C 352.36 478.15 349.27 479.88 345.96 481.03
  Q 343.39 481.92 340.87 483.03
  Q 338.22 484.20 335.72 484.96
  Q 332.89 485.82 330.28 486.86
  Q 327.64 487.91 324.89 488.66
  Q 322.10 489.43 319.44 490.28
  Q 316.48 491.23 313.84 491.86
  Q 306.91 493.52 299.81 495.04
  Q 293.15 496.48 284.39 497.54
  Q 276.42 498.51 269.30 498.69
  Q 250.88 499.15 232.07 498.66
  Q 224.21 498.46 216.05 497.57
  Q 207.73 496.66 200.23 495.09
  Q 194.79 493.95 188.96 492.59
  Q 183.24 491.26 177.68 489.50
  Q 171.14 487.44 164.68 485.16
  Q 161.95 484.20 159.43 483.14
  C 156.12 481.75 152.66 480.74 149.49 479.09
  C 147.46 478.03 145.25 477.33 143.20 476.29
  Q 140.25 474.80 137.25 473.27
  Q 110.69 459.70 87.79 440.26
  Q 73.66 428.27 61.73 414.49
  Q 43.29 393.20 30.01 368.73
  Q 25.44 360.32 21.15 350.56
  Q 19.18 346.09 17.41 341.51
  Q 16.75 339.79 16.17 338.18
  Q 14.30 332.97 12.58 327.99
  Q 10.10 320.80 8.41 313.97
  Q 6.14 304.83 4.39 295.67
  Q 1.47 280.35 1.15 268.57
  C 0.72 253.14 0.21 236.49 1.95 221.00
  Q 4.18 201.25 9.32 182.48
  Q 11.09 176.03 13.52 168.87
  Q 15.86 161.97 18.39 155.92
  Q 46.85 87.90 106.14 45.79
  Q 124.83 32.52 144.76 23.36
  Q 161.94 15.46 181.93 9.56
  Q 186.25 8.29 190.55 7.35
  Q 194.94 6.39 199.26 5.38
  Q 207.55 3.46 217.48 2.33
  Q 227.05 1.24 235.27 1.11
  Q 251.44 0.86 268.51 1.15
  Q 273.56 1.23 278.28 1.88
  Q 283.78 2.64 289.18 3.31
  Q 295.15 4.05 300.52 5.35
  C 305.68 6.61 311.05 7.58 316.10 9.02
  Q 377.15 26.43 421.26 68.37
  Q 484.51 128.49 497.48 216.72
  Q 498.79 225.61 498.99 235.83
  Q 499.43 258.81 498.76 272.05
  Q 498.33 280.50 495.14 298.38
  Q 494.67 301.05 494.00 303.22
  C 493.32 305.46 493.05 307.70 492.49 309.96
  Q 477.32 371.63 433.34 419.83
  Q 428.87 424.73 424.30 429.09
  C 418.22 434.90 412.29 440.33 405.88 445.46
  Q 400.07 450.11 393.15 455.07
  Q 389.28 457.85 385.84 459.93
  Q 385.33 460.23 385.01 459.74
  Q 343.16 396.31 301.26 332.89
  Q 283.94 306.67 266.03 279.47
  Q 253.89 261.03 241.64 242.42
  Q 216.44 204.16 187.63 161.07
  C 186.77 159.78 185.19 158.43 183.61 158.06
  C 182.13 157.71 181.01 157.26 179.44 157.22
  Q 173.35 157.08 167.13 157.16
  C 162.15 157.22 158.72 158.94 156.40 163.06
  A 1.96 1.95 60.1 0 0 156.16 163.96
  Q 155.35 260.03 155.67 342.00
  Q 155.70 348.64 155.75 355.27
  Q 155.82 362.69 160.58 365.47
  Q 162.89 366.82 165.97 366.82
  Q 172.23 366.81 178.26 366.67
  C 182.00 366.58 185.72 364.37 186.41 360.30
  Q 187.03 356.69 187.02 353.33
  Q 186.90 287.59 187.00 221.46
  Q 187.01 218.02 187.69 214.61
  Q 187.79 214.11 188.10 214.52
  Q 190.89 218.27 194.07 222.94
  Q 236.69 285.47 281.63 352.21
  Q 287.19 360.45 293.15 368.53
  Q 324.22 410.64 357.73 455.49
  Q 363.08 462.67 367.70 469.13
  Q 367.90 469.40 368.17 469.59
  Z
  M 318.72 150.34
  C 315.56 150.53 312.61 152.90 311.18 155.58
  Q 310.15 157.49 310.14 161.67
  Q 309.96 224.81 310.18 286.95
  A 2.42 2.38 -62.5 0 0 310.57 288.23
  L 340.47 333.98
  Q 341.07 334.90 341.09 333.80
  Q 341.82 266.01 341.67 211.75
  C 341.62 193.57 341.53 175.85 341.04 158.46
  Q 340.98 156.17 340.18 154.81
  C 338.26 151.59 334.75 150.16 331.00 150.10
  Q 324.25 150.00 318.72 150.34
  Z"
/>
</svg>
