<?xml version="1.0" encoding="UTF-8" standalone="no"?>
<!DOCTYPE svg PUBLIC "-//W3C//DTD SVG 1.1//EN" "http://www.w3.org/Graphics/SVG/1.1/DTD/svg11.dtd">
<svg xmlns="http://www.w3.org/2000/svg" version="1.1" viewBox="0.00 0.00 454.00 512.00">
<path fill="#539e43" d="
  M 224.63 0.00
  L 229.03 0.00
  Q 239.46 0.70 246.49 4.77
  Q 340.12 59.02 433.75 113.25
  Q 451.69 123.64 454.00 145.11
  L 454.00 367.73
  Q 452.09 384.54 439.85 395.06
  C 436.84 397.65 432.80 399.95 429.22 402.01
  Q 341.14 452.86 252.87 504.21
  Q 245.42 508.54 240.61 509.90
  C 227.10 513.72 215.62 511.76 203.94 504.77
  Q 171.84 485.55 143.13 468.59
  Q 140.81 467.23 139.36 465.24
  Q 139.04 464.80 139.26 464.31
  Q 140.13 462.44 141.98 461.87
  Q 158.01 456.93 170.73 449.07
  C 171.97 448.30 173.73 448.12 174.98 448.87
  Q 198.51 462.91 223.25 477.73
  Q 226.52 479.69 229.63 477.88
  Q 322.81 423.90 415.99 369.92
  C 418.20 368.64 419.77 367.21 419.77 364.64
  Q 419.79 256.66 419.77 147.23
  C 419.77 145.44 418.82 143.35 417.25 142.44
  Q 325.76 89.67 234.26 36.90
  C 230.87 34.94 227.34 32.02 223.54 34.22
  Q 130.58 87.82 36.46 142.12
  C 34.56 143.22 33.42 145.12 33.42 147.37
  Q 33.32 256.07 33.39 364.25
  C 33.39 366.32 34.55 368.47 36.43 369.54
  Q 58.74 382.32 82.97 396.50
  Q 88.92 399.98 93.45 401.72
  C 105.35 406.26 118.90 405.40 127.26 395.21
  C 130.39 391.38 132.49 386.01 132.49 381.04
  Q 132.50 275.55 132.49 166.84
  C 132.49 163.15 134.88 160.60 138.78 160.59
  Q 149.59 160.58 160.67 160.52
  C 164.35 160.51 167.73 162.06 167.74 166.13
  Q 167.78 274.91 167.72 382.09
  Q 167.72 395.91 163.00 407.85
  C 155.68 426.38 140.07 436.59 120.71 438.49
  C 107.13 439.83 96.15 438.63 83.74 433.74
  C 77.04 431.10 70.52 428.13 64.39 424.57
  Q 46.13 413.94 27.15 403.33
  Q 16.18 397.19 11.63 392.68
  Q 1.35 382.48 0.00 366.61
  L 0.00 145.76
  Q 1.37 130.38 11.20 120.31
  Q 15.23 116.19 27.40 109.14
  Q 117.00 57.25 206.59 5.34
  Q 214.49 0.76 224.63 0.00
  Z"
/>
<path fill="#539e43" d="
  M 341.51 295.83
  C 340.41 284.40 325.75 280.38 316.67 278.27
  Q 306.29 275.86 296.87 274.62
  Q 281.87 272.64 264.17 270.69
  Q 253.44 269.51 241.27 266.70
  C 228.67 263.79 215.91 259.13 206.51 250.74
  C 194.54 240.07 191.11 224.28 192.67 208.33
  C 196.17 172.64 229.18 157.75 260.71 154.88
  Q 284.32 152.73 307.64 156.14
  C 332.22 159.73 355.27 170.57 365.25 194.30
  Q 370.51 206.80 371.19 220.00
  C 371.40 224.04 368.32 226.02 364.60 225.99
  Q 353.54 225.89 342.55 225.97
  Q 337.52 226.01 336.42 221.19
  C 332.97 206.17 325.89 195.41 310.13 190.94
  C 298.72 187.69 285.82 187.26 273.39 187.48
  C 256.91 187.76 230.59 190.54 229.43 212.00
  Q 229.15 217.01 230.44 220.61
  C 232.62 226.73 241.17 229.65 247.10 231.21
  Q 254.47 233.14 262.07 234.44
  C 286.83 238.68 312.56 240.66 336.15 247.07
  C 356.86 252.70 374.23 263.48 377.83 285.74
  C 382.16 312.46 372.09 336.59 347.90 349.61
  C 324.80 362.05 296.51 364.04 269.88 362.33
  C 238.55 360.31 203.06 351.46 190.22 319.10
  Q 186.00 308.45 185.63 293.93
  C 185.54 290.37 187.99 287.54 191.62 287.52
  Q 203.08 287.46 215.32 287.51
  C 218.28 287.53 220.50 288.94 220.91 292.06
  C 222.65 305.27 227.57 316.43 239.31 322.17
  C 249.92 327.36 262.08 328.67 274.07 329.17
  C 287.79 329.75 301.22 329.51 314.62 326.97
  C 331.17 323.84 343.34 314.74 341.51 295.83
  Z"
/>
</svg>
