<?xml version="1.0" encoding="UTF-8" standalone="no"?>
<!DOCTYPE svg PUBLIC "-//W3C//DTD SVG 1.1//EN" "http://www.w3.org/Graphics/SVG/1.1/DTD/svg11.dtd">
<svg xmlns="http://www.w3.org/2000/svg" version="1.1" viewBox="0.00 0.00 800.00 986.00">
<path fill="#ff0101" d="
  M 471.86 16.57
  C 556.36 53.78 600.80 146.98 576.29 236.08
  C 563.42 282.90 532.81 322.66 490.69 347.28
  Q 490.20 347.57 489.91 347.07
  L 434.55 251.16
  A 0.49 0.49 0.0 0 1 434.71 250.50
  Q 456.18 237.38 465.33 215.50
  C 485.54 167.17 450.92 113.48 398.29 112.90
  C 364.01 112.53 334.59 135.04 325.91 168.05
  C 317.45 200.25 331.36 233.19 359.84 250.40
  Q 360.36 250.72 360.06 251.25
  L 304.61 347.31
  A 0.24 0.24 0.0 0 1 304.28 347.40
  C 262.38 323.29 231.88 283.68 218.73 237.45
  C 194.84 153.51 232.82 63.97 309.85 22.86
  C 359.81 -3.80 419.87 -6.33 471.86 16.57
  Z"
/>
<path fill="#01ff01" d="
  M 129.24 596.49
  C 155.96 633.84 210.79 638.30 242.58 604.73
  Q 262.51 583.67 263.25 554.05
  Q 263.27 553.53 263.79 553.53
  L 374.49 553.53
  Q 375.01 553.53 375.01 554.05
  C 374.84 608.29 351.24 659.02 310.31 694.40
  C 236.35 758.34 124.69 753.21 56.57 683.36
  C 13.16 638.86 -5.10 576.18 7.69 515.12
  C 18.65 462.77 52.05 417.37 98.69 391.41
  C 155.80 359.63 224.72 359.99 281.66 392.30
  Q 282.18 392.60 281.88 393.11
  L 226.56 489.02
  Q 226.28 489.50 225.79 489.23
  Q 203.59 476.99 179.38 480.36
  C 124.58 488.00 96.73 551.04 129.24 596.49
  Z"
/>
<path fill="#0101ff" d="
  M 585.28 623.36
  C 625.87 637.60 669.73 613.57 680.63 572.67
  C 689.30 540.14 675.48 507.09 646.60 489.69
  A 0.35 0.34 -60.1 0 1 646.48 489.22
  L 701.81 393.31
  Q 702.22 392.61 702.91 393.03
  C 775.19 435.74 810.44 520.43 788.62 601.73
  C 767.66 679.82 697.91 736.08 616.70 739.14
  C 528.14 742.47 450.10 683.47 428.97 597.56
  C 416.18 545.60 426.66 490.62 457.43 446.66
  Q 480.44 413.79 516.08 392.84
  A 0.43 0.43 0.0 0 1 516.67 393.00
  L 572.19 489.23
  A 0.31 0.31 0.0 0 1 572.08 489.66
  Q 547.05 504.78 538.57 532.31
  C 532.79 551.03 535.19 572.31 544.57 589.04
  Q 558.57 613.98 585.28 623.36
  Z"
/>
<path fill="#050505" d="
  M 118.99 788.61
  Q 133.94 793.86 138.55 810.03
  Q 141.02 818.74 142.00 826.56
  Q 145.97 858.33 142.21 893.45
  C 140.94 905.36 138.38 923.18 127.24 930.41
  C 119.80 935.23 111.00 937.27 102.31 938.46
  Q 73.41 942.40 46.30 938.45
  Q 38.53 937.32 30.61 934.30
  Q 17.16 929.18 12.65 915.23
  Q 9.21 904.59 8.16 894.71
  C 5.92 873.59 6.21 851.51 8.45 830.82
  Q 9.51 820.92 12.07 811.26
  C 14.47 802.17 18.57 795.04 27.54 790.80
  Q 35.35 787.11 43.40 785.75
  Q 72.82 780.80 102.07 784.55
  Q 110.53 785.63 118.99 788.61
  Z
  M 111.43 902.30
  Q 112.84 896.79 113.23 893.22
  C 115.01 876.82 114.85 859.91 114.40 843.31
  Q 114.16 834.38 112.62 825.57
  Q 111.49 819.10 110.73 817.48
  C 107.86 811.30 99.42 809.92 93.12 809.20
  Q 76.25 807.28 57.73 809.25
  C 52.47 809.81 46.64 810.86 42.52 814.32
  C 39.26 817.05 38.04 824.25 37.67 828.12
  Q 35.39 851.89 36.12 878.62
  Q 36.38 888.02 37.96 898.13
  C 38.71 902.98 40.94 909.41 45.86 911.19
  C 59.42 916.08 76.64 915.61 91.24 914.32
  Q 97.37 913.77 102.96 911.79
  Q 109.61 909.43 111.43 902.30
  Z"
/>
<path fill="#050505" d="
  M 553.73 819.86
  Q 551.57 827.96 551.12 837.07
  C 550.44 850.69 550.49 866.29 551.09 879.32
  Q 551.58 890.02 553.49 900.94
  C 554.48 906.62 557.52 910.31 562.78 912.05
  Q 567.78 913.70 573.38 914.29
  Q 592.11 916.23 608.55 913.51
  C 623.95 910.97 622.78 896.37 622.50 884.65
  A 0.33 0.33 0.0 0 1 622.83 884.31
  L 651.54 884.31
  A 0.39 0.38 0.0 0 1 651.93 884.69
  C 652.13 896.04 651.46 907.94 647.89 918.99
  Q 643.81 931.59 631.12 935.53
  Q 621.43 938.53 610.40 939.43
  Q 592.48 940.89 576.40 940.09
  C 562.18 939.39 537.52 937.12 530.43 922.87
  Q 527.03 916.03 525.36 906.45
  Q 523.57 896.15 522.79 885.77
  Q 520.92 861.04 521.44 839.76
  C 521.74 827.10 523.59 812.95 529.81 802.10
  C 535.07 792.92 544.46 789.13 554.59 786.76
  Q 561.46 785.15 568.05 784.44
  C 584.31 782.69 601.07 782.32 616.30 784.39
  C 623.10 785.32 631.84 787.51 637.28 791.45
  C 649.91 800.62 650.43 821.88 650.34 835.72
  Q 650.33 836.31 649.75 836.31
  L 621.48 836.31
  A 0.39 0.39 0.0 0 1 621.09 835.90
  C 621.26 829.64 621.20 822.63 618.55 816.83
  Q 616.45 812.21 611.42 810.65
  Q 605.32 808.74 596.71 808.46
  C 584.37 808.06 572.05 807.98 560.75 811.83
  C 557.08 813.09 554.69 816.24 553.73 819.86
  Z"
/>
<path fill="#050505" d="
  M 800.00 784.34
  L 800.00 787.95
  L 751.26 938.67
  Q 751.16 938.96 750.86 938.96
  L 706.65 938.97
  Q 706.03 938.97 705.84 938.37
  L 656.90 784.76
  Q 656.75 784.27 657.26 784.27
  L 686.48 784.36
  Q 687.14 784.36 687.35 784.99
  Q 702.19 830.04 716.77 874.57
  C 720.95 887.35 724.26 900.82 728.27 913.57
  Q 728.54 914.39 728.84 913.58
  Q 730.51 909.19 731.62 905.13
  Q 736.10 888.82 740.20 876.06
  Q 753.37 834.99 769.74 785.00
  Q 769.88 784.56 770.34 784.56
  L 800.00 784.34
  Z"
/>
<path fill="#050505" d="
  M 190.69 924.52
  L 190.69 985.28
  A 0.47 0.46 0.0 0 1 190.22 985.74
  L 164.25 985.74
  A 0.25 0.24 0.0 0 1 164.00 985.50
  L 164.00 831.50
  Q 164.00 831.00 164.50 831.00
  L 189.25 831.00
  Q 189.88 831.00 189.85 831.63
  L 189.20 845.79
  Q 189.14 847.04 189.89 846.04
  Q 192.31 842.82 195.14 839.81
  C 200.83 833.76 209.95 830.80 218.25 830.01
  C 230.76 828.83 246.53 830.21 255.67 839.19
  C 262.21 845.62 264.87 857.61 265.76 866.73
  Q 266.99 879.42 266.48 892.11
  C 266.04 903.18 264.81 913.67 260.50 923.55
  C 257.10 931.33 249.89 936.34 241.79 938.32
  Q 224.70 942.50 209.73 938.42
  C 201.19 936.09 195.87 931.42 191.35 924.33
  Q 190.69 923.28 190.69 924.52
  Z
  M 229.21 918.35
  C 235.10 916.49 237.74 910.54 238.59 905.03
  Q 241.10 888.85 239.35 870.37
  C 238.17 857.92 235.00 851.22 221.44 849.95
  C 211.30 849.01 195.99 848.93 192.98 861.43
  C 190.13 873.25 190.38 884.97 191.13 897.14
  C 191.70 906.33 193.74 916.11 203.93 918.89
  Q 216.59 922.35 229.21 918.35
  Z"
/>
<path fill="#050505" d="
  M 308.93 890.31
  Q 309.28 896.56 309.73 902.55
  C 310.63 914.38 316.30 919.58 328.00 920.17
  C 335.11 920.53 342.42 920.75 349.18 918.59
  C 355.20 916.67 355.64 910.25 356.06 904.99
  Q 356.11 904.31 356.80 904.31
  L 381.07 904.31
  Q 381.71 904.31 381.70 904.96
  C 381.57 914.27 379.64 924.19 372.31 930.24
  Q 364.70 936.52 353.44 938.62
  Q 336.46 941.78 316.49 939.23
  Q 305.77 937.86 297.83 933.56
  C 289.04 928.81 285.63 917.24 284.35 907.48
  C 282.18 890.92 281.80 873.96 284.95 858.05
  C 286.99 847.78 291.59 839.01 301.43 834.91
  Q 311.95 830.53 324.63 829.90
  C 337.43 829.26 352.74 829.72 363.95 834.88
  C 370.18 837.76 374.38 842.76 376.77 849.16
  C 381.30 861.32 381.31 876.03 381.78 889.37
  A 0.31 0.31 0.0 0 1 381.47 889.69
  L 309.51 889.69
  Q 308.89 889.69 308.93 890.31
  Z
  M 354.77 858.59
  C 353.04 852.30 347.05 850.53 341.27 850.07
  C 334.36 849.51 326.72 849.20 319.71 850.88
  Q 312.40 852.63 310.51 859.04
  Q 308.60 865.53 309.02 873.09
  Q 309.05 873.59 309.54 873.59
  L 355.27 873.59
  Q 355.88 873.59 355.92 872.98
  Q 356.44 864.67 354.77 858.59
  Z"
/>
<path fill="#050505" d="
  M 428.72 848.69
  Q 430.58 845.12 432.92 841.79
  C 442.38 828.33 464.86 827.94 478.67 831.74
  Q 492.98 835.68 498.28 848.41
  C 501.48 856.09 501.42 864.25 501.38 872.68
  Q 501.25 905.47 501.33 938.41
  Q 501.33 939.00 500.74 939.00
  L 476.47 939.00
  A 0.47 0.47 0.0 0 1 476.00 938.53
  Q 476.00 900.80 475.93 870.00
  C 475.92 864.84 475.75 858.76 472.25 855.03
  C 467.23 849.69 460.05 849.49 453.02 849.75
  C 437.95 850.31 429.30 858.85 429.31 874.89
  Q 429.33 906.79 429.29 938.44
  Q 429.29 939.00 428.74 939.00
  L 404.25 939.00
  A 0.25 0.25 0.0 0 1 404.00 938.75
  L 404.00 832.00
  Q 404.00 831.00 405.00 831.00
  L 428.60 831.00
  A 0.34 0.34 0.0 0 1 428.94 831.36
  L 428.14 848.54
  Q 428.08 849.93 428.72 848.69
  Z"
/>
</svg>
