<?xml version="1.0" encoding="UTF-8" standalone="no"?>
<!DOCTYPE svg PUBLIC "-//W3C//DTD SVG 1.1//EN" "http://www.w3.org/Graphics/SVG/1.1/DTD/svg11.dtd">
<svg xmlns="http://www.w3.org/2000/svg" version="1.1" viewBox="0.00 0.00 512.00 512.00">
<path fill="#5ab0f6" d="
  M 512.00 253.12
  L 512.00 259.01
  Q 510.34 275.02 500.61 287.89
  Q 491.33 300.17 478.83 309.11
  C 457.46 324.41 432.62 334.90 407.27 342.37
  Q 406.68 342.54 406.83 343.13
  C 412.14 365.35 415.64 388.54 415.49 410.70
  C 415.28 442.61 406.39 480.16 371.55 489.05
  C 358.17 492.47 343.51 490.24 330.61 485.06
  Q 287.15 467.62 256.27 434.62
  A 0.37 0.36 -44.5 0 0 255.74 434.62
  Q 224.56 467.82 181.28 485.13
  C 170.24 489.55 157.92 491.72 147.12 490.29
  C 98.40 483.83 93.81 426.89 97.39 388.95
  Q 99.56 365.95 105.15 343.17
  Q 105.29 342.59 104.73 342.42
  C 83.43 336.09 61.91 327.36 43.03 315.78
  C 26.72 305.78 12.09 292.92 4.04 275.46
  Q 1.01 268.89 0.00 259.37
  L 0.00 252.26
  Q 1.47 239.76 7.29 230.04
  C 19.12 210.32 40.35 196.23 61.60 186.07
  Q 82.54 176.07 104.67 169.62
  A 0.68 0.67 75.1 0 0 105.13 168.81
  Q 99.73 146.40 97.58 125.06
  C 94.54 94.86 95.97 55.14 119.24 34.04
  C 130.96 23.42 148.71 19.48 163.98 21.80
  Q 171.86 23.01 182.74 27.43
  Q 224.73 44.52 255.60 77.18
  Q 256.01 77.62 256.42 77.18
  C 278.76 53.44 306.84 34.98 337.97 24.22
  C 356.90 17.68 380.68 21.60 394.86 36.10
  C 412.96 54.60 416.22 84.70 415.41 109.37
  C 414.78 128.58 411.67 148.77 406.83 168.83
  A 0.67 0.67 0.0 0 0 407.30 169.63
  Q 421.32 173.61 438.37 180.65
  Q 460.84 189.94 478.59 202.72
  Q 493.29 213.30 502.45 226.54
  Q 510.55 238.25 512.00 253.12
  Z
  M 126.59 163.68
  C 149.57 158.46 169.77 155.08 191.47 152.79
  Q 192.34 152.70 193.15 152.51
  Q 193.64 152.40 193.92 151.99
  Q 215.19 120.99 240.78 93.17
  A 0.50 0.49 45.5 0 0 240.78 92.50
  Q 216.50 66.53 184.37 51.38
  C 175.35 47.12 167.11 43.58 157.57 42.85
  C 136.81 41.27 125.86 54.09 121.19 72.67
  Q 117.54 87.18 117.83 104.09
  Q 118.31 132.16 125.89 163.24
  Q 126.02 163.81 126.59 163.68
  Z
  M 393.26 85.81
  Q 391.61 70.81 385.97 59.85
  Q 376.31 41.05 353.94 42.85
  Q 347.66 43.35 342.32 45.30
  Q 301.73 60.12 271.17 92.49
  A 0.47 0.46 45.5 0 0 271.17 93.12
  Q 296.90 121.13 318.24 152.18
  A 1.14 1.11 74.8 0 0 319.05 152.66
  Q 351.96 155.83 385.63 163.74
  A 0.39 0.39 0.0 0 0 386.09 163.45
  C 392.22 138.02 396.04 111.01 393.26 85.81
  Z
  M 285.33 150.16
  Q 287.69 150.29 289.97 150.31
  Q 290.64 150.31 290.24 149.77
  Q 274.75 128.71 256.38 108.60
  Q 256.00 108.19 255.63 108.61
  Q 236.85 129.20 221.68 149.91
  Q 221.29 150.43 221.95 150.40
  Q 254.74 148.48 285.33 150.16
  Z
  M 217.17 340.14
  Q 263.64 342.84 305.81 339.30
  A 1.08 1.06 -75.3 0 0 306.62 338.82
  Q 332.86 299.54 352.96 256.47
  Q 353.19 255.98 352.96 255.48
  Q 333.30 213.22 306.64 173.20
  Q 306.32 172.74 305.76 172.69
  Q 256.21 168.65 206.22 172.70
  Q 205.68 172.74 205.38 173.19
  Q 179.23 212.36 159.04 255.54
  Q 158.82 256.01 159.04 256.48
  Q 178.88 299.06 205.32 338.72
  Q 205.60 339.14 206.10 339.20
  Q 211.36 339.80 217.17 340.14
  Z
  M 177.95 175.87
  Q 155.60 178.80 131.74 184.45
  A 0.21 0.21 0.0 0 0 131.59 184.72
  Q 138.27 207.32 147.41 229.77
  A 0.27 0.27 0.0 0 0 147.90 229.79
  Q 161.74 202.05 178.11 176.12
  Q 178.30 175.83 177.95 175.87
  Z
  M 334.26 175.81
  Q 333.62 175.72 333.97 176.27
  Q 350.30 202.16 363.95 229.55
  Q 364.37 230.38 364.72 229.52
  Q 373.56 207.68 380.34 185.07
  Q 380.52 184.47 379.91 184.32
  Q 358.38 179.17 334.26 175.81
  Z
  M 110.21 321.73
  Q 110.85 321.92 111.04 321.28
  Q 121.06 288.02 135.11 256.82
  Q 135.48 256.00 135.11 255.17
  Q 120.86 223.39 111.00 190.56
  A 0.47 0.47 0.0 0 0 110.41 190.24
  Q 87.43 197.07 67.47 206.97
  Q 51.69 214.79 39.84 224.67
  C 32.90 230.46 26.28 237.97 23.09 246.54
  C 16.25 264.98 31.30 281.51 45.07 291.44
  C 64.32 305.32 87.12 314.94 110.21 321.73
  Z
  M 486.79 270.17
  C 502.35 241.82 466.97 218.27 445.74 207.54
  Q 425.11 197.11 401.45 190.17
  A 0.35 0.35 0.0 0 0 401.02 190.40
  Q 391.18 223.19 376.93 255.03
  A 2.38 2.36 45.3 0 0 376.93 256.96
  Q 391.11 288.62 401.03 321.60
  Q 401.12 321.90 401.42 321.81
  Q 424.57 315.13 446.04 304.33
  C 461.36 296.62 478.54 285.20 486.79 270.17
  Z
  M 132.10 327.64
  C 147.37 331.26 162.36 333.81 177.51 336.13
  Q 178.38 336.27 177.91 335.52
  Q 161.86 310.13 148.03 282.46
  Q 147.63 281.66 147.30 282.49
  Q 138.45 304.28 131.68 326.90
  Q 131.50 327.50 132.10 327.64
  Z
  M 334.12 336.20
  C 349.79 333.82 365.10 331.23 380.18 327.60
  A 0.33 0.32 74.7 0 0 380.41 327.19
  Q 373.75 304.79 364.63 282.26
  A 0.31 0.31 0.0 0 0 364.06 282.24
  Q 350.13 310.11 333.89 335.85
  A 0.23 0.23 0.0 0 0 334.12 336.20
  Z
  M 184.12 358.38
  Q 155.02 354.99 126.47 348.24
  Q 125.98 348.12 125.86 348.62
  C 120.54 371.19 117.01 394.67 118.01 417.37
  C 118.75 434.25 123.32 460.30 141.59 466.91
  Q 153.80 471.32 165.16 468.12
  Q 175.15 465.31 188.63 458.55
  Q 217.98 443.81 240.86 419.47
  A 0.43 0.43 0.0 0 0 240.86 418.89
  Q 215.52 391.38 193.92 360.01
  A 1.20 1.18 76.7 0 0 193.14 359.52
  Q 190.77 359.15 184.12 358.38
  Z
  M 393.96 417.98
  C 395.05 395.34 391.55 371.17 386.11 348.51
  A 0.41 0.40 -12.8 0 0 385.62 348.21
  Q 354.03 355.84 318.86 359.36
  A 0.81 0.80 -75.9 0 0 318.28 359.71
  Q 296.99 390.75 271.28 418.75
  Q 270.90 419.16 271.28 419.56
  Q 299.22 449.53 338.31 465.29
  C 348.29 469.31 356.80 470.76 367.14 467.99
  Q 376.07 465.59 381.27 459.26
  C 390.21 448.39 393.28 432.28 393.96 417.98
  Z
  M 290.08 361.62
  C 267.51 362.83 245.05 362.95 221.97 361.60
  Q 221.27 361.56 221.69 362.12
  Q 237.05 383.05 255.80 403.60
  A 0.27 0.26 44.3 0 0 256.19 403.60
  Q 274.41 383.71 290.34 362.12
  Q 290.73 361.59 290.08 361.62
  Z"
/>
<path fill="#5ab0f6" d="
  M 298.62 256.00
  A 42.63 42.63 0.0 0 1 255.99 298.63
  A 42.63 42.63 0.0 0 1 213.36 256.00
  A 42.63 42.63 0.0 0 1 255.99 213.37
  A 42.63 42.63 0.0 0 1 298.62 256.00
  Z
  M 277.32 256.00
  A 21.32 21.32 0.0 0 0 256.00 234.68
  A 21.32 21.32 0.0 0 0 234.68 256.00
  A 21.32 21.32 0.0 0 0 256.00 277.32
  A 21.32 21.32 0.0 0 0 277.32 256.00
  Z"
/>
</svg>
