<?xml version="1.0" encoding="UTF-8" standalone="no"?>
<!DOCTYPE svg PUBLIC "-//W3C//DTD SVG 1.1//EN" "http://www.w3.org/Graphics/SVG/1.1/DTD/svg11.dtd">
<svg xmlns="http://www.w3.org/2000/svg" version="1.1" viewBox="0.00 0.00 368.00 495.00">
<g stroke-width="2.30" fill="none" stroke-linecap="butt">
<path stroke="#93c3e7" vector-effect="non-scaling-stroke" d="
  M 366.02 71.84
  Q 365.51 80.79 362.92 85.93
  C 357.94 95.86 346.58 104.53 336.63 109.83
  Q 319.16 119.14 299.50 124.84
  C 261.20 135.93 221.22 140.14 181.26 139.95"
/>
<path stroke="#80b9e2" vector-effect="non-scaling-stroke" d="
  M 181.26 139.95
  Q 173.11 139.85 164.26 139.57
  Q 131.75 138.54 101.06 132.92
  Q 74.27 128.03 51.15 119.50
  C 32.88 112.77 5.97 99.43 1.25 79.22
  C 1.07 78.44 0.62 77.79 0.34 77.03"
/>
<path stroke="#bfdd80" vector-effect="non-scaling-stroke" d="
  M 68.50 96.88
  A 145.52 43.76 0.0 0 0 121.51 109.62
  A 145.52 43.77 0.0 0 0 233.50 111.08
  A 145.51 43.73 -0.0 0 0 282.74 101.94
  A 145.24 43.67 0.0 0 0 297.83 96.99"
/>
<path stroke="#dcea99" vector-effect="non-scaling-stroke" d="
  M 297.83 96.99
  A 145.30 43.74 0.0 0 0 318.03 86.52
  A 145.26 43.66 -0.0 0 0 327.60 75.65
  A 145.76 43.88 -0.0 0 0 326.24 61.74
  A 145.75 43.84 -0.0 0 0 311.48 49.24
  A 145.23 43.75 -0.0 0 0 283.13 38.11
  A 145.53 43.76 0.0 0 0 209.75 26.91
  A 145.56 43.69 0.0 0 0 151.75 27.23
  A 145.49 43.79 0.0 0 0 92.26 35.82
  A 145.43 43.71 -0.0 0 0 65.74 44.18
  A 145.52 43.76 -0.0 0 0 43.55 57.79
  A 144.75 43.51 -0.1 0 0 39.04 64.29
  A 145.32 43.72 -0.0 0 0 40.73 78.72
  A 145.98 44.18 -0.4 0 0 46.82 85.15
  A 145.18 43.64 0.0 0 0 68.50 96.88"
/>
<path stroke="#9cc719" vector-effect="non-scaling-stroke" d="
  M 297.83 96.99
  Q 290.14 93.65 284.26 92.01
  Q 259.20 85.03 230.59 82.17
  Q 189.79 78.10 147.96 81.14
  Q 122.07 83.01 98.00 88.07
  Q 83.16 91.19 68.50 96.88"
/>
<path stroke="#137dca" vector-effect="non-scaling-stroke" d="
  M 172.20 491.61
  L 179.68 491.16
  Q 180.92 491.08 180.92 489.84
  L 180.90 351.72"
/>
<path stroke="#93c3e7" vector-effect="non-scaling-stroke" d="
  M 180.90 351.72
  L 188.80 352.46
  A 2.80 2.77 -18.1 0 1 190.63 353.38
  L 212.88 378.38
  A 2.86 2.85 -20.8 0 0 215.01 379.33
  L 246.51 379.40
  Q 247.45 379.40 246.76 378.77
  L 214.50 348.98
  A 0.54 0.54 0.0 0 1 214.68 348.08
  Q 235.66 340.26 244.50 318.56
  C 251.30 301.87 251.13 279.27 242.92 262.78
  Q 231.42 239.68 205.76 234.42
  Q 195.31 232.27 180.99 234.56"
/>
<path stroke="#137dca" vector-effect="non-scaling-stroke" d="
  M 180.99 234.56
  Q 181.10 230.89 181.08 227.25
  Q 180.95 191.44 181.08 155.64
  Q 181.08 155.54 180.89 148.37
  Q 180.78 144.13 181.26 139.95"
/>
<path stroke="#93c3e7" vector-effect="non-scaling-stroke" d="
  M 336.99 329.97
  A 0.45 0.45 0.0 0 0 336.54 329.52
  L 294.89 329.52
  A 0.45 0.45 0.0 0 1 294.44 329.07
  L 294.43 235.91
  A 0.45 0.45 0.0 0 0 293.98 235.46
  L 268.97 235.47
  A 0.45 0.45 0.0 0 0 268.52 235.92
  L 268.55 350.22
  A 0.45 0.45 0.0 0 0 269.00 350.67
  L 336.56 350.72
  A 0.45 0.45 0.0 0 0 337.01 350.27
  L 336.99 329.97"
/>
<path stroke="#80b9e2" vector-effect="non-scaling-stroke" d="
  M 180.99 234.56
  Q 146.44 242.78 138.31 277.78
  Q 134.59 293.80 137.65 307.99
  Q 145.43 343.99 180.90 351.72"
/>
<path stroke="#80b9e2" vector-effect="non-scaling-stroke" d="
  M 89.32 254.09
  C 99.83 252.90 110.62 255.43 119.56 261.34
  Q 120.26 261.80 120.26 260.96
  L 120.25 238.26
  Q 120.25 237.67 119.68 237.49
  Q 103.69 232.35 86.37 233.69
  C 66.88 235.21 50.19 246.68 50.28 267.72
  Q 50.32 277.68 55.58 285.06
  C 62.84 295.25 73.71 299.96 84.64 305.47
  C 91.07 308.72 98.28 313.09 97.85 321.26
  C 97.37 330.33 87.18 332.43 80.08 332.19
  Q 63.98 331.65 51.32 320.93
  A 0.35 0.35 0.0 0 0 50.75 321.20
  L 50.75 345.69
  Q 50.75 346.17 51.17 346.39
  C 63.66 352.99 79.95 353.67 93.74 351.52
  C 107.87 349.31 120.88 341.46 124.24 326.88
  C 127.03 314.76 124.26 302.85 114.45 294.72
  Q 106.93 288.48 96.93 283.89
  Q 89.55 280.50 83.43 276.43
  Q 77.95 272.78 77.60 266.24
  C 77.22 259.11 82.79 254.82 89.32 254.09"
/>
<path stroke="#80b9e2" vector-effect="non-scaling-stroke" d="
  M 181.20 258.32
  C 164.79 266.72 161.65 287.53 164.63 303.91
  C 166.49 314.14 171.80 322.99 181.16 327.72"
/>
<path stroke="#93c3e7" vector-effect="non-scaling-stroke" d="
  M 181.16 327.72
  Q 189.20 331.44 198.28 329.74
  C 216.56 326.32 222.56 308.51 222.11 292.17
  C 221.62 274.23 213.73 254.90 192.48 255.61
  Q 186.27 255.82 181.20 258.32"
/>
<path stroke="#137dca" vector-effect="non-scaling-stroke" d="
  M 181.16 327.72
  Q 180.75 322.87 180.75 321.50
  Q 180.82 293.20 180.80 264.90
  Q 180.80 263.69 181.02 261.61
  Q 181.19 260.02 181.20 258.32"
/>
</g>
<path fill="#ffffff" d="
  M 366.02 71.84
  Q 365.51 80.79 362.92 85.93
  C 357.94 95.86 346.58 104.53 336.63 109.83
  Q 319.16 119.14 299.50 124.84
  C 261.20 135.93 221.22 140.14 181.26 139.95
  Q 173.11 139.85 164.26 139.57
  Q 131.75 138.54 101.06 132.92
  Q 74.27 128.03 51.15 119.50
  C 32.88 112.77 5.97 99.43 1.25 79.22
  C 1.07 78.44 0.62 77.79 0.34 77.03
  Q -0.32 65.93 5.96 57.15
  C 7.34 55.23 9.16 53.76 10.52 51.85
  Q 11.27 50.78 12.39 49.84
  Q 16.31 46.57 20.13 43.55
  C 21.77 42.25 23.89 41.34 25.35 40.36
  Q 29.41 37.62 34.94 34.95
  Q 54.78 25.36 75.43 20.23
  Q 77.73 19.66 80.01 18.99
  C 82.81 18.18 85.66 18.03 88.40 17.01
  C 90.77 16.12 93.15 16.34 95.54 15.59
  Q 97.44 14.99 99.39 15.02
  Q 99.83 15.02 100.10 14.68
  A 0.95 0.94 -69.5 0 1 100.88 14.32
  C 104.73 14.44 108.76 13.28 112.58 12.89
  Q 113.01 12.85 113.32 12.55
  Q 113.72 12.15 114.28 12.27
  Q 115.65 12.57 117.07 12.31
  Q 122.40 11.35 128.18 10.96
  Q 128.67 10.92 129.04 10.66
  Q 129.14 10.58 129.21 10.47
  Q 129.31 10.31 129.50 10.31
  Q 133.02 10.29 136.24 10.01
  C 137.51 9.90 138.96 10.27 140.15 9.70
  C 142.10 8.76 143.95 10.04 146.01 9.51
  Q 149.34 8.64 153.46 9.06
  Q 154.32 9.15 155.08 8.62
  Q 155.52 8.30 156.06 8.27
  Q 159.53 8.05 163.14 8.44
  C 165.58 8.71 167.16 7.82 169.41 7.83
  Q 178.22 7.89 187.16 7.98
  Q 187.50 7.99 187.83 7.84
  Q 187.99 7.76 188.16 7.68
  Q 188.41 7.54 188.70 7.55
  Q 192.27 7.62 195.99 7.27
  C 198.63 7.02 200.53 8.60 203.19 8.39
  Q 206.71 8.13 210.50 8.11
  Q 210.99 8.10 211.40 8.35
  Q 213.66 9.73 216.46 8.55
  Q 216.81 8.40 217.13 8.62
  Q 217.48 8.86 217.84 8.63
  Q 218.44 8.25 219.18 8.32
  A 1.15 1.11 66.9 0 1 219.82 8.59
  C 221.07 9.65 223.97 8.92 225.59 9.36
  Q 227.06 9.75 228.40 9.90
  Q 232.23 10.32 236.20 10.24
  Q 236.99 10.23 237.68 10.63
  Q 238.12 10.89 238.62 10.93
  Q 243.80 11.34 248.71 12.29
  Q 251.05 12.74 253.35 12.81
  Q 255.11 12.86 256.60 13.38
  Q 258.12 13.90 259.47 13.98
  Q 262.53 14.16 265.46 14.50
  Q 265.66 14.52 265.87 14.57
  L 287.15 19.08
  Q 287.51 19.16 287.84 19.31
  Q 288.83 19.78 290.02 20.01
  Q 291.20 20.24 292.42 20.57
  Q 300.03 22.66 307.53 25.06
  Q 330.25 32.33 348.20 44.89
  Q 358.06 51.80 363.51 61.99
  Q 364.47 63.78 364.92 65.86
  Q 365.23 67.29 365.67 68.79
  Q 366.12 70.28 366.02 71.84
  Z
  M 68.50 96.88
  A 145.52 43.76 0.0 0 0 121.51 109.62
  A 145.52 43.77 0.0 0 0 233.50 111.08
  A 145.51 43.73 -0.0 0 0 282.74 101.94
  A 145.24 43.67 0.0 0 0 297.83 96.99
  A 145.30 43.74 0.0 0 0 318.03 86.52
  A 145.26 43.66 -0.0 0 0 327.60 75.65
  A 145.76 43.88 -0.0 0 0 326.24 61.74
  A 145.75 43.84 -0.0 0 0 311.48 49.24
  A 145.23 43.75 -0.0 0 0 283.13 38.11
  A 145.53 43.76 0.0 0 0 209.75 26.91
  A 145.56 43.69 0.0 0 0 151.75 27.23
  A 145.49 43.79 0.0 0 0 92.26 35.82
  A 145.43 43.71 -0.0 0 0 65.74 44.18
  A 145.52 43.76 -0.0 0 0 43.55 57.79
  A 144.75 43.51 -0.1 0 0 39.04 64.29
  A 145.32 43.72 -0.0 0 0 40.73 78.72
  A 145.98 44.18 -0.4 0 0 46.82 85.15
  A 145.18 43.64 0.0 0 0 68.50 96.88
  Z"
/>
<path fill="#b8d432" d="
  M 297.83 96.99
  Q 290.14 93.65 284.26 92.01
  Q 259.20 85.03 230.59 82.17
  Q 189.79 78.10 147.96 81.14
  Q 122.07 83.01 98.00 88.07
  Q 83.16 91.19 68.50 96.88
  A 145.18 43.64 0.0 0 1 46.82 85.15
  A 145.98 44.18 -0.4 0 1 40.73 78.72
  A 145.32 43.72 -0.0 0 1 39.04 64.29
  A 144.75 43.51 -0.1 0 1 43.55 57.79
  A 145.52 43.76 -0.0 0 1 65.74 44.18
  A 145.43 43.71 -0.0 0 1 92.26 35.82
  A 145.49 43.79 0.0 0 1 151.75 27.23
  A 145.56 43.69 0.0 0 1 209.75 26.91
  A 145.53 43.76 0.0 0 1 283.13 38.11
  A 145.23 43.75 -0.0 0 1 311.48 49.24
  A 145.75 43.84 -0.0 0 1 326.24 61.74
  A 145.76 43.88 -0.0 0 1 327.60 75.65
  A 145.26 43.66 -0.0 0 1 318.03 86.52
  A 145.30 43.74 0.0 0 1 297.83 96.99
  Z"
/>
<path fill="#2687ce" d="
  M 366.02 71.84
  Q 365.98 248.96 366.00 426.00
  C 366.00 437.63 356.94 448.31 347.32 454.97
  Q 331.12 466.19 310.75 473.31
  Q 293.80 479.25 276.03 482.94
  Q 251.33 488.07 221.76 490.39
  Q 216.08 490.84 212.53 490.95
  Q 207.94 491.08 203.98 491.34
  Q 188.15 492.39 172.20 491.61
  L 179.68 491.16
  Q 180.92 491.08 180.92 489.84
  L 180.90 351.72
  L 188.80 352.46
  A 2.80 2.77 -18.1 0 1 190.63 353.38
  L 212.88 378.38
  A 2.86 2.85 -20.8 0 0 215.01 379.33
  L 246.51 379.40
  Q 247.45 379.40 246.76 378.77
  L 214.50 348.98
  A 0.54 0.54 0.0 0 1 214.68 348.08
  Q 235.66 340.26 244.50 318.56
  C 251.30 301.87 251.13 279.27 242.92 262.78
  Q 231.42 239.68 205.76 234.42
  Q 195.31 232.27 180.99 234.56
  Q 181.10 230.89 181.08 227.25
  Q 180.95 191.44 181.08 155.64
  Q 181.08 155.54 180.89 148.37
  Q 180.78 144.13 181.26 139.95
  C 221.22 140.14 261.20 135.93 299.50 124.84
  Q 319.16 119.14 336.63 109.83
  C 346.58 104.53 357.94 95.86 362.92 85.93
  Q 365.51 80.79 366.02 71.84
  Z
  M 336.99 329.97
  A 0.45 0.45 0.0 0 0 336.54 329.52
  L 294.89 329.52
  A 0.45 0.45 0.0 0 1 294.44 329.07
  L 294.43 235.91
  A 0.45 0.45 0.0 0 0 293.98 235.46
  L 268.97 235.47
  A 0.45 0.45 0.0 0 0 268.52 235.92
  L 268.55 350.22
  A 0.45 0.45 0.0 0 0 269.00 350.67
  L 336.56 350.72
  A 0.45 0.45 0.0 0 0 337.01 350.27
  L 336.99 329.97
  Z"
/>
<path fill="#0072c5" d="
  M 0.34 77.03
  C 0.62 77.79 1.07 78.44 1.25 79.22
  C 5.97 99.43 32.88 112.77 51.15 119.50
  Q 74.27 128.03 101.06 132.92
  Q 131.75 138.54 164.26 139.57
  Q 173.11 139.85 181.26 139.95
  Q 180.78 144.13 180.89 148.37
  Q 181.08 155.54 181.08 155.64
  Q 180.95 191.44 181.08 227.25
  Q 181.10 230.89 180.99 234.56
  Q 146.44 242.78 138.31 277.78
  Q 134.59 293.80 137.65 307.99
  Q 145.43 343.99 180.90 351.72
  L 180.92 489.84
  Q 180.92 491.08 179.68 491.16
  L 172.20 491.61
  Q 165.08 491.38 157.90 491.16
  Q 150.63 490.94 143.60 490.29
  Q 138.48 489.82 133.78 489.40
  C 116.07 487.83 98.23 484.72 81.26 480.80
  C 61.45 476.23 41.44 469.01 24.14 458.27
  C 14.20 452.09 1.61 441.15 0.92 428.51
  Q 0.66 423.75 0.65 417.48
  Q 0.31 250.99 0.76 84.50
  Q 0.77 81.79 0.00 79.13
  L 0.00 77.50
  Q 0.26 77.78 0.34 77.03
  Z
  M 89.32 254.09
  C 99.83 252.90 110.62 255.43 119.56 261.34
  Q 120.26 261.80 120.26 260.96
  L 120.25 238.26
  Q 120.25 237.67 119.68 237.49
  Q 103.69 232.35 86.37 233.69
  C 66.88 235.21 50.19 246.68 50.28 267.72
  Q 50.32 277.68 55.58 285.06
  C 62.84 295.25 73.71 299.96 84.64 305.47
  C 91.07 308.72 98.28 313.09 97.85 321.26
  C 97.37 330.33 87.18 332.43 80.08 332.19
  Q 63.98 331.65 51.32 320.93
  A 0.35 0.35 0.0 0 0 50.75 321.20
  L 50.75 345.69
  Q 50.75 346.17 51.17 346.39
  C 63.66 352.99 79.95 353.67 93.74 351.52
  C 107.87 349.31 120.88 341.46 124.24 326.88
  C 127.03 314.76 124.26 302.85 114.45 294.72
  Q 106.93 288.48 96.93 283.89
  Q 89.55 280.50 83.43 276.43
  Q 77.95 272.78 77.60 266.24
  C 77.22 259.11 82.79 254.82 89.32 254.09
  Z"
/>
<path fill="#7fba00" d="
  M 297.83 96.99
  A 145.24 43.67 0.0 0 1 282.74 101.94
  A 145.51 43.73 -0.0 0 1 233.50 111.08
  A 145.52 43.77 0.0 0 1 121.51 109.62
  A 145.52 43.76 0.0 0 1 68.50 96.88
  Q 83.16 91.19 98.00 88.07
  Q 122.07 83.01 147.96 81.14
  Q 189.79 78.10 230.59 82.17
  Q 259.20 85.03 284.26 92.01
  Q 290.14 93.65 297.83 96.99
  Z"
/>
<path fill="#ffffff" d="
  M 119.56 261.34
  C 110.62 255.43 99.83 252.90 89.32 254.09
  C 82.79 254.82 77.22 259.11 77.60 266.24
  Q 77.95 272.78 83.43 276.43
  Q 89.55 280.50 96.93 283.89
  Q 106.93 288.48 114.45 294.72
  C 124.26 302.85 127.03 314.76 124.24 326.88
  C 120.88 341.46 107.87 349.31 93.74 351.52
  C 79.95 353.67 63.66 352.99 51.17 346.39
  Q 50.75 346.17 50.75 345.69
  L 50.75 321.20
  A 0.35 0.35 0.0 0 1 51.32 320.93
  Q 63.98 331.65 80.08 332.19
  C 87.18 332.43 97.37 330.33 97.85 321.26
  C 98.28 313.09 91.07 308.72 84.64 305.47
  C 73.71 299.96 62.84 295.25 55.58 285.06
  Q 50.32 277.68 50.28 267.72
  C 50.19 246.68 66.88 235.21 86.37 233.69
  Q 103.69 232.35 119.68 237.49
  Q 120.25 237.67 120.25 238.26
  L 120.26 260.96
  Q 120.26 261.80 119.56 261.34
  Z"
/>
<path fill="#ffffff" d="
  M 180.90 351.72
  Q 145.43 343.99 137.65 307.99
  Q 134.59 293.80 138.31 277.78
  Q 146.44 242.78 180.99 234.56
  Q 195.31 232.27 205.76 234.42
  Q 231.42 239.68 242.92 262.78
  C 251.13 279.27 251.30 301.87 244.50 318.56
  Q 235.66 340.26 214.68 348.08
  A 0.54 0.54 0.0 0 0 214.50 348.98
  L 246.76 378.77
  Q 247.45 379.40 246.51 379.40
  L 215.01 379.33
  A 2.86 2.85 -20.8 0 1 212.88 378.38
  L 190.63 353.38
  A 2.80 2.77 -18.1 0 0 188.80 352.46
  L 180.90 351.72
  Z
  M 181.20 258.32
  C 164.79 266.72 161.65 287.53 164.63 303.91
  C 166.49 314.14 171.80 322.99 181.16 327.72
  Q 189.20 331.44 198.28 329.74
  C 216.56 326.32 222.56 308.51 222.11 292.17
  C 221.62 274.23 213.73 254.90 192.48 255.61
  Q 186.27 255.82 181.20 258.32
  Z"
/>
<path fill="#ffffff" d="
  M 336.99 329.97
  L 337.01 350.27
  A 0.45 0.45 0.0 0 1 336.56 350.72
  L 269.00 350.67
  A 0.45 0.45 0.0 0 1 268.55 350.22
  L 268.52 235.92
  A 0.45 0.45 0.0 0 1 268.97 235.47
  L 293.98 235.46
  A 0.45 0.45 0.0 0 1 294.43 235.91
  L 294.44 329.07
  A 0.45 0.45 0.0 0 0 294.89 329.52
  L 336.54 329.52
  A 0.45 0.45 0.0 0 1 336.99 329.97
  Z"
/>
<path fill="#2687ce" d="
  M 181.16 327.72
  Q 180.75 322.87 180.75 321.50
  Q 180.82 293.20 180.80 264.90
  Q 180.80 263.69 181.02 261.61
  Q 181.19 260.02 181.20 258.32
  Q 186.27 255.82 192.48 255.61
  C 213.73 254.90 221.62 274.23 222.11 292.17
  C 222.56 308.51 216.56 326.32 198.28 329.74
  Q 189.20 331.44 181.16 327.72
  Z"
/>
<path fill="#0072c5" d="
  M 181.20 258.32
  Q 181.19 260.02 181.02 261.61
  Q 180.80 263.69 180.80 264.90
  Q 180.82 293.20 180.75 321.50
  Q 180.75 322.87 181.16 327.72
  C 171.80 322.99 166.49 314.14 164.63 303.91
  C 161.65 287.53 164.79 266.72 181.20 258.32
  Z"
/>
</svg>
