<?xml version="1.0" encoding="UTF-8" standalone="no"?>
<!DOCTYPE svg PUBLIC "-//W3C//DTD SVG 1.1//EN" "http://www.w3.org/Graphics/SVG/1.1/DTD/svg11.dtd">
<svg xmlns="http://www.w3.org/2000/svg" version="1.1" viewBox="0.00 0.00 320.00 196.00">
<path fill="#38bdf8" d="
  M 155.88 0.00
  L 164.25 0.00
  Q 168.76 0.36 173.24 0.84
  Q 195.05 3.18 212.12 15.41
  C 223.34 23.45 232.67 33.78 242.45 43.24
  C 249.17 49.74 257.27 54.89 266.77 56.77
  C 288.66 61.08 306.84 49.97 319.35 32.87
  Q 319.85 32.19 319.65 33.01
  C 312.39 62.86 294.43 86.78 263.04 93.70
  Q 242.15 98.32 220.08 94.37
  C 201.42 91.03 186.00 81.38 172.47 67.69
  Q 164.55 59.67 156.87 52.38
  C 151.85 47.62 145.50 43.15 138.89 40.98
  C 115.38 33.27 94.67 44.24 80.94 63.01
  Q 80.13 64.11 80.46 62.79
  C 88.40 30.22 108.89 6.35 143.26 1.34
  Q 149.53 0.43 155.88 0.00
  Z"
/>
<path fill="#38bdf8" d="
  M 171.69 146.79
  C 181.82 153.52 194.99 155.48 206.49 152.78
  C 219.89 149.63 231.19 140.17 239.35 129.09
  Q 239.79 128.49 239.62 129.22
  C 236.12 144.14 228.95 159.54 218.25 170.62
  C 199.70 189.83 172.52 194.56 146.33 191.57
  Q 119.68 188.54 99.31 170.25
  Q 91.33 163.09 83.49 154.92
  C 72.90 143.89 62.32 135.74 46.33 134.80
  C 27.35 133.68 11.61 144.60 0.70 159.53
  Q 0.16 160.27 0.37 159.38
  C 7.49 129.40 25.71 105.68 57.15 98.68
  C 69.63 95.90 82.95 95.59 95.62 97.33
  Q 121.46 100.87 141.01 118.67
  Q 150.42 127.24 160.59 137.69
  Q 165.32 142.55 171.69 146.79
  Z"
/>
</svg>
