<?xml version="1.0" encoding="UTF-8" standalone="no"?>
<!DOCTYPE svg PUBLIC "-//W3C//DTD SVG 1.1//EN" "http://www.w3.org/Graphics/SVG/1.1/DTD/svg11.dtd">
<svg xmlns="http://www.w3.org/2000/svg" version="1.1" viewBox="0.00 0.00 483.00 517.00">
<g stroke-width="2.30" fill="none" stroke-linecap="butt">
<path stroke="#f3a730" vector-effect="non-scaling-stroke" d="
  M 481.19 120.15
  Q 480.22 120.42 479.43 120.61
  Q 478.50 120.83 477.75 121.26
  Q 444.97 139.70 412.49 158.89"
/>
<path stroke="#ef8d35" vector-effect="non-scaling-stroke" d="
  M 412.49 158.89
  Q 403.75 153.94 380.94 140.57
  Q 370.19 134.27 342.55 118.45
  Q 339.47 116.69 336.38 114.93
  Q 306.15 97.68 276.17 79.99
  C 275.57 79.63 275.02 79.68 274.42 79.94"
/>
<path stroke="#f3a730" vector-effect="non-scaling-stroke" d="
  M 274.42 79.94
  L 68.31 198.50"
/>
<path stroke="#ef8d35" vector-effect="non-scaling-stroke" d="
  M 68.31 198.50
  L 0.52 158.75"
/>
<path stroke="#e97529" vector-effect="non-scaling-stroke" d="
  M 412.49 158.89
  Q 412.50 197.34 412.44 235.97
  C 412.44 236.71 412.11 237.26 411.97 238.05"
/>
<path stroke="#e97529" vector-effect="non-scaling-stroke" d="
  M 275.05 158.74
  Q 275.25 120.48 275.04 81.87
  Q 275.03 80.93 274.42 79.94"
/>
<path stroke="#f3a730" vector-effect="non-scaling-stroke" d="
  M 275.05 238.32
  Q 242.32 257.27 209.50 276.26
  Q 208.28 276.96 206.56 277.36"
/>
<path stroke="#e97529" vector-effect="non-scaling-stroke" d="
  M 206.56 277.36
  L 206.30 199.64
  A 0.66 0.65 -15.0 0 0 205.32 199.08
  L 137.50 238.39"
/>
<path stroke="#e97529" vector-effect="non-scaling-stroke" d="
  M 67.80 277.48
  Q 68.54 276.48 68.53 274.75
  Q 68.44 258.56 68.54 199.25
  Q 68.54 198.92 68.31 198.50"
/>
<path stroke="#ef8d35" vector-effect="non-scaling-stroke" d="
  M 206.56 277.36
  Q 206.43 277.72 206.52 278.04
  Q 206.59 278.30 206.94 278.50
  Q 241.06 298.06 275.13 317.82"
/>
<path stroke="#e97529" vector-effect="non-scaling-stroke" d="
  M 275.13 317.82
  L 275.11 395.89
  A 0.80 0.79 -75.0 0 1 273.92 396.58
  L 207.33 358.14
  A 0.71 0.69 -75.3 0 0 206.29 358.77
  Q 206.43 435.82 206.30 513.50
  Q 206.30 514.66 205.81 516.15"
/>
<path stroke="#f3a730" vector-effect="non-scaling-stroke" d="
  M 343.65 278.25
  L 275.13 317.82"
/>
</g>
<path fill="#f8bf3c" d="
  M 481.19 120.15
  Q 480.22 120.42 479.43 120.61
  Q 478.50 120.83 477.75 121.26
  Q 444.97 139.70 412.49 158.89
  Q 403.75 153.94 380.94 140.57
  Q 370.19 134.27 342.55 118.45
  Q 339.47 116.69 336.38 114.93
  Q 306.15 97.68 276.17 79.99
  C 275.57 79.63 275.02 79.68 274.42 79.94
  L 68.31 198.50
  L 0.52 158.75
  L 274.73 0.30
  A 0.89 0.87 -44.4 0 1 275.62 0.30
  Q 306.91 18.74 339.54 37.16
  C 340.59 37.76 341.54 38.61 342.57 39.20
  C 357.35 47.66 372.45 56.20 387.62 65.04
  Q 409.18 77.60 429.90 89.65
  Q 431.59 90.63 433.19 91.55
  Q 453.21 103.02 474.52 115.20
  Q 479.35 117.97 481.19 120.15
  Z"
/>
<path fill="#e55b2d" d="
  M 412.49 158.89
  Q 412.50 197.34 412.44 235.97
  C 412.44 236.71 412.11 237.26 411.97 238.05
  L 275.05 158.74
  Q 275.25 120.48 275.04 81.87
  Q 275.03 80.93 274.42 79.94
  C 275.02 79.68 275.57 79.63 276.17 79.99
  Q 306.15 97.68 336.38 114.93
  Q 339.47 116.69 342.55 118.45
  Q 370.19 134.27 380.94 140.57
  Q 403.75 153.94 412.49 158.89
  Z"
/>
<path fill="#ed8e24" d="
  M 274.42 79.94
  Q 275.03 80.93 275.04 81.87
  Q 275.25 120.48 275.05 158.74
  L 275.05 238.32
  Q 242.32 257.27 209.50 276.26
  Q 208.28 276.96 206.56 277.36
  L 206.30 199.64
  A 0.66 0.65 -15.0 0 0 205.32 199.08
  L 137.50 238.39
  Q 130.30 242.11 123.47 246.14
  Q 103.39 257.99 85.36 268.27
  C 80.94 270.79 74.43 275.22 68.73 277.88
  Q 68.39 278.04 67.80 277.48
  Q 68.54 276.48 68.53 274.75
  Q 68.44 258.56 68.54 199.25
  Q 68.54 198.92 68.31 198.50
  L 274.42 79.94
  Z"
/>
<path fill="#ed8e24" d="
  M 481.19 120.15
  L 481.13 198.08
  Q 481.13 198.57 480.71 198.81
  L 412.97 237.97
  A 0.81 0.79 -49.7 0 1 412.33 238.03
  Q 412.09 237.96 411.97 238.05
  C 412.11 237.26 412.44 236.71 412.44 235.97
  Q 412.50 197.34 412.49 158.89
  Q 444.97 139.70 477.75 121.26
  Q 478.50 120.83 479.43 120.61
  Q 480.22 120.42 481.19 120.15
  Z"
/>
<path fill="#e55b2d" d="
  M 0.00 158.75
  Q 0.28 158.94 0.52 158.75
  L 68.31 198.50
  Q 68.54 198.92 68.54 199.25
  Q 68.44 258.56 68.53 274.75
  Q 68.54 276.48 67.80 277.48
  L 0.00 238.17
  L 0.00 158.75
  Z"
/>
<path fill="#e55b2d" d="
  M 206.56 277.36
  Q 206.43 277.72 206.52 278.04
  Q 206.59 278.30 206.94 278.50
  Q 241.06 298.06 275.13 317.82
  L 275.11 395.89
  A 0.80 0.79 -75.0 0 1 273.92 396.58
  L 207.33 358.14
  A 0.71 0.69 -75.3 0 0 206.29 358.77
  Q 206.43 435.82 206.30 513.50
  Q 206.30 514.66 205.81 516.15
  L 137.92 476.67
  Q 137.50 476.42 137.50 475.92
  L 137.50 238.39
  L 205.32 199.08
  A 0.66 0.65 -15.0 0 1 206.30 199.64
  L 206.56 277.36
  Z"
/>
<path fill="#f8bf3c" d="
  M 275.05 238.32
  L 343.65 278.25
  L 275.13 317.82
  Q 241.06 298.06 206.94 278.50
  Q 206.59 278.30 206.52 278.04
  Q 206.43 277.72 206.56 277.36
  Q 208.28 276.96 209.50 276.26
  Q 242.32 257.27 275.05 238.32
  Z"
/>
<path fill="#ed8e24" d="
  M 343.65 278.25
  L 343.63 357.09
  A 0.63 0.61 -15.0 0 1 343.31 357.63
  L 275.45 396.83
  Q 275.00 397.08 275.00 397.60
  L 275.00 475.96
  Q 275.00 476.42 274.60 476.66
  Q 272.71 477.77 270.92 478.81
  Q 253.15 489.14 233.55 500.49
  Q 227.79 503.83 221.09 507.82
  Q 213.54 512.31 205.81 516.15
  Q 206.30 514.66 206.30 513.50
  Q 206.43 435.82 206.29 358.77
  A 0.71 0.69 -75.3 0 1 207.33 358.14
  L 273.92 396.58
  A 0.80 0.79 -75.0 0 0 275.11 395.89
  L 275.13 317.82
  L 343.65 278.25
  Z"
/>
</svg>
