<?xml version="1.0" encoding="UTF-8" standalone="no"?>
<!DOCTYPE svg PUBLIC "-//W3C//DTD SVG 1.1//EN" "http://www.w3.org/Graphics/SVG/1.1/DTD/svg11.dtd">
<svg xmlns="http://www.w3.org/2000/svg" version="1.1" viewBox="0.00 0.00 1448.00 1448.00">
<g stroke-width="2.30" fill="none" stroke-linecap="butt">
<path stroke="#98bce3" vector-effect="non-scaling-stroke" d="
  M 1143.57 937.69
  Q 1115.56 925.90 1090.86 911.53
  Q 1080.82 905.69 1070.82 897.69
  C 1051.80 882.44 1039.83 862.36 1045.72 837.24
  C 1051.93 810.78 1080.77 796.36 1105.12 790.52
  Q 1127.70 785.09 1153.57 785.54
  C 1204.91 786.42 1258.06 800.54 1300.95 829.39
  A 0.28 0.28 0.0 0 0 1301.39 829.16
  L 1301.34 697.76
  A 0.56 0.54 -80.3 0 0 1300.98 697.24
  C 1264.93 683.84 1227.61 676.96 1188.91 674.56
  C 1133.19 671.09 1076.72 673.09 1023.30 690.81
  C 996.52 699.70 970.05 713.63 949.17 732.15
  Q 902.47 773.57 895.08 835.87
  Q 892.41 858.33 894.69 881.74
  Q 900.89 945.52 949.02 989.36
  Q 969.35 1007.87 994.29 1022.18
  Q 1013.54 1033.22 1027.64 1039.28
  Q 1056.99 1051.89 1083.88 1063.36
  Q 1109.07 1074.12 1130.55 1087.10
  C 1156.06 1102.52 1180.66 1124.04 1178.50 1156.22
  C 1176.27 1189.53 1145.53 1206.04 1116.74 1212.26
  Q 1097.27 1216.47 1076.72 1216.76
  C 1010.56 1217.72 947.35 1194.97 896.82 1152.53
  A 0.33 0.33 0.0 0 0 896.28 1152.78
  L 896.27 1293.23
  A 1.09 1.08 13.3 0 0 896.87 1294.20
  Q 930.69 1310.66 967.70 1318.30
  Q 1030.00 1331.17 1096.00 1328.87
  Q 1135.57 1327.50 1173.29 1319.64
  C 1201.90 1313.68 1230.18 1303.38 1254.25 1287.60
  C 1287.20 1266.02 1313.16 1232.93 1322.74 1194.75
  C 1329.74 1166.85 1331.08 1136.93 1326.93 1107.72
  C 1319.36 1054.57 1286.83 1014.58 1241.58 985.99
  Q 1215.74 969.65 1187.74 956.97
  Q 1166.15 947.19 1143.57 937.69"
/>
<path stroke="#98bce3" vector-effect="non-scaling-stroke" d="
  M 514.10 803.47
  A 0.39 0.39 0.0 0 1 514.49 803.86
  L 514.49 1320.36
  A 0.39 0.39 0.0 0 0 514.88 1320.75
  L 657.92 1320.75
  A 0.39 0.39 0.0 0 0 658.31 1320.36
  L 658.32 803.87
  A 0.39 0.39 0.0 0 1 658.71 803.48
  L 839.61 803.47
  A 0.39 0.39 0.0 0 0 840.00 803.08
  L 840.00 687.64
  A 0.39 0.39 0.0 0 0 839.61 687.25
  L 334.14 687.25
  A 0.39 0.39 0.0 0 0 333.75 687.64
  L 333.75 803.08
  A 0.39 0.39 0.0 0 0 334.14 803.47
  L 514.10 803.47"
/>
</g>
<path fill="#3178c6" d="
  M 131.87 0.00
  L 1316.20 0.00
  Q 1366.24 4.29 1401.88 36.86
  C 1427.28 60.05 1443.79 91.80 1447.24 126.55
  Q 1447.51 129.36 1448.00 132.12
  L 1448.00 1316.25
  Q 1447.37 1319.98 1446.92 1323.75
  C 1439.72 1384.29 1393.73 1433.77 1333.75 1445.49
  Q 1330.01 1446.22 1316.12 1448.00
  L 131.75 1448.00
  Q 128.60 1447.45 125.42 1447.09
  C 100.73 1444.33 76.69 1435.01 57.43 1420.59
  Q 6.08 1382.18 0.00 1316.37
  L 0.00 131.50
  Q 0.84 125.32 1.76 119.14
  C 10.97 57.25 62.27 8.47 124.13 1.07
  Q 128.01 0.60 131.87 0.00
  Z
  M 1143.57 937.69
  Q 1115.56 925.90 1090.86 911.53
  Q 1080.82 905.69 1070.82 897.69
  C 1051.80 882.44 1039.83 862.36 1045.72 837.24
  C 1051.93 810.78 1080.77 796.36 1105.12 790.52
  Q 1127.70 785.09 1153.57 785.54
  C 1204.91 786.42 1258.06 800.54 1300.95 829.39
  A 0.28 0.28 0.0 0 0 1301.39 829.16
  L 1301.34 697.76
  A 0.56 0.54 -80.3 0 0 1300.98 697.24
  C 1264.93 683.84 1227.61 676.96 1188.91 674.56
  C 1133.19 671.09 1076.72 673.09 1023.30 690.81
  C 996.52 699.70 970.05 713.63 949.17 732.15
  Q 902.47 773.57 895.08 835.87
  Q 892.41 858.33 894.69 881.74
  Q 900.89 945.52 949.02 989.36
  Q 969.35 1007.87 994.29 1022.18
  Q 1013.54 1033.22 1027.64 1039.28
  Q 1056.99 1051.89 1083.88 1063.36
  Q 1109.07 1074.12 1130.55 1087.10
  C 1156.06 1102.52 1180.66 1124.04 1178.50 1156.22
  C 1176.27 1189.53 1145.53 1206.04 1116.74 1212.26
  Q 1097.27 1216.47 1076.72 1216.76
  C 1010.56 1217.72 947.35 1194.97 896.82 1152.53
  A 0.33 0.33 0.0 0 0 896.28 1152.78
  L 896.27 1293.23
  A 1.09 1.08 13.3 0 0 896.87 1294.20
  Q 930.69 1310.66 967.70 1318.30
  Q 1030.00 1331.17 1096.00 1328.87
  Q 1135.57 1327.50 1173.29 1319.64
  C 1201.90 1313.68 1230.18 1303.38 1254.25 1287.60
  C 1287.20 1266.02 1313.16 1232.93 1322.74 1194.75
  C 1329.74 1166.85 1331.08 1136.93 1326.93 1107.72
  C 1319.36 1054.57 1286.83 1014.58 1241.58 985.99
  Q 1215.74 969.65 1187.74 956.97
  Q 1166.15 947.19 1143.57 937.69
  Z
  M 514.10 803.47
  A 0.39 0.39 0.0 0 1 514.49 803.86
  L 514.49 1320.36
  A 0.39 0.39 0.0 0 0 514.88 1320.75
  L 657.92 1320.75
  A 0.39 0.39 0.0 0 0 658.31 1320.36
  L 658.32 803.87
  A 0.39 0.39 0.0 0 1 658.71 803.48
  L 839.61 803.47
  A 0.39 0.39 0.0 0 0 840.00 803.08
  L 840.00 687.64
  A 0.39 0.39 0.0 0 0 839.61 687.25
  L 334.14 687.25
  A 0.39 0.39 0.0 0 0 333.75 687.64
  L 333.75 803.08
  A 0.39 0.39 0.0 0 0 334.14 803.47
  L 514.10 803.47
  Z"
/>
<path fill="#ffffff" d="
  M 1143.57 937.69
  Q 1166.15 947.19 1187.74 956.97
  Q 1215.74 969.65 1241.58 985.99
  C 1286.83 1014.58 1319.36 1054.57 1326.93 1107.72
  C 1331.08 1136.93 1329.74 1166.85 1322.74 1194.75
  C 1313.16 1232.93 1287.20 1266.02 1254.25 1287.60
  C 1230.18 1303.38 1201.90 1313.68 1173.29 1319.64
  Q 1135.57 1327.50 1096.00 1328.87
  Q 1030.00 1331.17 967.70 1318.30
  Q 930.69 1310.66 896.87 1294.20
  A 1.09 1.08 13.3 0 1 896.27 1293.23
  L 896.28 1152.78
  A 0.33 0.33 0.0 0 1 896.82 1152.53
  C 947.35 1194.97 1010.56 1217.72 1076.72 1216.76
  Q 1097.27 1216.47 1116.74 1212.26
  C 1145.53 1206.04 1176.27 1189.53 1178.50 1156.22
  C 1180.66 1124.04 1156.06 1102.52 1130.55 1087.10
  Q 1109.07 1074.12 1083.88 1063.36
  Q 1056.99 1051.89 1027.64 1039.28
  Q 1013.54 1033.22 994.29 1022.18
  Q 969.35 1007.87 949.02 989.36
  Q 900.89 945.52 894.69 881.74
  Q 892.41 858.33 895.08 835.87
  Q 902.47 773.57 949.17 732.15
  C 970.05 713.63 996.52 699.70 1023.30 690.81
  C 1076.72 673.09 1133.19 671.09 1188.91 674.56
  C 1227.61 676.96 1264.93 683.84 1300.98 697.24
  A 0.56 0.54 -80.3 0 1 1301.34 697.76
  L 1301.39 829.16
  A 0.28 0.28 0.0 0 1 1300.95 829.39
  C 1258.06 800.54 1204.91 786.42 1153.57 785.54
  Q 1127.70 785.09 1105.12 790.52
  C 1080.77 796.36 1051.93 810.78 1045.72 837.24
  C 1039.83 862.36 1051.80 882.44 1070.82 897.69
  Q 1080.82 905.69 1090.86 911.53
  Q 1115.56 925.90 1143.57 937.69
  Z"
/>
<path fill="#ffffff" d="
  M 514.10 803.47
  L 334.14 803.47
  A 0.39 0.39 0.0 0 1 333.75 803.08
  L 333.75 687.64
  A 0.39 0.39 0.0 0 1 334.14 687.25
  L 839.61 687.25
  A 0.39 0.39 0.0 0 1 840.00 687.64
  L 840.00 803.08
  A 0.39 0.39 0.0 0 1 839.61 803.47
  L 658.71 803.48
  A 0.39 0.39 0.0 0 0 658.32 803.87
  L 658.31 1320.36
  A 0.39 0.39 0.0 0 1 657.92 1320.75
  L 514.88 1320.75
  A 0.39 0.39 0.0 0 1 514.49 1320.36
  L 514.49 803.86
  A 0.39 0.39 0.0 0 0 514.10 803.47
  Z"
/>
</svg>
